G04 #@! TF.GenerationSoftware,KiCad,Pcbnew,5.1.9-73d0e3b20d~88~ubuntu20.04.1*
G04 #@! TF.CreationDate,2021-01-19T00:06:27+03:00*
G04 #@! TF.ProjectId,jeaex-right,6a656165-782d-4726-9967-68742e6b6963,rev?*
G04 #@! TF.SameCoordinates,Original*
G04 #@! TF.FileFunction,Legend,Top*
G04 #@! TF.FilePolarity,Positive*
%FSLAX46Y46*%
G04 Gerber Fmt 4.6, Leading zero omitted, Abs format (unit mm)*
G04 Created by KiCad (PCBNEW 5.1.9-73d0e3b20d~88~ubuntu20.04.1) date 2021-01-19 00:06:27*
%MOMM*%
%LPD*%
G01*
G04 APERTURE LIST*
%ADD10C,0.120000*%
%ADD11C,0.150000*%
%ADD12C,0.100000*%
G04 APERTURE END LIST*
D10*
G04 #@! TO.C,R3*
X287970000Y-82887064D02*
X287970000Y-81432936D01*
X286150000Y-82887064D02*
X286150000Y-81432936D01*
G04 #@! TO.C,R2*
X285440000Y-82887064D02*
X285440000Y-81432936D01*
X283620000Y-82887064D02*
X283620000Y-81432936D01*
D11*
G04 #@! TO.C,U1*
X285790000Y-80910000D02*
X285790000Y-88530000D01*
X294680000Y-88530000D02*
X294680000Y-80910000D01*
X285790000Y-88530000D02*
X294680000Y-88530000D01*
X285790000Y-80910000D02*
X294680000Y-80910000D01*
X281980000Y-79640000D02*
X278170000Y-79640000D01*
X278170000Y-79640000D02*
X278170000Y-80910000D01*
X278170000Y-80910000D02*
X278170000Y-82180000D01*
X278170000Y-82180000D02*
X281980000Y-82180000D01*
X281980000Y-82180000D02*
X281980000Y-79640000D01*
X245150000Y-82180000D02*
X248960000Y-82180000D01*
X248960000Y-82180000D02*
X248960000Y-87260000D01*
X248960000Y-87260000D02*
X245150000Y-87260000D01*
X245150000Y-87260000D02*
X245150000Y-82180000D01*
X268010000Y-78370000D02*
X274360000Y-84720000D01*
X274360000Y-84720000D02*
X268010000Y-91070000D01*
X268010000Y-91070000D02*
X261660000Y-84720000D01*
X261660000Y-84720000D02*
X268010000Y-78370000D01*
X293410000Y-93610000D02*
X242610000Y-93610000D01*
X242610000Y-93610000D02*
X242610000Y-75830000D01*
X242610000Y-75830000D02*
X293410000Y-75830000D01*
X293410000Y-75830000D02*
X293410000Y-93610000D01*
D12*
G36*
X269026000Y-86117000D02*
G01*
X269026000Y-87133000D01*
X269407000Y-87133000D01*
X269788000Y-86117000D01*
X269534000Y-86117000D01*
X269280000Y-86879000D01*
X269280000Y-86117000D01*
X269026000Y-86117000D01*
G37*
X269026000Y-86117000D02*
X269026000Y-87133000D01*
X269407000Y-87133000D01*
X269788000Y-86117000D01*
X269534000Y-86117000D01*
X269280000Y-86879000D01*
X269280000Y-86117000D01*
X269026000Y-86117000D01*
G36*
X267502000Y-86117000D02*
G01*
X267502000Y-87133000D01*
X268518000Y-87133000D01*
X268518000Y-86117000D01*
X268264000Y-86117000D01*
X268264000Y-86879000D01*
X268137000Y-86879000D01*
X268137000Y-86117000D01*
X267883000Y-86117000D01*
X267883000Y-86879000D01*
X267756000Y-86879000D01*
X267756000Y-86117000D01*
X267502000Y-86117000D01*
G37*
X267502000Y-86117000D02*
X267502000Y-87133000D01*
X268518000Y-87133000D01*
X268518000Y-86117000D01*
X268264000Y-86117000D01*
X268264000Y-86879000D01*
X268137000Y-86879000D01*
X268137000Y-86117000D01*
X267883000Y-86117000D01*
X267883000Y-86879000D01*
X267756000Y-86879000D01*
X267756000Y-86117000D01*
X267502000Y-86117000D01*
G36*
X266359000Y-87260000D02*
G01*
X268645000Y-87260000D01*
X268645000Y-86117000D01*
X268899000Y-86117000D01*
X268899000Y-87260000D01*
X269407000Y-87260000D01*
X269280000Y-87514000D01*
X266359000Y-87514000D01*
X266359000Y-87260000D01*
G37*
X266359000Y-87260000D02*
X268645000Y-87260000D01*
X268645000Y-86117000D01*
X268899000Y-86117000D01*
X268899000Y-87260000D01*
X269407000Y-87260000D01*
X269280000Y-87514000D01*
X266359000Y-87514000D01*
X266359000Y-87260000D01*
G36*
X266613000Y-87133000D02*
G01*
X266613000Y-86117000D01*
X265978000Y-86117000D01*
X265851000Y-86371000D01*
X266359000Y-86371000D01*
X266359000Y-87133000D01*
X266613000Y-87133000D01*
G37*
X266613000Y-87133000D02*
X266613000Y-86117000D01*
X265978000Y-86117000D01*
X265851000Y-86371000D01*
X266359000Y-86371000D01*
X266359000Y-87133000D01*
X266613000Y-87133000D01*
G36*
X267375000Y-87133000D02*
G01*
X266740000Y-87133000D01*
X266740000Y-86879000D01*
X267121000Y-86879000D01*
X267121000Y-86752000D01*
X266740000Y-86752000D01*
X266740000Y-86498000D01*
X267121000Y-86498000D01*
X267121000Y-86371000D01*
X266740000Y-86371000D01*
X266740000Y-86117000D01*
X267375000Y-86117000D01*
X267375000Y-87133000D01*
G37*
X267375000Y-87133000D02*
X266740000Y-87133000D01*
X266740000Y-86879000D01*
X267121000Y-86879000D01*
X267121000Y-86752000D01*
X266740000Y-86752000D01*
X266740000Y-86498000D01*
X267121000Y-86498000D01*
X267121000Y-86371000D01*
X266740000Y-86371000D01*
X266740000Y-86117000D01*
X267375000Y-86117000D01*
X267375000Y-87133000D01*
G36*
X269788000Y-85990000D02*
G01*
X265978000Y-85990000D01*
X266105000Y-85736000D01*
X269788000Y-85736000D01*
X269788000Y-85990000D01*
G37*
X269788000Y-85990000D02*
X265978000Y-85990000D01*
X266105000Y-85736000D01*
X269788000Y-85736000D01*
X269788000Y-85990000D01*
D10*
G04 #@! TO.C,J2*
X190820000Y-89210000D02*
X193480000Y-89210000D01*
X190820000Y-81530000D02*
X190820000Y-89210000D01*
X193480000Y-81530000D02*
X193480000Y-89210000D01*
X190820000Y-81530000D02*
X193480000Y-81530000D01*
X190820000Y-80260000D02*
X190820000Y-78930000D01*
X190820000Y-78930000D02*
X192150000Y-78930000D01*
D11*
G04 #@! TO.C,J1*
X157920000Y-90920000D02*
X176020000Y-90920000D01*
X176020000Y-90920000D02*
X176020000Y-79740000D01*
X176020000Y-79740000D02*
X157920000Y-79740000D01*
X157920000Y-79740000D02*
X157920000Y-90920000D01*
D10*
G04 #@! TO.C,SW1*
X122035000Y-101115000D02*
X136005000Y-101115000D01*
X136005000Y-101115000D02*
X136005000Y-115085000D01*
X136005000Y-115085000D02*
X122035000Y-115085000D01*
X122035000Y-115085000D02*
X122035000Y-101115000D01*
G04 #@! TO.C,SW2*
X135955000Y-124865000D02*
X135955000Y-138835000D01*
X135955000Y-138835000D02*
X121985000Y-138835000D01*
X121985000Y-138835000D02*
X121985000Y-124865000D01*
X121985000Y-124865000D02*
X135955000Y-124865000D01*
G04 #@! TO.C,SW3*
X121985000Y-153355000D02*
X135955000Y-153355000D01*
X121985000Y-167325000D02*
X121985000Y-153355000D01*
X135955000Y-167325000D02*
X121985000Y-167325000D01*
X135955000Y-153355000D02*
X135955000Y-167325000D01*
G04 #@! TO.C,SW4*
X107187627Y-215452121D02*
X102409606Y-202324615D01*
X102409606Y-202324615D02*
X115537112Y-197546593D01*
X115537112Y-197546593D02*
X120315133Y-210674099D01*
X120315133Y-210674099D02*
X107187627Y-215452121D01*
G04 #@! TO.C,SW5*
X141065000Y-115065000D02*
X141065000Y-101095000D01*
X155035000Y-115065000D02*
X141065000Y-115065000D01*
X155035000Y-101095000D02*
X155035000Y-115065000D01*
X141065000Y-101095000D02*
X155035000Y-101095000D01*
G04 #@! TO.C,SW6*
X141065000Y-134075000D02*
X141065000Y-120105000D01*
X155035000Y-134075000D02*
X141065000Y-134075000D01*
X155035000Y-120105000D02*
X155035000Y-134075000D01*
X141065000Y-120105000D02*
X155035000Y-120105000D01*
G04 #@! TO.C,SW7*
X141065000Y-153065000D02*
X141065000Y-139095000D01*
X155035000Y-153065000D02*
X141065000Y-153065000D01*
X155035000Y-139095000D02*
X155035000Y-153065000D01*
X141065000Y-139095000D02*
X155035000Y-139095000D01*
G04 #@! TO.C,SW8*
X141065000Y-158105000D02*
X155035000Y-158105000D01*
X155035000Y-158105000D02*
X155035000Y-172075000D01*
X155035000Y-172075000D02*
X141065000Y-172075000D01*
X141065000Y-172075000D02*
X141065000Y-158105000D01*
G04 #@! TO.C,SW9*
X136462763Y-199304742D02*
X123335257Y-204082764D01*
X131684742Y-186177236D02*
X136462763Y-199304742D01*
X118557236Y-190955258D02*
X131684742Y-186177236D01*
X123335257Y-204082764D02*
X118557236Y-190955258D01*
G04 #@! TO.C,SW10*
X160055000Y-101105000D02*
X174025000Y-101105000D01*
X174025000Y-101105000D02*
X174025000Y-115075000D01*
X174025000Y-115075000D02*
X160055000Y-115075000D01*
X160055000Y-115075000D02*
X160055000Y-101105000D01*
G04 #@! TO.C,SW11*
X160065000Y-134075000D02*
X160065000Y-120105000D01*
X174035000Y-134075000D02*
X160065000Y-134075000D01*
X174035000Y-120105000D02*
X174035000Y-134075000D01*
X160065000Y-120105000D02*
X174035000Y-120105000D01*
G04 #@! TO.C,SW12*
X160065000Y-139095000D02*
X174035000Y-139095000D01*
X174035000Y-139095000D02*
X174035000Y-153065000D01*
X174035000Y-153065000D02*
X160065000Y-153065000D01*
X160065000Y-153065000D02*
X160065000Y-139095000D01*
G04 #@! TO.C,SW13*
X160065000Y-172075000D02*
X160065000Y-158105000D01*
X174035000Y-172075000D02*
X160065000Y-172075000D01*
X174035000Y-158105000D02*
X174035000Y-172075000D01*
X160065000Y-158105000D02*
X174035000Y-158105000D01*
G04 #@! TO.C,SW14*
X148305000Y-177155000D02*
X162275000Y-177155000D01*
X162275000Y-177155000D02*
X162275000Y-191125000D01*
X162275000Y-191125000D02*
X148305000Y-191125000D01*
X148305000Y-191125000D02*
X148305000Y-177155000D01*
G04 #@! TO.C,SW15*
X179085000Y-112565000D02*
X179085000Y-98595000D01*
X193055000Y-112565000D02*
X179085000Y-112565000D01*
X193055000Y-98595000D02*
X193055000Y-112565000D01*
X179085000Y-98595000D02*
X193055000Y-98595000D01*
G04 #@! TO.C,SW16*
X179085000Y-131575000D02*
X179085000Y-117605000D01*
X193055000Y-131575000D02*
X179085000Y-131575000D01*
X193055000Y-117605000D02*
X193055000Y-131575000D01*
X179085000Y-117605000D02*
X193055000Y-117605000D01*
G04 #@! TO.C,SW17*
X179085000Y-136595000D02*
X193055000Y-136595000D01*
X193055000Y-136595000D02*
X193055000Y-150565000D01*
X193055000Y-150565000D02*
X179085000Y-150565000D01*
X179085000Y-150565000D02*
X179085000Y-136595000D01*
G04 #@! TO.C,SW18*
X179085000Y-155605000D02*
X193055000Y-155605000D01*
X193055000Y-155605000D02*
X193055000Y-169575000D01*
X193055000Y-169575000D02*
X179085000Y-169575000D01*
X179085000Y-169575000D02*
X179085000Y-155605000D01*
G04 #@! TO.C,SW19*
X176845000Y-191125000D02*
X176845000Y-177155000D01*
X190815000Y-191125000D02*
X176845000Y-191125000D01*
X190815000Y-177155000D02*
X190815000Y-191125000D01*
X176845000Y-177155000D02*
X190815000Y-177155000D01*
G04 #@! TO.C,SW20*
X198085000Y-101095000D02*
X212055000Y-101095000D01*
X212055000Y-101095000D02*
X212055000Y-115065000D01*
X212055000Y-115065000D02*
X198085000Y-115065000D01*
X198085000Y-115065000D02*
X198085000Y-101095000D01*
G04 #@! TO.C,SW21*
X198085000Y-134065000D02*
X198085000Y-120095000D01*
X212055000Y-134065000D02*
X198085000Y-134065000D01*
X212055000Y-120095000D02*
X212055000Y-134065000D01*
X198085000Y-120095000D02*
X212055000Y-120095000D01*
G04 #@! TO.C,SW22*
X198085000Y-153075000D02*
X198085000Y-139105000D01*
X212055000Y-153075000D02*
X198085000Y-153075000D01*
X212055000Y-139105000D02*
X212055000Y-153075000D01*
X198085000Y-139105000D02*
X212055000Y-139105000D01*
G04 #@! TO.C,SW23*
X198085000Y-158105000D02*
X212055000Y-158105000D01*
X212055000Y-158105000D02*
X212055000Y-172075000D01*
X212055000Y-172075000D02*
X198085000Y-172075000D01*
X198085000Y-172075000D02*
X198085000Y-158105000D01*
G04 #@! TO.C,SW24*
X200585000Y-181645000D02*
X214555000Y-181645000D01*
X214555000Y-181645000D02*
X214555000Y-195615000D01*
X214555000Y-195615000D02*
X200585000Y-195615000D01*
X200585000Y-195615000D02*
X200585000Y-181645000D01*
G04 #@! TO.C,SW25*
X217085000Y-105605000D02*
X231055000Y-105605000D01*
X231055000Y-105605000D02*
X231055000Y-119575000D01*
X231055000Y-119575000D02*
X217085000Y-119575000D01*
X217085000Y-119575000D02*
X217085000Y-105605000D01*
G04 #@! TO.C,SW26*
X217085000Y-138575000D02*
X217085000Y-124605000D01*
X231055000Y-138575000D02*
X217085000Y-138575000D01*
X231055000Y-124605000D02*
X231055000Y-138575000D01*
X217085000Y-124605000D02*
X231055000Y-124605000D01*
G04 #@! TO.C,SW27*
X217085000Y-143595000D02*
X231055000Y-143595000D01*
X231055000Y-143595000D02*
X231055000Y-157565000D01*
X231055000Y-157565000D02*
X217085000Y-157565000D01*
X217085000Y-157565000D02*
X217085000Y-143595000D01*
G04 #@! TO.C,SW28*
X217085000Y-162595000D02*
X231055000Y-162595000D01*
X231055000Y-162595000D02*
X231055000Y-176565000D01*
X231055000Y-176565000D02*
X217085000Y-176565000D01*
X217085000Y-176565000D02*
X217085000Y-162595000D01*
G04 #@! TO.C,SW29*
X233935000Y-195605000D02*
X233935000Y-181635000D01*
X247905000Y-195605000D02*
X233935000Y-195605000D01*
X247905000Y-181635000D02*
X247905000Y-195605000D01*
X233935000Y-181635000D02*
X247905000Y-181635000D01*
G04 #@! TO.C,SW30*
X245545000Y-105525000D02*
X259515000Y-105525000D01*
X259515000Y-105525000D02*
X259515000Y-119495000D01*
X259515000Y-119495000D02*
X245545000Y-119495000D01*
X245545000Y-119495000D02*
X245545000Y-105525000D01*
G04 #@! TO.C,SW31*
X236085000Y-138545000D02*
X236085000Y-124575000D01*
X250055000Y-138545000D02*
X236085000Y-138545000D01*
X250055000Y-124575000D02*
X250055000Y-138545000D01*
X236085000Y-124575000D02*
X250055000Y-124575000D01*
G04 #@! TO.C,SW32*
X236075000Y-143575000D02*
X250045000Y-143575000D01*
X250045000Y-143575000D02*
X250045000Y-157545000D01*
X250045000Y-157545000D02*
X236075000Y-157545000D01*
X236075000Y-157545000D02*
X236075000Y-143575000D01*
G04 #@! TO.C,SW33*
X252685000Y-162625000D02*
X266655000Y-162625000D01*
X266655000Y-162625000D02*
X266655000Y-176595000D01*
X266655000Y-176595000D02*
X252685000Y-176595000D01*
X252685000Y-176595000D02*
X252685000Y-162625000D01*
G04 #@! TO.C,SW34*
X255135000Y-138545000D02*
X255135000Y-124575000D01*
X269105000Y-138545000D02*
X255135000Y-138545000D01*
X269105000Y-124575000D02*
X269105000Y-138545000D01*
X255135000Y-124575000D02*
X269105000Y-124575000D01*
G04 #@! TO.C,SW35*
X267085000Y-143615000D02*
X281055000Y-143615000D01*
X281055000Y-143615000D02*
X281055000Y-157585000D01*
X281055000Y-157585000D02*
X267085000Y-157585000D01*
X267085000Y-157585000D02*
X267085000Y-143615000D01*
G04 #@! TO.C,REF\u002A\u002A*
D11*
X140396666Y-191292380D02*
X140063333Y-190816190D01*
X139825238Y-191292380D02*
X139825238Y-190292380D01*
X140206190Y-190292380D01*
X140301428Y-190340000D01*
X140349047Y-190387619D01*
X140396666Y-190482857D01*
X140396666Y-190625714D01*
X140349047Y-190720952D01*
X140301428Y-190768571D01*
X140206190Y-190816190D01*
X139825238Y-190816190D01*
X140825238Y-190768571D02*
X141158571Y-190768571D01*
X141301428Y-191292380D02*
X140825238Y-191292380D01*
X140825238Y-190292380D01*
X141301428Y-190292380D01*
X142063333Y-190768571D02*
X141730000Y-190768571D01*
X141730000Y-191292380D02*
X141730000Y-190292380D01*
X142206190Y-190292380D01*
X142730000Y-190292380D02*
X142730000Y-190530476D01*
X142491904Y-190435238D02*
X142730000Y-190530476D01*
X142968095Y-190435238D01*
X142587142Y-190720952D02*
X142730000Y-190530476D01*
X142872857Y-190720952D01*
X143491904Y-190292380D02*
X143491904Y-190530476D01*
X143253809Y-190435238D02*
X143491904Y-190530476D01*
X143730000Y-190435238D01*
X143349047Y-190720952D02*
X143491904Y-190530476D01*
X143634761Y-190720952D01*
X133806666Y-173762380D02*
X133473333Y-173286190D01*
X133235238Y-173762380D02*
X133235238Y-172762380D01*
X133616190Y-172762380D01*
X133711428Y-172810000D01*
X133759047Y-172857619D01*
X133806666Y-172952857D01*
X133806666Y-173095714D01*
X133759047Y-173190952D01*
X133711428Y-173238571D01*
X133616190Y-173286190D01*
X133235238Y-173286190D01*
X134235238Y-173238571D02*
X134568571Y-173238571D01*
X134711428Y-173762380D02*
X134235238Y-173762380D01*
X134235238Y-172762380D01*
X134711428Y-172762380D01*
X135473333Y-173238571D02*
X135140000Y-173238571D01*
X135140000Y-173762380D02*
X135140000Y-172762380D01*
X135616190Y-172762380D01*
X136140000Y-172762380D02*
X136140000Y-173000476D01*
X135901904Y-172905238D02*
X136140000Y-173000476D01*
X136378095Y-172905238D01*
X135997142Y-173190952D02*
X136140000Y-173000476D01*
X136282857Y-173190952D01*
X136901904Y-172762380D02*
X136901904Y-173000476D01*
X136663809Y-172905238D02*
X136901904Y-173000476D01*
X137140000Y-172905238D01*
X136759047Y-173190952D02*
X136901904Y-173000476D01*
X137044761Y-173190952D01*
G04 #@! TO.C,R3*
X285692380Y-82326666D02*
X285216190Y-82660000D01*
X285692380Y-82898095D02*
X284692380Y-82898095D01*
X284692380Y-82517142D01*
X284740000Y-82421904D01*
X284787619Y-82374285D01*
X284882857Y-82326666D01*
X285025714Y-82326666D01*
X285120952Y-82374285D01*
X285168571Y-82421904D01*
X285216190Y-82517142D01*
X285216190Y-82898095D01*
X284692380Y-81993333D02*
X284692380Y-81374285D01*
X285073333Y-81707619D01*
X285073333Y-81564761D01*
X285120952Y-81469523D01*
X285168571Y-81421904D01*
X285263809Y-81374285D01*
X285501904Y-81374285D01*
X285597142Y-81421904D01*
X285644761Y-81469523D01*
X285692380Y-81564761D01*
X285692380Y-81850476D01*
X285644761Y-81945714D01*
X285597142Y-81993333D01*
G04 #@! TO.C,R2*
X283162380Y-82326666D02*
X282686190Y-82660000D01*
X283162380Y-82898095D02*
X282162380Y-82898095D01*
X282162380Y-82517142D01*
X282210000Y-82421904D01*
X282257619Y-82374285D01*
X282352857Y-82326666D01*
X282495714Y-82326666D01*
X282590952Y-82374285D01*
X282638571Y-82421904D01*
X282686190Y-82517142D01*
X282686190Y-82898095D01*
X282257619Y-81945714D02*
X282210000Y-81898095D01*
X282162380Y-81802857D01*
X282162380Y-81564761D01*
X282210000Y-81469523D01*
X282257619Y-81421904D01*
X282352857Y-81374285D01*
X282448095Y-81374285D01*
X282590952Y-81421904D01*
X283162380Y-81993333D01*
X283162380Y-81374285D01*
G04 #@! TO.C,U1*
X267248095Y-94332380D02*
X267248095Y-95141904D01*
X267295714Y-95237142D01*
X267343333Y-95284761D01*
X267438571Y-95332380D01*
X267629047Y-95332380D01*
X267724285Y-95284761D01*
X267771904Y-95237142D01*
X267819523Y-95141904D01*
X267819523Y-94332380D01*
X268819523Y-95332380D02*
X268248095Y-95332380D01*
X268533809Y-95332380D02*
X268533809Y-94332380D01*
X268438571Y-94475238D01*
X268343333Y-94570476D01*
X268248095Y-94618095D01*
X265160000Y-83893666D02*
X265293333Y-83893666D01*
X265360000Y-83860333D01*
X265393333Y-83827000D01*
X265460000Y-83727000D01*
X265493333Y-83593666D01*
X265493333Y-83327000D01*
X265460000Y-83260333D01*
X265426666Y-83227000D01*
X265360000Y-83193666D01*
X265226666Y-83193666D01*
X265160000Y-83227000D01*
X265126666Y-83260333D01*
X265093333Y-83327000D01*
X265093333Y-83493666D01*
X265126666Y-83560333D01*
X265160000Y-83593666D01*
X265226666Y-83627000D01*
X265360000Y-83627000D01*
X265426666Y-83593666D01*
X265460000Y-83560333D01*
X265493333Y-83493666D01*
X265926666Y-83193666D02*
X265993333Y-83193666D01*
X266060000Y-83227000D01*
X266093333Y-83260333D01*
X266126666Y-83327000D01*
X266160000Y-83460333D01*
X266160000Y-83627000D01*
X266126666Y-83760333D01*
X266093333Y-83827000D01*
X266060000Y-83860333D01*
X265993333Y-83893666D01*
X265926666Y-83893666D01*
X265860000Y-83860333D01*
X265826666Y-83827000D01*
X265793333Y-83760333D01*
X265760000Y-83627000D01*
X265760000Y-83460333D01*
X265793333Y-83327000D01*
X265826666Y-83260333D01*
X265860000Y-83227000D01*
X265926666Y-83193666D01*
X266460000Y-83193666D02*
X266460000Y-83760333D01*
X266493333Y-83827000D01*
X266526666Y-83860333D01*
X266593333Y-83893666D01*
X266726666Y-83893666D01*
X266793333Y-83860333D01*
X266826666Y-83827000D01*
X266860000Y-83760333D01*
X266860000Y-83193666D01*
X267160000Y-83860333D02*
X267260000Y-83893666D01*
X267426666Y-83893666D01*
X267493333Y-83860333D01*
X267526666Y-83827000D01*
X267560000Y-83760333D01*
X267560000Y-83693666D01*
X267526666Y-83627000D01*
X267493333Y-83593666D01*
X267426666Y-83560333D01*
X267293333Y-83527000D01*
X267226666Y-83493666D01*
X267193333Y-83460333D01*
X267160000Y-83393666D01*
X267160000Y-83327000D01*
X267193333Y-83260333D01*
X267226666Y-83227000D01*
X267293333Y-83193666D01*
X267460000Y-83193666D01*
X267560000Y-83227000D01*
X268093333Y-83527000D02*
X268193333Y-83560333D01*
X268226666Y-83593666D01*
X268260000Y-83660333D01*
X268260000Y-83760333D01*
X268226666Y-83827000D01*
X268193333Y-83860333D01*
X268126666Y-83893666D01*
X267860000Y-83893666D01*
X267860000Y-83193666D01*
X268093333Y-83193666D01*
X268160000Y-83227000D01*
X268193333Y-83260333D01*
X268226666Y-83327000D01*
X268226666Y-83393666D01*
X268193333Y-83460333D01*
X268160000Y-83493666D01*
X268093333Y-83527000D01*
X267860000Y-83527000D01*
X268926666Y-83893666D02*
X268526666Y-83893666D01*
X268726666Y-83893666D02*
X268726666Y-83193666D01*
X268660000Y-83293666D01*
X268593333Y-83360333D01*
X268526666Y-83393666D01*
X269193333Y-83260333D02*
X269226666Y-83227000D01*
X269293333Y-83193666D01*
X269460000Y-83193666D01*
X269526666Y-83227000D01*
X269560000Y-83260333D01*
X269593333Y-83327000D01*
X269593333Y-83393666D01*
X269560000Y-83493666D01*
X269160000Y-83893666D01*
X269593333Y-83893666D01*
X269993333Y-83493666D02*
X269926666Y-83460333D01*
X269893333Y-83427000D01*
X269860000Y-83360333D01*
X269860000Y-83327000D01*
X269893333Y-83260333D01*
X269926666Y-83227000D01*
X269993333Y-83193666D01*
X270126666Y-83193666D01*
X270193333Y-83227000D01*
X270226666Y-83260333D01*
X270260000Y-83327000D01*
X270260000Y-83360333D01*
X270226666Y-83427000D01*
X270193333Y-83460333D01*
X270126666Y-83493666D01*
X269993333Y-83493666D01*
X269926666Y-83527000D01*
X269893333Y-83560333D01*
X269860000Y-83627000D01*
X269860000Y-83760333D01*
X269893333Y-83827000D01*
X269926666Y-83860333D01*
X269993333Y-83893666D01*
X270126666Y-83893666D01*
X270193333Y-83860333D01*
X270226666Y-83827000D01*
X270260000Y-83760333D01*
X270260000Y-83627000D01*
X270226666Y-83560333D01*
X270193333Y-83527000D01*
X270126666Y-83493666D01*
X270860000Y-83193666D02*
X270726666Y-83193666D01*
X270660000Y-83227000D01*
X270626666Y-83260333D01*
X270560000Y-83360333D01*
X270526666Y-83493666D01*
X270526666Y-83760333D01*
X270560000Y-83827000D01*
X270593333Y-83860333D01*
X270660000Y-83893666D01*
X270793333Y-83893666D01*
X270860000Y-83860333D01*
X270893333Y-83827000D01*
X270926666Y-83760333D01*
X270926666Y-83593666D01*
X270893333Y-83527000D01*
X270860000Y-83493666D01*
X270793333Y-83460333D01*
X270660000Y-83460333D01*
X270593333Y-83493666D01*
X270560000Y-83527000D01*
X270526666Y-83593666D01*
G04 #@! TO.C,J2*
X191816666Y-77382380D02*
X191816666Y-78096666D01*
X191769047Y-78239523D01*
X191673809Y-78334761D01*
X191530952Y-78382380D01*
X191435714Y-78382380D01*
X192245238Y-77477619D02*
X192292857Y-77430000D01*
X192388095Y-77382380D01*
X192626190Y-77382380D01*
X192721428Y-77430000D01*
X192769047Y-77477619D01*
X192816666Y-77572857D01*
X192816666Y-77668095D01*
X192769047Y-77810952D01*
X192197619Y-78382380D01*
X192816666Y-78382380D01*
G04 #@! TO.C,REF\u002A\u002A*
X172816666Y-96742380D02*
X172483333Y-96266190D01*
X172245238Y-96742380D02*
X172245238Y-95742380D01*
X172626190Y-95742380D01*
X172721428Y-95790000D01*
X172769047Y-95837619D01*
X172816666Y-95932857D01*
X172816666Y-96075714D01*
X172769047Y-96170952D01*
X172721428Y-96218571D01*
X172626190Y-96266190D01*
X172245238Y-96266190D01*
X173245238Y-96218571D02*
X173578571Y-96218571D01*
X173721428Y-96742380D02*
X173245238Y-96742380D01*
X173245238Y-95742380D01*
X173721428Y-95742380D01*
X174483333Y-96218571D02*
X174150000Y-96218571D01*
X174150000Y-96742380D02*
X174150000Y-95742380D01*
X174626190Y-95742380D01*
X175150000Y-95742380D02*
X175150000Y-95980476D01*
X174911904Y-95885238D02*
X175150000Y-95980476D01*
X175388095Y-95885238D01*
X175007142Y-96170952D02*
X175150000Y-95980476D01*
X175292857Y-96170952D01*
X175911904Y-95742380D02*
X175911904Y-95980476D01*
X175673809Y-95885238D02*
X175911904Y-95980476D01*
X176150000Y-95885238D01*
X175769047Y-96170952D02*
X175911904Y-95980476D01*
X176054761Y-96170952D01*
X235296666Y-100712380D02*
X234963333Y-100236190D01*
X234725238Y-100712380D02*
X234725238Y-99712380D01*
X235106190Y-99712380D01*
X235201428Y-99760000D01*
X235249047Y-99807619D01*
X235296666Y-99902857D01*
X235296666Y-100045714D01*
X235249047Y-100140952D01*
X235201428Y-100188571D01*
X235106190Y-100236190D01*
X234725238Y-100236190D01*
X235725238Y-100188571D02*
X236058571Y-100188571D01*
X236201428Y-100712380D02*
X235725238Y-100712380D01*
X235725238Y-99712380D01*
X236201428Y-99712380D01*
X236963333Y-100188571D02*
X236630000Y-100188571D01*
X236630000Y-100712380D02*
X236630000Y-99712380D01*
X237106190Y-99712380D01*
X237630000Y-99712380D02*
X237630000Y-99950476D01*
X237391904Y-99855238D02*
X237630000Y-99950476D01*
X237868095Y-99855238D01*
X237487142Y-100140952D02*
X237630000Y-99950476D01*
X237772857Y-100140952D01*
X238391904Y-99712380D02*
X238391904Y-99950476D01*
X238153809Y-99855238D02*
X238391904Y-99950476D01*
X238630000Y-99855238D01*
X238249047Y-100140952D02*
X238391904Y-99950476D01*
X238534761Y-100140952D01*
X252126666Y-143412380D02*
X251793333Y-142936190D01*
X251555238Y-143412380D02*
X251555238Y-142412380D01*
X251936190Y-142412380D01*
X252031428Y-142460000D01*
X252079047Y-142507619D01*
X252126666Y-142602857D01*
X252126666Y-142745714D01*
X252079047Y-142840952D01*
X252031428Y-142888571D01*
X251936190Y-142936190D01*
X251555238Y-142936190D01*
X252555238Y-142888571D02*
X252888571Y-142888571D01*
X253031428Y-143412380D02*
X252555238Y-143412380D01*
X252555238Y-142412380D01*
X253031428Y-142412380D01*
X253793333Y-142888571D02*
X253460000Y-142888571D01*
X253460000Y-143412380D02*
X253460000Y-142412380D01*
X253936190Y-142412380D01*
X254460000Y-142412380D02*
X254460000Y-142650476D01*
X254221904Y-142555238D02*
X254460000Y-142650476D01*
X254698095Y-142555238D01*
X254317142Y-142840952D02*
X254460000Y-142650476D01*
X254602857Y-142840952D01*
X255221904Y-142412380D02*
X255221904Y-142650476D01*
X254983809Y-142555238D02*
X255221904Y-142650476D01*
X255460000Y-142555238D01*
X255079047Y-142840952D02*
X255221904Y-142650476D01*
X255364761Y-142840952D01*
X234536666Y-174692380D02*
X234203333Y-174216190D01*
X233965238Y-174692380D02*
X233965238Y-173692380D01*
X234346190Y-173692380D01*
X234441428Y-173740000D01*
X234489047Y-173787619D01*
X234536666Y-173882857D01*
X234536666Y-174025714D01*
X234489047Y-174120952D01*
X234441428Y-174168571D01*
X234346190Y-174216190D01*
X233965238Y-174216190D01*
X234965238Y-174168571D02*
X235298571Y-174168571D01*
X235441428Y-174692380D02*
X234965238Y-174692380D01*
X234965238Y-173692380D01*
X235441428Y-173692380D01*
X236203333Y-174168571D02*
X235870000Y-174168571D01*
X235870000Y-174692380D02*
X235870000Y-173692380D01*
X236346190Y-173692380D01*
X236870000Y-173692380D02*
X236870000Y-173930476D01*
X236631904Y-173835238D02*
X236870000Y-173930476D01*
X237108095Y-173835238D01*
X236727142Y-174120952D02*
X236870000Y-173930476D01*
X237012857Y-174120952D01*
X237631904Y-173692380D02*
X237631904Y-173930476D01*
X237393809Y-173835238D02*
X237631904Y-173930476D01*
X237870000Y-173835238D01*
X237489047Y-174120952D02*
X237631904Y-173930476D01*
X237774761Y-174120952D01*
X203086666Y-176722380D02*
X202753333Y-176246190D01*
X202515238Y-176722380D02*
X202515238Y-175722380D01*
X202896190Y-175722380D01*
X202991428Y-175770000D01*
X203039047Y-175817619D01*
X203086666Y-175912857D01*
X203086666Y-176055714D01*
X203039047Y-176150952D01*
X202991428Y-176198571D01*
X202896190Y-176246190D01*
X202515238Y-176246190D01*
X203515238Y-176198571D02*
X203848571Y-176198571D01*
X203991428Y-176722380D02*
X203515238Y-176722380D01*
X203515238Y-175722380D01*
X203991428Y-175722380D01*
X204753333Y-176198571D02*
X204420000Y-176198571D01*
X204420000Y-176722380D02*
X204420000Y-175722380D01*
X204896190Y-175722380D01*
X205420000Y-175722380D02*
X205420000Y-175960476D01*
X205181904Y-175865238D02*
X205420000Y-175960476D01*
X205658095Y-175865238D01*
X205277142Y-176150952D02*
X205420000Y-175960476D01*
X205562857Y-176150952D01*
X206181904Y-175722380D02*
X206181904Y-175960476D01*
X205943809Y-175865238D02*
X206181904Y-175960476D01*
X206420000Y-175865238D01*
X206039047Y-176150952D02*
X206181904Y-175960476D01*
X206324761Y-176150952D01*
X182966666Y-173512380D02*
X182633333Y-173036190D01*
X182395238Y-173512380D02*
X182395238Y-172512380D01*
X182776190Y-172512380D01*
X182871428Y-172560000D01*
X182919047Y-172607619D01*
X182966666Y-172702857D01*
X182966666Y-172845714D01*
X182919047Y-172940952D01*
X182871428Y-172988571D01*
X182776190Y-173036190D01*
X182395238Y-173036190D01*
X183395238Y-172988571D02*
X183728571Y-172988571D01*
X183871428Y-173512380D02*
X183395238Y-173512380D01*
X183395238Y-172512380D01*
X183871428Y-172512380D01*
X184633333Y-172988571D02*
X184300000Y-172988571D01*
X184300000Y-173512380D02*
X184300000Y-172512380D01*
X184776190Y-172512380D01*
X185300000Y-172512380D02*
X185300000Y-172750476D01*
X185061904Y-172655238D02*
X185300000Y-172750476D01*
X185538095Y-172655238D01*
X185157142Y-172940952D02*
X185300000Y-172750476D01*
X185442857Y-172940952D01*
X186061904Y-172512380D02*
X186061904Y-172750476D01*
X185823809Y-172655238D02*
X186061904Y-172750476D01*
X186300000Y-172655238D01*
X185919047Y-172940952D02*
X186061904Y-172750476D01*
X186204761Y-172940952D01*
G04 #@! TO.C,J1*
X176759285Y-85580000D02*
X177295000Y-85580000D01*
X177402142Y-85615714D01*
X177473571Y-85687142D01*
X177509285Y-85794285D01*
X177509285Y-85865714D01*
X177509285Y-84830000D02*
X177509285Y-85258571D01*
X177509285Y-85044285D02*
X176759285Y-85044285D01*
X176866428Y-85115714D01*
X176937857Y-85187142D01*
X176973571Y-85258571D01*
X156559285Y-86294285D02*
X157059285Y-86294285D01*
X156273571Y-86472857D02*
X156809285Y-86651428D01*
X156809285Y-86187142D01*
X157059285Y-85901428D02*
X156309285Y-85901428D01*
X156309285Y-85615714D01*
X156345000Y-85544285D01*
X156380714Y-85508571D01*
X156452142Y-85472857D01*
X156559285Y-85472857D01*
X156630714Y-85508571D01*
X156666428Y-85544285D01*
X156702142Y-85615714D01*
X156702142Y-85901428D01*
X156559285Y-84830000D02*
X157059285Y-84830000D01*
X156273571Y-85008571D02*
X156809285Y-85187142D01*
X156809285Y-84722857D01*
X156987857Y-84008571D02*
X157023571Y-84044285D01*
X157059285Y-84151428D01*
X157059285Y-84222857D01*
X157023571Y-84330000D01*
X156952142Y-84401428D01*
X156880714Y-84437142D01*
X156737857Y-84472857D01*
X156630714Y-84472857D01*
X156487857Y-84437142D01*
X156416428Y-84401428D01*
X156345000Y-84330000D01*
X156309285Y-84222857D01*
X156309285Y-84151428D01*
X156345000Y-84044285D01*
X156380714Y-84008571D01*
G04 #@! TO.C,SW1*
X127686666Y-100630761D02*
X127829523Y-100678380D01*
X128067619Y-100678380D01*
X128162857Y-100630761D01*
X128210476Y-100583142D01*
X128258095Y-100487904D01*
X128258095Y-100392666D01*
X128210476Y-100297428D01*
X128162857Y-100249809D01*
X128067619Y-100202190D01*
X127877142Y-100154571D01*
X127781904Y-100106952D01*
X127734285Y-100059333D01*
X127686666Y-99964095D01*
X127686666Y-99868857D01*
X127734285Y-99773619D01*
X127781904Y-99726000D01*
X127877142Y-99678380D01*
X128115238Y-99678380D01*
X128258095Y-99726000D01*
X128591428Y-99678380D02*
X128829523Y-100678380D01*
X129020000Y-99964095D01*
X129210476Y-100678380D01*
X129448571Y-99678380D01*
X130353333Y-100678380D02*
X129781904Y-100678380D01*
X130067619Y-100678380D02*
X130067619Y-99678380D01*
X129972380Y-99821238D01*
X129877142Y-99916476D01*
X129781904Y-99964095D01*
G04 #@! TO.C,SW2*
X137248761Y-133183333D02*
X137296380Y-133040476D01*
X137296380Y-132802380D01*
X137248761Y-132707142D01*
X137201142Y-132659523D01*
X137105904Y-132611904D01*
X137010666Y-132611904D01*
X136915428Y-132659523D01*
X136867809Y-132707142D01*
X136820190Y-132802380D01*
X136772571Y-132992857D01*
X136724952Y-133088095D01*
X136677333Y-133135714D01*
X136582095Y-133183333D01*
X136486857Y-133183333D01*
X136391619Y-133135714D01*
X136344000Y-133088095D01*
X136296380Y-132992857D01*
X136296380Y-132754761D01*
X136344000Y-132611904D01*
X136296380Y-132278571D02*
X137296380Y-132040476D01*
X136582095Y-131850000D01*
X137296380Y-131659523D01*
X136296380Y-131421428D01*
X136391619Y-131088095D02*
X136344000Y-131040476D01*
X136296380Y-130945238D01*
X136296380Y-130707142D01*
X136344000Y-130611904D01*
X136391619Y-130564285D01*
X136486857Y-130516666D01*
X136582095Y-130516666D01*
X136724952Y-130564285D01*
X137296380Y-131135714D01*
X137296380Y-130516666D01*
G04 #@! TO.C,SW3*
X137248761Y-161673333D02*
X137296380Y-161530476D01*
X137296380Y-161292380D01*
X137248761Y-161197142D01*
X137201142Y-161149523D01*
X137105904Y-161101904D01*
X137010666Y-161101904D01*
X136915428Y-161149523D01*
X136867809Y-161197142D01*
X136820190Y-161292380D01*
X136772571Y-161482857D01*
X136724952Y-161578095D01*
X136677333Y-161625714D01*
X136582095Y-161673333D01*
X136486857Y-161673333D01*
X136391619Y-161625714D01*
X136344000Y-161578095D01*
X136296380Y-161482857D01*
X136296380Y-161244761D01*
X136344000Y-161101904D01*
X136296380Y-160768571D02*
X137296380Y-160530476D01*
X136582095Y-160340000D01*
X137296380Y-160149523D01*
X136296380Y-159911428D01*
X136296380Y-159625714D02*
X136296380Y-159006666D01*
X136677333Y-159340000D01*
X136677333Y-159197142D01*
X136724952Y-159101904D01*
X136772571Y-159054285D01*
X136867809Y-159006666D01*
X137105904Y-159006666D01*
X137201142Y-159054285D01*
X137248761Y-159101904D01*
X137296380Y-159197142D01*
X137296380Y-159482857D01*
X137248761Y-159578095D01*
X137201142Y-159625714D01*
G04 #@! TO.C,SW4*
X103126851Y-208077937D02*
X103130964Y-208228465D01*
X103212397Y-208452202D01*
X103289718Y-208525409D01*
X103350752Y-208553870D01*
X103456533Y-208566044D01*
X103546027Y-208533471D01*
X103619235Y-208456150D01*
X103647696Y-208395116D01*
X103659870Y-208289335D01*
X103639470Y-208094059D01*
X103651644Y-207988278D01*
X103680105Y-207927244D01*
X103753313Y-207849923D01*
X103842807Y-207817350D01*
X103948588Y-207829524D01*
X104009622Y-207857984D01*
X104086943Y-207931192D01*
X104168376Y-208154929D01*
X104172489Y-208305457D01*
X104331243Y-208602401D02*
X103472984Y-209168158D01*
X104209339Y-209102847D01*
X103603277Y-209526136D01*
X104624403Y-209407852D01*
X104588046Y-210282562D02*
X103961584Y-210510576D01*
X104864590Y-209928533D02*
X104111948Y-209949096D01*
X104323675Y-210530811D01*
G04 #@! TO.C,SW5*
X146716666Y-100610761D02*
X146859523Y-100658380D01*
X147097619Y-100658380D01*
X147192857Y-100610761D01*
X147240476Y-100563142D01*
X147288095Y-100467904D01*
X147288095Y-100372666D01*
X147240476Y-100277428D01*
X147192857Y-100229809D01*
X147097619Y-100182190D01*
X146907142Y-100134571D01*
X146811904Y-100086952D01*
X146764285Y-100039333D01*
X146716666Y-99944095D01*
X146716666Y-99848857D01*
X146764285Y-99753619D01*
X146811904Y-99706000D01*
X146907142Y-99658380D01*
X147145238Y-99658380D01*
X147288095Y-99706000D01*
X147621428Y-99658380D02*
X147859523Y-100658380D01*
X148050000Y-99944095D01*
X148240476Y-100658380D01*
X148478571Y-99658380D01*
X149335714Y-99658380D02*
X148859523Y-99658380D01*
X148811904Y-100134571D01*
X148859523Y-100086952D01*
X148954761Y-100039333D01*
X149192857Y-100039333D01*
X149288095Y-100086952D01*
X149335714Y-100134571D01*
X149383333Y-100229809D01*
X149383333Y-100467904D01*
X149335714Y-100563142D01*
X149288095Y-100610761D01*
X149192857Y-100658380D01*
X148954761Y-100658380D01*
X148859523Y-100610761D01*
X148811904Y-100563142D01*
G04 #@! TO.C,SW6*
X146716666Y-119620761D02*
X146859523Y-119668380D01*
X147097619Y-119668380D01*
X147192857Y-119620761D01*
X147240476Y-119573142D01*
X147288095Y-119477904D01*
X147288095Y-119382666D01*
X147240476Y-119287428D01*
X147192857Y-119239809D01*
X147097619Y-119192190D01*
X146907142Y-119144571D01*
X146811904Y-119096952D01*
X146764285Y-119049333D01*
X146716666Y-118954095D01*
X146716666Y-118858857D01*
X146764285Y-118763619D01*
X146811904Y-118716000D01*
X146907142Y-118668380D01*
X147145238Y-118668380D01*
X147288095Y-118716000D01*
X147621428Y-118668380D02*
X147859523Y-119668380D01*
X148050000Y-118954095D01*
X148240476Y-119668380D01*
X148478571Y-118668380D01*
X149288095Y-118668380D02*
X149097619Y-118668380D01*
X149002380Y-118716000D01*
X148954761Y-118763619D01*
X148859523Y-118906476D01*
X148811904Y-119096952D01*
X148811904Y-119477904D01*
X148859523Y-119573142D01*
X148907142Y-119620761D01*
X149002380Y-119668380D01*
X149192857Y-119668380D01*
X149288095Y-119620761D01*
X149335714Y-119573142D01*
X149383333Y-119477904D01*
X149383333Y-119239809D01*
X149335714Y-119144571D01*
X149288095Y-119096952D01*
X149192857Y-119049333D01*
X149002380Y-119049333D01*
X148907142Y-119096952D01*
X148859523Y-119144571D01*
X148811904Y-119239809D01*
G04 #@! TO.C,SW7*
X146716666Y-138610761D02*
X146859523Y-138658380D01*
X147097619Y-138658380D01*
X147192857Y-138610761D01*
X147240476Y-138563142D01*
X147288095Y-138467904D01*
X147288095Y-138372666D01*
X147240476Y-138277428D01*
X147192857Y-138229809D01*
X147097619Y-138182190D01*
X146907142Y-138134571D01*
X146811904Y-138086952D01*
X146764285Y-138039333D01*
X146716666Y-137944095D01*
X146716666Y-137848857D01*
X146764285Y-137753619D01*
X146811904Y-137706000D01*
X146907142Y-137658380D01*
X147145238Y-137658380D01*
X147288095Y-137706000D01*
X147621428Y-137658380D02*
X147859523Y-138658380D01*
X148050000Y-137944095D01*
X148240476Y-138658380D01*
X148478571Y-137658380D01*
X148764285Y-137658380D02*
X149430952Y-137658380D01*
X149002380Y-138658380D01*
G04 #@! TO.C,SW8*
X146716666Y-157620761D02*
X146859523Y-157668380D01*
X147097619Y-157668380D01*
X147192857Y-157620761D01*
X147240476Y-157573142D01*
X147288095Y-157477904D01*
X147288095Y-157382666D01*
X147240476Y-157287428D01*
X147192857Y-157239809D01*
X147097619Y-157192190D01*
X146907142Y-157144571D01*
X146811904Y-157096952D01*
X146764285Y-157049333D01*
X146716666Y-156954095D01*
X146716666Y-156858857D01*
X146764285Y-156763619D01*
X146811904Y-156716000D01*
X146907142Y-156668380D01*
X147145238Y-156668380D01*
X147288095Y-156716000D01*
X147621428Y-156668380D02*
X147859523Y-157668380D01*
X148050000Y-156954095D01*
X148240476Y-157668380D01*
X148478571Y-156668380D01*
X149002380Y-157096952D02*
X148907142Y-157049333D01*
X148859523Y-157001714D01*
X148811904Y-156906476D01*
X148811904Y-156858857D01*
X148859523Y-156763619D01*
X148907142Y-156716000D01*
X149002380Y-156668380D01*
X149192857Y-156668380D01*
X149288095Y-156716000D01*
X149335714Y-156763619D01*
X149383333Y-156858857D01*
X149383333Y-156906476D01*
X149335714Y-157001714D01*
X149288095Y-157049333D01*
X149192857Y-157096952D01*
X149002380Y-157096952D01*
X148907142Y-157144571D01*
X148859523Y-157192190D01*
X148811904Y-157287428D01*
X148811904Y-157477904D01*
X148859523Y-157573142D01*
X148907142Y-157620761D01*
X149002380Y-157668380D01*
X149192857Y-157668380D01*
X149288095Y-157620761D01*
X149335714Y-157573142D01*
X149383333Y-157477904D01*
X149383333Y-157287428D01*
X149335714Y-157192190D01*
X149288095Y-157144571D01*
X149192857Y-157096952D01*
G04 #@! TO.C,SW9*
X119274481Y-196708580D02*
X119278594Y-196859108D01*
X119360027Y-197082845D01*
X119437348Y-197156052D01*
X119498382Y-197184513D01*
X119604163Y-197196687D01*
X119693657Y-197164114D01*
X119766865Y-197086793D01*
X119795326Y-197025759D01*
X119807500Y-196919978D01*
X119787100Y-196724702D01*
X119799274Y-196618921D01*
X119827735Y-196557887D01*
X119900943Y-196480566D01*
X119990437Y-196447993D01*
X120096218Y-196460167D01*
X120157252Y-196488627D01*
X120234573Y-196561835D01*
X120316006Y-196785572D01*
X120320119Y-196936100D01*
X120478873Y-197233044D02*
X119620614Y-197798801D01*
X120356969Y-197733490D01*
X119750907Y-198156779D01*
X120772033Y-198038495D01*
X119978921Y-198783241D02*
X120044067Y-198962230D01*
X120121388Y-199035438D01*
X120182422Y-199063898D01*
X120349237Y-199104533D01*
X120544513Y-199084133D01*
X120902491Y-198953840D01*
X120975699Y-198876519D01*
X121004159Y-198815485D01*
X121016333Y-198709704D01*
X120951187Y-198530715D01*
X120873866Y-198457507D01*
X120812832Y-198429047D01*
X120707051Y-198416873D01*
X120483314Y-198498306D01*
X120410107Y-198575627D01*
X120381646Y-198636661D01*
X120369472Y-198742442D01*
X120434619Y-198921431D01*
X120511939Y-198994639D01*
X120572973Y-199023099D01*
X120678755Y-199035273D01*
G04 #@! TO.C,SW10*
X165230476Y-100620761D02*
X165373333Y-100668380D01*
X165611428Y-100668380D01*
X165706666Y-100620761D01*
X165754285Y-100573142D01*
X165801904Y-100477904D01*
X165801904Y-100382666D01*
X165754285Y-100287428D01*
X165706666Y-100239809D01*
X165611428Y-100192190D01*
X165420952Y-100144571D01*
X165325714Y-100096952D01*
X165278095Y-100049333D01*
X165230476Y-99954095D01*
X165230476Y-99858857D01*
X165278095Y-99763619D01*
X165325714Y-99716000D01*
X165420952Y-99668380D01*
X165659047Y-99668380D01*
X165801904Y-99716000D01*
X166135238Y-99668380D02*
X166373333Y-100668380D01*
X166563809Y-99954095D01*
X166754285Y-100668380D01*
X166992380Y-99668380D01*
X167897142Y-100668380D02*
X167325714Y-100668380D01*
X167611428Y-100668380D02*
X167611428Y-99668380D01*
X167516190Y-99811238D01*
X167420952Y-99906476D01*
X167325714Y-99954095D01*
X168516190Y-99668380D02*
X168611428Y-99668380D01*
X168706666Y-99716000D01*
X168754285Y-99763619D01*
X168801904Y-99858857D01*
X168849523Y-100049333D01*
X168849523Y-100287428D01*
X168801904Y-100477904D01*
X168754285Y-100573142D01*
X168706666Y-100620761D01*
X168611428Y-100668380D01*
X168516190Y-100668380D01*
X168420952Y-100620761D01*
X168373333Y-100573142D01*
X168325714Y-100477904D01*
X168278095Y-100287428D01*
X168278095Y-100049333D01*
X168325714Y-99858857D01*
X168373333Y-99763619D01*
X168420952Y-99716000D01*
X168516190Y-99668380D01*
G04 #@! TO.C,SW11*
X165240476Y-119620761D02*
X165383333Y-119668380D01*
X165621428Y-119668380D01*
X165716666Y-119620761D01*
X165764285Y-119573142D01*
X165811904Y-119477904D01*
X165811904Y-119382666D01*
X165764285Y-119287428D01*
X165716666Y-119239809D01*
X165621428Y-119192190D01*
X165430952Y-119144571D01*
X165335714Y-119096952D01*
X165288095Y-119049333D01*
X165240476Y-118954095D01*
X165240476Y-118858857D01*
X165288095Y-118763619D01*
X165335714Y-118716000D01*
X165430952Y-118668380D01*
X165669047Y-118668380D01*
X165811904Y-118716000D01*
X166145238Y-118668380D02*
X166383333Y-119668380D01*
X166573809Y-118954095D01*
X166764285Y-119668380D01*
X167002380Y-118668380D01*
X167907142Y-119668380D02*
X167335714Y-119668380D01*
X167621428Y-119668380D02*
X167621428Y-118668380D01*
X167526190Y-118811238D01*
X167430952Y-118906476D01*
X167335714Y-118954095D01*
X168859523Y-119668380D02*
X168288095Y-119668380D01*
X168573809Y-119668380D02*
X168573809Y-118668380D01*
X168478571Y-118811238D01*
X168383333Y-118906476D01*
X168288095Y-118954095D01*
G04 #@! TO.C,SW12*
X165240476Y-138610761D02*
X165383333Y-138658380D01*
X165621428Y-138658380D01*
X165716666Y-138610761D01*
X165764285Y-138563142D01*
X165811904Y-138467904D01*
X165811904Y-138372666D01*
X165764285Y-138277428D01*
X165716666Y-138229809D01*
X165621428Y-138182190D01*
X165430952Y-138134571D01*
X165335714Y-138086952D01*
X165288095Y-138039333D01*
X165240476Y-137944095D01*
X165240476Y-137848857D01*
X165288095Y-137753619D01*
X165335714Y-137706000D01*
X165430952Y-137658380D01*
X165669047Y-137658380D01*
X165811904Y-137706000D01*
X166145238Y-137658380D02*
X166383333Y-138658380D01*
X166573809Y-137944095D01*
X166764285Y-138658380D01*
X167002380Y-137658380D01*
X167907142Y-138658380D02*
X167335714Y-138658380D01*
X167621428Y-138658380D02*
X167621428Y-137658380D01*
X167526190Y-137801238D01*
X167430952Y-137896476D01*
X167335714Y-137944095D01*
X168288095Y-137753619D02*
X168335714Y-137706000D01*
X168430952Y-137658380D01*
X168669047Y-137658380D01*
X168764285Y-137706000D01*
X168811904Y-137753619D01*
X168859523Y-137848857D01*
X168859523Y-137944095D01*
X168811904Y-138086952D01*
X168240476Y-138658380D01*
X168859523Y-138658380D01*
G04 #@! TO.C,SW13*
X165240476Y-157620761D02*
X165383333Y-157668380D01*
X165621428Y-157668380D01*
X165716666Y-157620761D01*
X165764285Y-157573142D01*
X165811904Y-157477904D01*
X165811904Y-157382666D01*
X165764285Y-157287428D01*
X165716666Y-157239809D01*
X165621428Y-157192190D01*
X165430952Y-157144571D01*
X165335714Y-157096952D01*
X165288095Y-157049333D01*
X165240476Y-156954095D01*
X165240476Y-156858857D01*
X165288095Y-156763619D01*
X165335714Y-156716000D01*
X165430952Y-156668380D01*
X165669047Y-156668380D01*
X165811904Y-156716000D01*
X166145238Y-156668380D02*
X166383333Y-157668380D01*
X166573809Y-156954095D01*
X166764285Y-157668380D01*
X167002380Y-156668380D01*
X167907142Y-157668380D02*
X167335714Y-157668380D01*
X167621428Y-157668380D02*
X167621428Y-156668380D01*
X167526190Y-156811238D01*
X167430952Y-156906476D01*
X167335714Y-156954095D01*
X168240476Y-156668380D02*
X168859523Y-156668380D01*
X168526190Y-157049333D01*
X168669047Y-157049333D01*
X168764285Y-157096952D01*
X168811904Y-157144571D01*
X168859523Y-157239809D01*
X168859523Y-157477904D01*
X168811904Y-157573142D01*
X168764285Y-157620761D01*
X168669047Y-157668380D01*
X168383333Y-157668380D01*
X168288095Y-157620761D01*
X168240476Y-157573142D01*
G04 #@! TO.C,SW14*
X153480476Y-176670761D02*
X153623333Y-176718380D01*
X153861428Y-176718380D01*
X153956666Y-176670761D01*
X154004285Y-176623142D01*
X154051904Y-176527904D01*
X154051904Y-176432666D01*
X154004285Y-176337428D01*
X153956666Y-176289809D01*
X153861428Y-176242190D01*
X153670952Y-176194571D01*
X153575714Y-176146952D01*
X153528095Y-176099333D01*
X153480476Y-176004095D01*
X153480476Y-175908857D01*
X153528095Y-175813619D01*
X153575714Y-175766000D01*
X153670952Y-175718380D01*
X153909047Y-175718380D01*
X154051904Y-175766000D01*
X154385238Y-175718380D02*
X154623333Y-176718380D01*
X154813809Y-176004095D01*
X155004285Y-176718380D01*
X155242380Y-175718380D01*
X156147142Y-176718380D02*
X155575714Y-176718380D01*
X155861428Y-176718380D02*
X155861428Y-175718380D01*
X155766190Y-175861238D01*
X155670952Y-175956476D01*
X155575714Y-176004095D01*
X157004285Y-176051714D02*
X157004285Y-176718380D01*
X156766190Y-175670761D02*
X156528095Y-176385047D01*
X157147142Y-176385047D01*
G04 #@! TO.C,SW15*
X184260476Y-98110761D02*
X184403333Y-98158380D01*
X184641428Y-98158380D01*
X184736666Y-98110761D01*
X184784285Y-98063142D01*
X184831904Y-97967904D01*
X184831904Y-97872666D01*
X184784285Y-97777428D01*
X184736666Y-97729809D01*
X184641428Y-97682190D01*
X184450952Y-97634571D01*
X184355714Y-97586952D01*
X184308095Y-97539333D01*
X184260476Y-97444095D01*
X184260476Y-97348857D01*
X184308095Y-97253619D01*
X184355714Y-97206000D01*
X184450952Y-97158380D01*
X184689047Y-97158380D01*
X184831904Y-97206000D01*
X185165238Y-97158380D02*
X185403333Y-98158380D01*
X185593809Y-97444095D01*
X185784285Y-98158380D01*
X186022380Y-97158380D01*
X186927142Y-98158380D02*
X186355714Y-98158380D01*
X186641428Y-98158380D02*
X186641428Y-97158380D01*
X186546190Y-97301238D01*
X186450952Y-97396476D01*
X186355714Y-97444095D01*
X187831904Y-97158380D02*
X187355714Y-97158380D01*
X187308095Y-97634571D01*
X187355714Y-97586952D01*
X187450952Y-97539333D01*
X187689047Y-97539333D01*
X187784285Y-97586952D01*
X187831904Y-97634571D01*
X187879523Y-97729809D01*
X187879523Y-97967904D01*
X187831904Y-98063142D01*
X187784285Y-98110761D01*
X187689047Y-98158380D01*
X187450952Y-98158380D01*
X187355714Y-98110761D01*
X187308095Y-98063142D01*
G04 #@! TO.C,SW16*
X184260476Y-117120761D02*
X184403333Y-117168380D01*
X184641428Y-117168380D01*
X184736666Y-117120761D01*
X184784285Y-117073142D01*
X184831904Y-116977904D01*
X184831904Y-116882666D01*
X184784285Y-116787428D01*
X184736666Y-116739809D01*
X184641428Y-116692190D01*
X184450952Y-116644571D01*
X184355714Y-116596952D01*
X184308095Y-116549333D01*
X184260476Y-116454095D01*
X184260476Y-116358857D01*
X184308095Y-116263619D01*
X184355714Y-116216000D01*
X184450952Y-116168380D01*
X184689047Y-116168380D01*
X184831904Y-116216000D01*
X185165238Y-116168380D02*
X185403333Y-117168380D01*
X185593809Y-116454095D01*
X185784285Y-117168380D01*
X186022380Y-116168380D01*
X186927142Y-117168380D02*
X186355714Y-117168380D01*
X186641428Y-117168380D02*
X186641428Y-116168380D01*
X186546190Y-116311238D01*
X186450952Y-116406476D01*
X186355714Y-116454095D01*
X187784285Y-116168380D02*
X187593809Y-116168380D01*
X187498571Y-116216000D01*
X187450952Y-116263619D01*
X187355714Y-116406476D01*
X187308095Y-116596952D01*
X187308095Y-116977904D01*
X187355714Y-117073142D01*
X187403333Y-117120761D01*
X187498571Y-117168380D01*
X187689047Y-117168380D01*
X187784285Y-117120761D01*
X187831904Y-117073142D01*
X187879523Y-116977904D01*
X187879523Y-116739809D01*
X187831904Y-116644571D01*
X187784285Y-116596952D01*
X187689047Y-116549333D01*
X187498571Y-116549333D01*
X187403333Y-116596952D01*
X187355714Y-116644571D01*
X187308095Y-116739809D01*
G04 #@! TO.C,SW17*
X184260476Y-136110761D02*
X184403333Y-136158380D01*
X184641428Y-136158380D01*
X184736666Y-136110761D01*
X184784285Y-136063142D01*
X184831904Y-135967904D01*
X184831904Y-135872666D01*
X184784285Y-135777428D01*
X184736666Y-135729809D01*
X184641428Y-135682190D01*
X184450952Y-135634571D01*
X184355714Y-135586952D01*
X184308095Y-135539333D01*
X184260476Y-135444095D01*
X184260476Y-135348857D01*
X184308095Y-135253619D01*
X184355714Y-135206000D01*
X184450952Y-135158380D01*
X184689047Y-135158380D01*
X184831904Y-135206000D01*
X185165238Y-135158380D02*
X185403333Y-136158380D01*
X185593809Y-135444095D01*
X185784285Y-136158380D01*
X186022380Y-135158380D01*
X186927142Y-136158380D02*
X186355714Y-136158380D01*
X186641428Y-136158380D02*
X186641428Y-135158380D01*
X186546190Y-135301238D01*
X186450952Y-135396476D01*
X186355714Y-135444095D01*
X187260476Y-135158380D02*
X187927142Y-135158380D01*
X187498571Y-136158380D01*
G04 #@! TO.C,SW18*
X184260476Y-155120761D02*
X184403333Y-155168380D01*
X184641428Y-155168380D01*
X184736666Y-155120761D01*
X184784285Y-155073142D01*
X184831904Y-154977904D01*
X184831904Y-154882666D01*
X184784285Y-154787428D01*
X184736666Y-154739809D01*
X184641428Y-154692190D01*
X184450952Y-154644571D01*
X184355714Y-154596952D01*
X184308095Y-154549333D01*
X184260476Y-154454095D01*
X184260476Y-154358857D01*
X184308095Y-154263619D01*
X184355714Y-154216000D01*
X184450952Y-154168380D01*
X184689047Y-154168380D01*
X184831904Y-154216000D01*
X185165238Y-154168380D02*
X185403333Y-155168380D01*
X185593809Y-154454095D01*
X185784285Y-155168380D01*
X186022380Y-154168380D01*
X186927142Y-155168380D02*
X186355714Y-155168380D01*
X186641428Y-155168380D02*
X186641428Y-154168380D01*
X186546190Y-154311238D01*
X186450952Y-154406476D01*
X186355714Y-154454095D01*
X187498571Y-154596952D02*
X187403333Y-154549333D01*
X187355714Y-154501714D01*
X187308095Y-154406476D01*
X187308095Y-154358857D01*
X187355714Y-154263619D01*
X187403333Y-154216000D01*
X187498571Y-154168380D01*
X187689047Y-154168380D01*
X187784285Y-154216000D01*
X187831904Y-154263619D01*
X187879523Y-154358857D01*
X187879523Y-154406476D01*
X187831904Y-154501714D01*
X187784285Y-154549333D01*
X187689047Y-154596952D01*
X187498571Y-154596952D01*
X187403333Y-154644571D01*
X187355714Y-154692190D01*
X187308095Y-154787428D01*
X187308095Y-154977904D01*
X187355714Y-155073142D01*
X187403333Y-155120761D01*
X187498571Y-155168380D01*
X187689047Y-155168380D01*
X187784285Y-155120761D01*
X187831904Y-155073142D01*
X187879523Y-154977904D01*
X187879523Y-154787428D01*
X187831904Y-154692190D01*
X187784285Y-154644571D01*
X187689047Y-154596952D01*
G04 #@! TO.C,SW19*
X182020476Y-176670761D02*
X182163333Y-176718380D01*
X182401428Y-176718380D01*
X182496666Y-176670761D01*
X182544285Y-176623142D01*
X182591904Y-176527904D01*
X182591904Y-176432666D01*
X182544285Y-176337428D01*
X182496666Y-176289809D01*
X182401428Y-176242190D01*
X182210952Y-176194571D01*
X182115714Y-176146952D01*
X182068095Y-176099333D01*
X182020476Y-176004095D01*
X182020476Y-175908857D01*
X182068095Y-175813619D01*
X182115714Y-175766000D01*
X182210952Y-175718380D01*
X182449047Y-175718380D01*
X182591904Y-175766000D01*
X182925238Y-175718380D02*
X183163333Y-176718380D01*
X183353809Y-176004095D01*
X183544285Y-176718380D01*
X183782380Y-175718380D01*
X184687142Y-176718380D02*
X184115714Y-176718380D01*
X184401428Y-176718380D02*
X184401428Y-175718380D01*
X184306190Y-175861238D01*
X184210952Y-175956476D01*
X184115714Y-176004095D01*
X185163333Y-176718380D02*
X185353809Y-176718380D01*
X185449047Y-176670761D01*
X185496666Y-176623142D01*
X185591904Y-176480285D01*
X185639523Y-176289809D01*
X185639523Y-175908857D01*
X185591904Y-175813619D01*
X185544285Y-175766000D01*
X185449047Y-175718380D01*
X185258571Y-175718380D01*
X185163333Y-175766000D01*
X185115714Y-175813619D01*
X185068095Y-175908857D01*
X185068095Y-176146952D01*
X185115714Y-176242190D01*
X185163333Y-176289809D01*
X185258571Y-176337428D01*
X185449047Y-176337428D01*
X185544285Y-176289809D01*
X185591904Y-176242190D01*
X185639523Y-176146952D01*
G04 #@! TO.C,SW20*
X203260476Y-100610761D02*
X203403333Y-100658380D01*
X203641428Y-100658380D01*
X203736666Y-100610761D01*
X203784285Y-100563142D01*
X203831904Y-100467904D01*
X203831904Y-100372666D01*
X203784285Y-100277428D01*
X203736666Y-100229809D01*
X203641428Y-100182190D01*
X203450952Y-100134571D01*
X203355714Y-100086952D01*
X203308095Y-100039333D01*
X203260476Y-99944095D01*
X203260476Y-99848857D01*
X203308095Y-99753619D01*
X203355714Y-99706000D01*
X203450952Y-99658380D01*
X203689047Y-99658380D01*
X203831904Y-99706000D01*
X204165238Y-99658380D02*
X204403333Y-100658380D01*
X204593809Y-99944095D01*
X204784285Y-100658380D01*
X205022380Y-99658380D01*
X205355714Y-99753619D02*
X205403333Y-99706000D01*
X205498571Y-99658380D01*
X205736666Y-99658380D01*
X205831904Y-99706000D01*
X205879523Y-99753619D01*
X205927142Y-99848857D01*
X205927142Y-99944095D01*
X205879523Y-100086952D01*
X205308095Y-100658380D01*
X205927142Y-100658380D01*
X206546190Y-99658380D02*
X206641428Y-99658380D01*
X206736666Y-99706000D01*
X206784285Y-99753619D01*
X206831904Y-99848857D01*
X206879523Y-100039333D01*
X206879523Y-100277428D01*
X206831904Y-100467904D01*
X206784285Y-100563142D01*
X206736666Y-100610761D01*
X206641428Y-100658380D01*
X206546190Y-100658380D01*
X206450952Y-100610761D01*
X206403333Y-100563142D01*
X206355714Y-100467904D01*
X206308095Y-100277428D01*
X206308095Y-100039333D01*
X206355714Y-99848857D01*
X206403333Y-99753619D01*
X206450952Y-99706000D01*
X206546190Y-99658380D01*
G04 #@! TO.C,SW21*
X207370476Y-119384761D02*
X207513333Y-119432380D01*
X207751428Y-119432380D01*
X207846666Y-119384761D01*
X207894285Y-119337142D01*
X207941904Y-119241904D01*
X207941904Y-119146666D01*
X207894285Y-119051428D01*
X207846666Y-119003809D01*
X207751428Y-118956190D01*
X207560952Y-118908571D01*
X207465714Y-118860952D01*
X207418095Y-118813333D01*
X207370476Y-118718095D01*
X207370476Y-118622857D01*
X207418095Y-118527619D01*
X207465714Y-118480000D01*
X207560952Y-118432380D01*
X207799047Y-118432380D01*
X207941904Y-118480000D01*
X208275238Y-118432380D02*
X208513333Y-119432380D01*
X208703809Y-118718095D01*
X208894285Y-119432380D01*
X209132380Y-118432380D01*
X209465714Y-118527619D02*
X209513333Y-118480000D01*
X209608571Y-118432380D01*
X209846666Y-118432380D01*
X209941904Y-118480000D01*
X209989523Y-118527619D01*
X210037142Y-118622857D01*
X210037142Y-118718095D01*
X209989523Y-118860952D01*
X209418095Y-119432380D01*
X210037142Y-119432380D01*
X210989523Y-119432380D02*
X210418095Y-119432380D01*
X210703809Y-119432380D02*
X210703809Y-118432380D01*
X210608571Y-118575238D01*
X210513333Y-118670476D01*
X210418095Y-118718095D01*
G04 #@! TO.C,SW22*
X206010476Y-138034761D02*
X206153333Y-138082380D01*
X206391428Y-138082380D01*
X206486666Y-138034761D01*
X206534285Y-137987142D01*
X206581904Y-137891904D01*
X206581904Y-137796666D01*
X206534285Y-137701428D01*
X206486666Y-137653809D01*
X206391428Y-137606190D01*
X206200952Y-137558571D01*
X206105714Y-137510952D01*
X206058095Y-137463333D01*
X206010476Y-137368095D01*
X206010476Y-137272857D01*
X206058095Y-137177619D01*
X206105714Y-137130000D01*
X206200952Y-137082380D01*
X206439047Y-137082380D01*
X206581904Y-137130000D01*
X206915238Y-137082380D02*
X207153333Y-138082380D01*
X207343809Y-137368095D01*
X207534285Y-138082380D01*
X207772380Y-137082380D01*
X208105714Y-137177619D02*
X208153333Y-137130000D01*
X208248571Y-137082380D01*
X208486666Y-137082380D01*
X208581904Y-137130000D01*
X208629523Y-137177619D01*
X208677142Y-137272857D01*
X208677142Y-137368095D01*
X208629523Y-137510952D01*
X208058095Y-138082380D01*
X208677142Y-138082380D01*
X209058095Y-137177619D02*
X209105714Y-137130000D01*
X209200952Y-137082380D01*
X209439047Y-137082380D01*
X209534285Y-137130000D01*
X209581904Y-137177619D01*
X209629523Y-137272857D01*
X209629523Y-137368095D01*
X209581904Y-137510952D01*
X209010476Y-138082380D01*
X209629523Y-138082380D01*
G04 #@! TO.C,SW23*
X203260476Y-157620761D02*
X203403333Y-157668380D01*
X203641428Y-157668380D01*
X203736666Y-157620761D01*
X203784285Y-157573142D01*
X203831904Y-157477904D01*
X203831904Y-157382666D01*
X203784285Y-157287428D01*
X203736666Y-157239809D01*
X203641428Y-157192190D01*
X203450952Y-157144571D01*
X203355714Y-157096952D01*
X203308095Y-157049333D01*
X203260476Y-156954095D01*
X203260476Y-156858857D01*
X203308095Y-156763619D01*
X203355714Y-156716000D01*
X203450952Y-156668380D01*
X203689047Y-156668380D01*
X203831904Y-156716000D01*
X204165238Y-156668380D02*
X204403333Y-157668380D01*
X204593809Y-156954095D01*
X204784285Y-157668380D01*
X205022380Y-156668380D01*
X205355714Y-156763619D02*
X205403333Y-156716000D01*
X205498571Y-156668380D01*
X205736666Y-156668380D01*
X205831904Y-156716000D01*
X205879523Y-156763619D01*
X205927142Y-156858857D01*
X205927142Y-156954095D01*
X205879523Y-157096952D01*
X205308095Y-157668380D01*
X205927142Y-157668380D01*
X206260476Y-156668380D02*
X206879523Y-156668380D01*
X206546190Y-157049333D01*
X206689047Y-157049333D01*
X206784285Y-157096952D01*
X206831904Y-157144571D01*
X206879523Y-157239809D01*
X206879523Y-157477904D01*
X206831904Y-157573142D01*
X206784285Y-157620761D01*
X206689047Y-157668380D01*
X206403333Y-157668380D01*
X206308095Y-157620761D01*
X206260476Y-157573142D01*
G04 #@! TO.C,SW24*
X205760476Y-181160761D02*
X205903333Y-181208380D01*
X206141428Y-181208380D01*
X206236666Y-181160761D01*
X206284285Y-181113142D01*
X206331904Y-181017904D01*
X206331904Y-180922666D01*
X206284285Y-180827428D01*
X206236666Y-180779809D01*
X206141428Y-180732190D01*
X205950952Y-180684571D01*
X205855714Y-180636952D01*
X205808095Y-180589333D01*
X205760476Y-180494095D01*
X205760476Y-180398857D01*
X205808095Y-180303619D01*
X205855714Y-180256000D01*
X205950952Y-180208380D01*
X206189047Y-180208380D01*
X206331904Y-180256000D01*
X206665238Y-180208380D02*
X206903333Y-181208380D01*
X207093809Y-180494095D01*
X207284285Y-181208380D01*
X207522380Y-180208380D01*
X207855714Y-180303619D02*
X207903333Y-180256000D01*
X207998571Y-180208380D01*
X208236666Y-180208380D01*
X208331904Y-180256000D01*
X208379523Y-180303619D01*
X208427142Y-180398857D01*
X208427142Y-180494095D01*
X208379523Y-180636952D01*
X207808095Y-181208380D01*
X208427142Y-181208380D01*
X209284285Y-180541714D02*
X209284285Y-181208380D01*
X209046190Y-180160761D02*
X208808095Y-180875047D01*
X209427142Y-180875047D01*
G04 #@! TO.C,SW25*
X222260476Y-105120761D02*
X222403333Y-105168380D01*
X222641428Y-105168380D01*
X222736666Y-105120761D01*
X222784285Y-105073142D01*
X222831904Y-104977904D01*
X222831904Y-104882666D01*
X222784285Y-104787428D01*
X222736666Y-104739809D01*
X222641428Y-104692190D01*
X222450952Y-104644571D01*
X222355714Y-104596952D01*
X222308095Y-104549333D01*
X222260476Y-104454095D01*
X222260476Y-104358857D01*
X222308095Y-104263619D01*
X222355714Y-104216000D01*
X222450952Y-104168380D01*
X222689047Y-104168380D01*
X222831904Y-104216000D01*
X223165238Y-104168380D02*
X223403333Y-105168380D01*
X223593809Y-104454095D01*
X223784285Y-105168380D01*
X224022380Y-104168380D01*
X224355714Y-104263619D02*
X224403333Y-104216000D01*
X224498571Y-104168380D01*
X224736666Y-104168380D01*
X224831904Y-104216000D01*
X224879523Y-104263619D01*
X224927142Y-104358857D01*
X224927142Y-104454095D01*
X224879523Y-104596952D01*
X224308095Y-105168380D01*
X224927142Y-105168380D01*
X225831904Y-104168380D02*
X225355714Y-104168380D01*
X225308095Y-104644571D01*
X225355714Y-104596952D01*
X225450952Y-104549333D01*
X225689047Y-104549333D01*
X225784285Y-104596952D01*
X225831904Y-104644571D01*
X225879523Y-104739809D01*
X225879523Y-104977904D01*
X225831904Y-105073142D01*
X225784285Y-105120761D01*
X225689047Y-105168380D01*
X225450952Y-105168380D01*
X225355714Y-105120761D01*
X225308095Y-105073142D01*
G04 #@! TO.C,SW26*
X225680476Y-123874761D02*
X225823333Y-123922380D01*
X226061428Y-123922380D01*
X226156666Y-123874761D01*
X226204285Y-123827142D01*
X226251904Y-123731904D01*
X226251904Y-123636666D01*
X226204285Y-123541428D01*
X226156666Y-123493809D01*
X226061428Y-123446190D01*
X225870952Y-123398571D01*
X225775714Y-123350952D01*
X225728095Y-123303333D01*
X225680476Y-123208095D01*
X225680476Y-123112857D01*
X225728095Y-123017619D01*
X225775714Y-122970000D01*
X225870952Y-122922380D01*
X226109047Y-122922380D01*
X226251904Y-122970000D01*
X226585238Y-122922380D02*
X226823333Y-123922380D01*
X227013809Y-123208095D01*
X227204285Y-123922380D01*
X227442380Y-122922380D01*
X227775714Y-123017619D02*
X227823333Y-122970000D01*
X227918571Y-122922380D01*
X228156666Y-122922380D01*
X228251904Y-122970000D01*
X228299523Y-123017619D01*
X228347142Y-123112857D01*
X228347142Y-123208095D01*
X228299523Y-123350952D01*
X227728095Y-123922380D01*
X228347142Y-123922380D01*
X229204285Y-122922380D02*
X229013809Y-122922380D01*
X228918571Y-122970000D01*
X228870952Y-123017619D01*
X228775714Y-123160476D01*
X228728095Y-123350952D01*
X228728095Y-123731904D01*
X228775714Y-123827142D01*
X228823333Y-123874761D01*
X228918571Y-123922380D01*
X229109047Y-123922380D01*
X229204285Y-123874761D01*
X229251904Y-123827142D01*
X229299523Y-123731904D01*
X229299523Y-123493809D01*
X229251904Y-123398571D01*
X229204285Y-123350952D01*
X229109047Y-123303333D01*
X228918571Y-123303333D01*
X228823333Y-123350952D01*
X228775714Y-123398571D01*
X228728095Y-123493809D01*
G04 #@! TO.C,SW27*
X222260476Y-143110761D02*
X222403333Y-143158380D01*
X222641428Y-143158380D01*
X222736666Y-143110761D01*
X222784285Y-143063142D01*
X222831904Y-142967904D01*
X222831904Y-142872666D01*
X222784285Y-142777428D01*
X222736666Y-142729809D01*
X222641428Y-142682190D01*
X222450952Y-142634571D01*
X222355714Y-142586952D01*
X222308095Y-142539333D01*
X222260476Y-142444095D01*
X222260476Y-142348857D01*
X222308095Y-142253619D01*
X222355714Y-142206000D01*
X222450952Y-142158380D01*
X222689047Y-142158380D01*
X222831904Y-142206000D01*
X223165238Y-142158380D02*
X223403333Y-143158380D01*
X223593809Y-142444095D01*
X223784285Y-143158380D01*
X224022380Y-142158380D01*
X224355714Y-142253619D02*
X224403333Y-142206000D01*
X224498571Y-142158380D01*
X224736666Y-142158380D01*
X224831904Y-142206000D01*
X224879523Y-142253619D01*
X224927142Y-142348857D01*
X224927142Y-142444095D01*
X224879523Y-142586952D01*
X224308095Y-143158380D01*
X224927142Y-143158380D01*
X225260476Y-142158380D02*
X225927142Y-142158380D01*
X225498571Y-143158380D01*
G04 #@! TO.C,SW28*
X222260476Y-162110761D02*
X222403333Y-162158380D01*
X222641428Y-162158380D01*
X222736666Y-162110761D01*
X222784285Y-162063142D01*
X222831904Y-161967904D01*
X222831904Y-161872666D01*
X222784285Y-161777428D01*
X222736666Y-161729809D01*
X222641428Y-161682190D01*
X222450952Y-161634571D01*
X222355714Y-161586952D01*
X222308095Y-161539333D01*
X222260476Y-161444095D01*
X222260476Y-161348857D01*
X222308095Y-161253619D01*
X222355714Y-161206000D01*
X222450952Y-161158380D01*
X222689047Y-161158380D01*
X222831904Y-161206000D01*
X223165238Y-161158380D02*
X223403333Y-162158380D01*
X223593809Y-161444095D01*
X223784285Y-162158380D01*
X224022380Y-161158380D01*
X224355714Y-161253619D02*
X224403333Y-161206000D01*
X224498571Y-161158380D01*
X224736666Y-161158380D01*
X224831904Y-161206000D01*
X224879523Y-161253619D01*
X224927142Y-161348857D01*
X224927142Y-161444095D01*
X224879523Y-161586952D01*
X224308095Y-162158380D01*
X224927142Y-162158380D01*
X225498571Y-161586952D02*
X225403333Y-161539333D01*
X225355714Y-161491714D01*
X225308095Y-161396476D01*
X225308095Y-161348857D01*
X225355714Y-161253619D01*
X225403333Y-161206000D01*
X225498571Y-161158380D01*
X225689047Y-161158380D01*
X225784285Y-161206000D01*
X225831904Y-161253619D01*
X225879523Y-161348857D01*
X225879523Y-161396476D01*
X225831904Y-161491714D01*
X225784285Y-161539333D01*
X225689047Y-161586952D01*
X225498571Y-161586952D01*
X225403333Y-161634571D01*
X225355714Y-161682190D01*
X225308095Y-161777428D01*
X225308095Y-161967904D01*
X225355714Y-162063142D01*
X225403333Y-162110761D01*
X225498571Y-162158380D01*
X225689047Y-162158380D01*
X225784285Y-162110761D01*
X225831904Y-162063142D01*
X225879523Y-161967904D01*
X225879523Y-161777428D01*
X225831904Y-161682190D01*
X225784285Y-161634571D01*
X225689047Y-161586952D01*
G04 #@! TO.C,SW29*
X239110476Y-181150761D02*
X239253333Y-181198380D01*
X239491428Y-181198380D01*
X239586666Y-181150761D01*
X239634285Y-181103142D01*
X239681904Y-181007904D01*
X239681904Y-180912666D01*
X239634285Y-180817428D01*
X239586666Y-180769809D01*
X239491428Y-180722190D01*
X239300952Y-180674571D01*
X239205714Y-180626952D01*
X239158095Y-180579333D01*
X239110476Y-180484095D01*
X239110476Y-180388857D01*
X239158095Y-180293619D01*
X239205714Y-180246000D01*
X239300952Y-180198380D01*
X239539047Y-180198380D01*
X239681904Y-180246000D01*
X240015238Y-180198380D02*
X240253333Y-181198380D01*
X240443809Y-180484095D01*
X240634285Y-181198380D01*
X240872380Y-180198380D01*
X241205714Y-180293619D02*
X241253333Y-180246000D01*
X241348571Y-180198380D01*
X241586666Y-180198380D01*
X241681904Y-180246000D01*
X241729523Y-180293619D01*
X241777142Y-180388857D01*
X241777142Y-180484095D01*
X241729523Y-180626952D01*
X241158095Y-181198380D01*
X241777142Y-181198380D01*
X242253333Y-181198380D02*
X242443809Y-181198380D01*
X242539047Y-181150761D01*
X242586666Y-181103142D01*
X242681904Y-180960285D01*
X242729523Y-180769809D01*
X242729523Y-180388857D01*
X242681904Y-180293619D01*
X242634285Y-180246000D01*
X242539047Y-180198380D01*
X242348571Y-180198380D01*
X242253333Y-180246000D01*
X242205714Y-180293619D01*
X242158095Y-180388857D01*
X242158095Y-180626952D01*
X242205714Y-180722190D01*
X242253333Y-180769809D01*
X242348571Y-180817428D01*
X242539047Y-180817428D01*
X242634285Y-180769809D01*
X242681904Y-180722190D01*
X242729523Y-180626952D01*
G04 #@! TO.C,SW30*
X250720476Y-105040761D02*
X250863333Y-105088380D01*
X251101428Y-105088380D01*
X251196666Y-105040761D01*
X251244285Y-104993142D01*
X251291904Y-104897904D01*
X251291904Y-104802666D01*
X251244285Y-104707428D01*
X251196666Y-104659809D01*
X251101428Y-104612190D01*
X250910952Y-104564571D01*
X250815714Y-104516952D01*
X250768095Y-104469333D01*
X250720476Y-104374095D01*
X250720476Y-104278857D01*
X250768095Y-104183619D01*
X250815714Y-104136000D01*
X250910952Y-104088380D01*
X251149047Y-104088380D01*
X251291904Y-104136000D01*
X251625238Y-104088380D02*
X251863333Y-105088380D01*
X252053809Y-104374095D01*
X252244285Y-105088380D01*
X252482380Y-104088380D01*
X252768095Y-104088380D02*
X253387142Y-104088380D01*
X253053809Y-104469333D01*
X253196666Y-104469333D01*
X253291904Y-104516952D01*
X253339523Y-104564571D01*
X253387142Y-104659809D01*
X253387142Y-104897904D01*
X253339523Y-104993142D01*
X253291904Y-105040761D01*
X253196666Y-105088380D01*
X252910952Y-105088380D01*
X252815714Y-105040761D01*
X252768095Y-104993142D01*
X254006190Y-104088380D02*
X254101428Y-104088380D01*
X254196666Y-104136000D01*
X254244285Y-104183619D01*
X254291904Y-104278857D01*
X254339523Y-104469333D01*
X254339523Y-104707428D01*
X254291904Y-104897904D01*
X254244285Y-104993142D01*
X254196666Y-105040761D01*
X254101428Y-105088380D01*
X254006190Y-105088380D01*
X253910952Y-105040761D01*
X253863333Y-104993142D01*
X253815714Y-104897904D01*
X253768095Y-104707428D01*
X253768095Y-104469333D01*
X253815714Y-104278857D01*
X253863333Y-104183619D01*
X253910952Y-104136000D01*
X254006190Y-104088380D01*
G04 #@! TO.C,SW31*
X241260476Y-124090761D02*
X241403333Y-124138380D01*
X241641428Y-124138380D01*
X241736666Y-124090761D01*
X241784285Y-124043142D01*
X241831904Y-123947904D01*
X241831904Y-123852666D01*
X241784285Y-123757428D01*
X241736666Y-123709809D01*
X241641428Y-123662190D01*
X241450952Y-123614571D01*
X241355714Y-123566952D01*
X241308095Y-123519333D01*
X241260476Y-123424095D01*
X241260476Y-123328857D01*
X241308095Y-123233619D01*
X241355714Y-123186000D01*
X241450952Y-123138380D01*
X241689047Y-123138380D01*
X241831904Y-123186000D01*
X242165238Y-123138380D02*
X242403333Y-124138380D01*
X242593809Y-123424095D01*
X242784285Y-124138380D01*
X243022380Y-123138380D01*
X243308095Y-123138380D02*
X243927142Y-123138380D01*
X243593809Y-123519333D01*
X243736666Y-123519333D01*
X243831904Y-123566952D01*
X243879523Y-123614571D01*
X243927142Y-123709809D01*
X243927142Y-123947904D01*
X243879523Y-124043142D01*
X243831904Y-124090761D01*
X243736666Y-124138380D01*
X243450952Y-124138380D01*
X243355714Y-124090761D01*
X243308095Y-124043142D01*
X244879523Y-124138380D02*
X244308095Y-124138380D01*
X244593809Y-124138380D02*
X244593809Y-123138380D01*
X244498571Y-123281238D01*
X244403333Y-123376476D01*
X244308095Y-123424095D01*
G04 #@! TO.C,SW32*
X241250476Y-143090761D02*
X241393333Y-143138380D01*
X241631428Y-143138380D01*
X241726666Y-143090761D01*
X241774285Y-143043142D01*
X241821904Y-142947904D01*
X241821904Y-142852666D01*
X241774285Y-142757428D01*
X241726666Y-142709809D01*
X241631428Y-142662190D01*
X241440952Y-142614571D01*
X241345714Y-142566952D01*
X241298095Y-142519333D01*
X241250476Y-142424095D01*
X241250476Y-142328857D01*
X241298095Y-142233619D01*
X241345714Y-142186000D01*
X241440952Y-142138380D01*
X241679047Y-142138380D01*
X241821904Y-142186000D01*
X242155238Y-142138380D02*
X242393333Y-143138380D01*
X242583809Y-142424095D01*
X242774285Y-143138380D01*
X243012380Y-142138380D01*
X243298095Y-142138380D02*
X243917142Y-142138380D01*
X243583809Y-142519333D01*
X243726666Y-142519333D01*
X243821904Y-142566952D01*
X243869523Y-142614571D01*
X243917142Y-142709809D01*
X243917142Y-142947904D01*
X243869523Y-143043142D01*
X243821904Y-143090761D01*
X243726666Y-143138380D01*
X243440952Y-143138380D01*
X243345714Y-143090761D01*
X243298095Y-143043142D01*
X244298095Y-142233619D02*
X244345714Y-142186000D01*
X244440952Y-142138380D01*
X244679047Y-142138380D01*
X244774285Y-142186000D01*
X244821904Y-142233619D01*
X244869523Y-142328857D01*
X244869523Y-142424095D01*
X244821904Y-142566952D01*
X244250476Y-143138380D01*
X244869523Y-143138380D01*
G04 #@! TO.C,SW33*
X257860476Y-162140761D02*
X258003333Y-162188380D01*
X258241428Y-162188380D01*
X258336666Y-162140761D01*
X258384285Y-162093142D01*
X258431904Y-161997904D01*
X258431904Y-161902666D01*
X258384285Y-161807428D01*
X258336666Y-161759809D01*
X258241428Y-161712190D01*
X258050952Y-161664571D01*
X257955714Y-161616952D01*
X257908095Y-161569333D01*
X257860476Y-161474095D01*
X257860476Y-161378857D01*
X257908095Y-161283619D01*
X257955714Y-161236000D01*
X258050952Y-161188380D01*
X258289047Y-161188380D01*
X258431904Y-161236000D01*
X258765238Y-161188380D02*
X259003333Y-162188380D01*
X259193809Y-161474095D01*
X259384285Y-162188380D01*
X259622380Y-161188380D01*
X259908095Y-161188380D02*
X260527142Y-161188380D01*
X260193809Y-161569333D01*
X260336666Y-161569333D01*
X260431904Y-161616952D01*
X260479523Y-161664571D01*
X260527142Y-161759809D01*
X260527142Y-161997904D01*
X260479523Y-162093142D01*
X260431904Y-162140761D01*
X260336666Y-162188380D01*
X260050952Y-162188380D01*
X259955714Y-162140761D01*
X259908095Y-162093142D01*
X260860476Y-161188380D02*
X261479523Y-161188380D01*
X261146190Y-161569333D01*
X261289047Y-161569333D01*
X261384285Y-161616952D01*
X261431904Y-161664571D01*
X261479523Y-161759809D01*
X261479523Y-161997904D01*
X261431904Y-162093142D01*
X261384285Y-162140761D01*
X261289047Y-162188380D01*
X261003333Y-162188380D01*
X260908095Y-162140761D01*
X260860476Y-162093142D01*
G04 #@! TO.C,SW34*
X260310476Y-124090761D02*
X260453333Y-124138380D01*
X260691428Y-124138380D01*
X260786666Y-124090761D01*
X260834285Y-124043142D01*
X260881904Y-123947904D01*
X260881904Y-123852666D01*
X260834285Y-123757428D01*
X260786666Y-123709809D01*
X260691428Y-123662190D01*
X260500952Y-123614571D01*
X260405714Y-123566952D01*
X260358095Y-123519333D01*
X260310476Y-123424095D01*
X260310476Y-123328857D01*
X260358095Y-123233619D01*
X260405714Y-123186000D01*
X260500952Y-123138380D01*
X260739047Y-123138380D01*
X260881904Y-123186000D01*
X261215238Y-123138380D02*
X261453333Y-124138380D01*
X261643809Y-123424095D01*
X261834285Y-124138380D01*
X262072380Y-123138380D01*
X262358095Y-123138380D02*
X262977142Y-123138380D01*
X262643809Y-123519333D01*
X262786666Y-123519333D01*
X262881904Y-123566952D01*
X262929523Y-123614571D01*
X262977142Y-123709809D01*
X262977142Y-123947904D01*
X262929523Y-124043142D01*
X262881904Y-124090761D01*
X262786666Y-124138380D01*
X262500952Y-124138380D01*
X262405714Y-124090761D01*
X262358095Y-124043142D01*
X263834285Y-123471714D02*
X263834285Y-124138380D01*
X263596190Y-123090761D02*
X263358095Y-123805047D01*
X263977142Y-123805047D01*
G04 #@! TO.C,SW35*
X275790476Y-143024761D02*
X275933333Y-143072380D01*
X276171428Y-143072380D01*
X276266666Y-143024761D01*
X276314285Y-142977142D01*
X276361904Y-142881904D01*
X276361904Y-142786666D01*
X276314285Y-142691428D01*
X276266666Y-142643809D01*
X276171428Y-142596190D01*
X275980952Y-142548571D01*
X275885714Y-142500952D01*
X275838095Y-142453333D01*
X275790476Y-142358095D01*
X275790476Y-142262857D01*
X275838095Y-142167619D01*
X275885714Y-142120000D01*
X275980952Y-142072380D01*
X276219047Y-142072380D01*
X276361904Y-142120000D01*
X276695238Y-142072380D02*
X276933333Y-143072380D01*
X277123809Y-142358095D01*
X277314285Y-143072380D01*
X277552380Y-142072380D01*
X277838095Y-142072380D02*
X278457142Y-142072380D01*
X278123809Y-142453333D01*
X278266666Y-142453333D01*
X278361904Y-142500952D01*
X278409523Y-142548571D01*
X278457142Y-142643809D01*
X278457142Y-142881904D01*
X278409523Y-142977142D01*
X278361904Y-143024761D01*
X278266666Y-143072380D01*
X277980952Y-143072380D01*
X277885714Y-143024761D01*
X277838095Y-142977142D01*
X279361904Y-142072380D02*
X278885714Y-142072380D01*
X278838095Y-142548571D01*
X278885714Y-142500952D01*
X278980952Y-142453333D01*
X279219047Y-142453333D01*
X279314285Y-142500952D01*
X279361904Y-142548571D01*
X279409523Y-142643809D01*
X279409523Y-142881904D01*
X279361904Y-142977142D01*
X279314285Y-143024761D01*
X279219047Y-143072380D01*
X278980952Y-143072380D01*
X278885714Y-143024761D01*
X278838095Y-142977142D01*
G04 #@! TD*
M02*
