G04 #@! TF.GenerationSoftware,KiCad,Pcbnew,5.1.9-73d0e3b20d~88~ubuntu20.04.1*
G04 #@! TF.CreationDate,2021-01-19T00:06:27+03:00*
G04 #@! TF.ProjectId,jeaex-right,6a656165-782d-4726-9967-68742e6b6963,rev?*
G04 #@! TF.SameCoordinates,Original*
G04 #@! TF.FileFunction,Legend,Bot*
G04 #@! TF.FilePolarity,Positive*
%FSLAX46Y46*%
G04 Gerber Fmt 4.6, Leading zero omitted, Abs format (unit mm)*
G04 Created by KiCad (PCBNEW 5.1.9-73d0e3b20d~88~ubuntu20.04.1) date 2021-01-19 00:06:27*
%MOMM*%
%LPD*%
G01*
G04 APERTURE LIST*
%ADD10C,0.120000*%
%ADD11C,0.150000*%
G04 APERTURE END LIST*
D10*
G04 #@! TO.C,R1*
X241180000Y-84322936D02*
X241180000Y-85777064D01*
X239360000Y-84322936D02*
X239360000Y-85777064D01*
G04 #@! TO.C,D1*
X139730000Y-113050000D02*
X139730000Y-115050000D01*
X139730000Y-115050000D02*
X135830000Y-115050000D01*
X139730000Y-113050000D02*
X135830000Y-113050000D01*
G04 #@! TO.C,D2*
X139730000Y-127030000D02*
X135830000Y-127030000D01*
X139730000Y-129030000D02*
X135830000Y-129030000D01*
X139730000Y-127030000D02*
X139730000Y-129030000D01*
G04 #@! TO.C,D3*
X139830000Y-155490000D02*
X139830000Y-157490000D01*
X139830000Y-157490000D02*
X135930000Y-157490000D01*
X139830000Y-155490000D02*
X135930000Y-155490000D01*
G04 #@! TO.C,D4*
X112490000Y-196220000D02*
X112490000Y-200120000D01*
X114490000Y-196220000D02*
X114490000Y-200120000D01*
X112490000Y-196220000D02*
X114490000Y-196220000D01*
G04 #@! TO.C,D5*
X145240000Y-117630000D02*
X145240000Y-113730000D01*
X143240000Y-117630000D02*
X143240000Y-113730000D01*
X145240000Y-117630000D02*
X143240000Y-117630000D01*
G04 #@! TO.C,D6*
X140400000Y-134950000D02*
X140400000Y-132950000D01*
X140400000Y-132950000D02*
X144300000Y-132950000D01*
X140400000Y-134950000D02*
X144300000Y-134950000D01*
G04 #@! TO.C,D7*
X140350000Y-152200000D02*
X140350000Y-150200000D01*
X140350000Y-150200000D02*
X144250000Y-150200000D01*
X140350000Y-152200000D02*
X144250000Y-152200000D01*
G04 #@! TO.C,D8*
X140350000Y-169780000D02*
X140350000Y-167780000D01*
X140350000Y-167780000D02*
X144250000Y-167780000D01*
X140350000Y-169780000D02*
X144250000Y-169780000D01*
G04 #@! TO.C,D9*
X134390000Y-198510000D02*
X134390000Y-200510000D01*
X134390000Y-200510000D02*
X130490000Y-200510000D01*
X134390000Y-198510000D02*
X130490000Y-198510000D01*
G04 #@! TO.C,D10*
X159300000Y-115590000D02*
X159300000Y-113590000D01*
X159300000Y-113590000D02*
X163200000Y-113590000D01*
X159300000Y-115590000D02*
X163200000Y-115590000D01*
G04 #@! TO.C,D11*
X159350000Y-133870000D02*
X163250000Y-133870000D01*
X159350000Y-131870000D02*
X163250000Y-131870000D01*
X159350000Y-133870000D02*
X159350000Y-131870000D01*
G04 #@! TO.C,D12*
X159350000Y-152250000D02*
X163250000Y-152250000D01*
X159350000Y-150250000D02*
X163250000Y-150250000D01*
X159350000Y-152250000D02*
X159350000Y-150250000D01*
G04 #@! TO.C,D13*
X159350000Y-171180000D02*
X159350000Y-169180000D01*
X159350000Y-169180000D02*
X163250000Y-169180000D01*
X159350000Y-171180000D02*
X163250000Y-171180000D01*
G04 #@! TO.C,D14*
X155390000Y-173990000D02*
X151490000Y-173990000D01*
X155390000Y-175990000D02*
X151490000Y-175990000D01*
X155390000Y-173990000D02*
X155390000Y-175990000D01*
G04 #@! TO.C,D15*
X178350000Y-112840000D02*
X178350000Y-110840000D01*
X178350000Y-110840000D02*
X182250000Y-110840000D01*
X178350000Y-112840000D02*
X182250000Y-112840000D01*
G04 #@! TO.C,D16*
X178350000Y-131100000D02*
X182250000Y-131100000D01*
X178350000Y-129100000D02*
X182250000Y-129100000D01*
X178350000Y-131100000D02*
X178350000Y-129100000D01*
G04 #@! TO.C,D17*
X178350000Y-149610000D02*
X178350000Y-147610000D01*
X178350000Y-147610000D02*
X182250000Y-147610000D01*
X178350000Y-149610000D02*
X182250000Y-149610000D01*
G04 #@! TO.C,D18*
X178340000Y-168590000D02*
X182240000Y-168590000D01*
X178340000Y-166590000D02*
X182240000Y-166590000D01*
X178340000Y-168590000D02*
X178340000Y-166590000D01*
G04 #@! TO.C,D19*
X176160000Y-173850000D02*
X176160000Y-177750000D01*
X178160000Y-173850000D02*
X178160000Y-177750000D01*
X176160000Y-173850000D02*
X178160000Y-173850000D01*
G04 #@! TO.C,D20*
X197350000Y-115050000D02*
X201250000Y-115050000D01*
X197350000Y-113050000D02*
X201250000Y-113050000D01*
X197350000Y-115050000D02*
X197350000Y-113050000D01*
G04 #@! TO.C,D21*
X197320000Y-133950000D02*
X197320000Y-131950000D01*
X197320000Y-131950000D02*
X201220000Y-131950000D01*
X197320000Y-133950000D02*
X201220000Y-133950000D01*
G04 #@! TO.C,D22*
X197420000Y-152960000D02*
X201320000Y-152960000D01*
X197420000Y-150960000D02*
X201320000Y-150960000D01*
X197420000Y-152960000D02*
X197420000Y-150960000D01*
G04 #@! TO.C,D23*
X197370000Y-170450000D02*
X197370000Y-168450000D01*
X197370000Y-168450000D02*
X201270000Y-168450000D01*
X197370000Y-170450000D02*
X201270000Y-170450000D01*
G04 #@! TO.C,D24*
X196960000Y-182250000D02*
X198960000Y-182250000D01*
X198960000Y-182250000D02*
X198960000Y-186150000D01*
X196960000Y-182250000D02*
X196960000Y-186150000D01*
G04 #@! TO.C,D25*
X216330000Y-118300000D02*
X216330000Y-116300000D01*
X216330000Y-116300000D02*
X220230000Y-116300000D01*
X216330000Y-118300000D02*
X220230000Y-118300000D01*
G04 #@! TO.C,D26*
X216320000Y-137690000D02*
X220220000Y-137690000D01*
X216320000Y-135690000D02*
X220220000Y-135690000D01*
X216320000Y-137690000D02*
X216320000Y-135690000D01*
G04 #@! TO.C,D27*
X216330000Y-155700000D02*
X216330000Y-153700000D01*
X216330000Y-153700000D02*
X220230000Y-153700000D01*
X216330000Y-155700000D02*
X220230000Y-155700000D01*
G04 #@! TO.C,D28*
X216370000Y-175650000D02*
X220270000Y-175650000D01*
X216370000Y-173650000D02*
X220270000Y-173650000D01*
X216370000Y-175650000D02*
X216370000Y-173650000D01*
G04 #@! TO.C,D29*
X227720000Y-187100000D02*
X231620000Y-187100000D01*
X227720000Y-185100000D02*
X231620000Y-185100000D01*
X227720000Y-187100000D02*
X227720000Y-185100000D01*
G04 #@! TO.C,D30*
X244830000Y-119460000D02*
X244830000Y-117460000D01*
X244830000Y-117460000D02*
X248730000Y-117460000D01*
X244830000Y-119460000D02*
X248730000Y-119460000D01*
G04 #@! TO.C,D31*
X235330000Y-137230000D02*
X239230000Y-137230000D01*
X235330000Y-135230000D02*
X239230000Y-135230000D01*
X235330000Y-137230000D02*
X235330000Y-135230000D01*
G04 #@! TO.C,D32*
X235330000Y-158410000D02*
X235330000Y-156410000D01*
X235330000Y-156410000D02*
X239230000Y-156410000D01*
X235330000Y-158410000D02*
X239230000Y-158410000D01*
G04 #@! TO.C,D33*
X251910000Y-161070000D02*
X255810000Y-161070000D01*
X251910000Y-159070000D02*
X255810000Y-159070000D01*
X251910000Y-161070000D02*
X251910000Y-159070000D01*
G04 #@! TO.C,D34*
X266230000Y-136300000D02*
X262330000Y-136300000D01*
X266230000Y-138300000D02*
X262330000Y-138300000D01*
X266230000Y-136300000D02*
X266230000Y-138300000D01*
G04 #@! TO.C,D35*
X266390000Y-142710000D02*
X266390000Y-140710000D01*
X266390000Y-140710000D02*
X270290000Y-140710000D01*
X266390000Y-142710000D02*
X270290000Y-142710000D01*
G04 #@! TO.C,R1*
D11*
X238902380Y-84883333D02*
X238426190Y-84550000D01*
X238902380Y-84311904D02*
X237902380Y-84311904D01*
X237902380Y-84692857D01*
X237950000Y-84788095D01*
X237997619Y-84835714D01*
X238092857Y-84883333D01*
X238235714Y-84883333D01*
X238330952Y-84835714D01*
X238378571Y-84788095D01*
X238426190Y-84692857D01*
X238426190Y-84311904D01*
X238902380Y-85835714D02*
X238902380Y-85264285D01*
X238902380Y-85550000D02*
X237902380Y-85550000D01*
X238045238Y-85454761D01*
X238140476Y-85359523D01*
X238188095Y-85264285D01*
G04 #@! TO.C,D1*
X138218095Y-112502380D02*
X138218095Y-111502380D01*
X137980000Y-111502380D01*
X137837142Y-111550000D01*
X137741904Y-111645238D01*
X137694285Y-111740476D01*
X137646666Y-111930952D01*
X137646666Y-112073809D01*
X137694285Y-112264285D01*
X137741904Y-112359523D01*
X137837142Y-112454761D01*
X137980000Y-112502380D01*
X138218095Y-112502380D01*
X136694285Y-112502380D02*
X137265714Y-112502380D01*
X136980000Y-112502380D02*
X136980000Y-111502380D01*
X137075238Y-111645238D01*
X137170476Y-111740476D01*
X137265714Y-111788095D01*
G04 #@! TO.C,D2*
X138218095Y-126482380D02*
X138218095Y-125482380D01*
X137980000Y-125482380D01*
X137837142Y-125530000D01*
X137741904Y-125625238D01*
X137694285Y-125720476D01*
X137646666Y-125910952D01*
X137646666Y-126053809D01*
X137694285Y-126244285D01*
X137741904Y-126339523D01*
X137837142Y-126434761D01*
X137980000Y-126482380D01*
X138218095Y-126482380D01*
X137265714Y-125577619D02*
X137218095Y-125530000D01*
X137122857Y-125482380D01*
X136884761Y-125482380D01*
X136789523Y-125530000D01*
X136741904Y-125577619D01*
X136694285Y-125672857D01*
X136694285Y-125768095D01*
X136741904Y-125910952D01*
X137313333Y-126482380D01*
X136694285Y-126482380D01*
G04 #@! TO.C,D3*
X138318095Y-154942380D02*
X138318095Y-153942380D01*
X138080000Y-153942380D01*
X137937142Y-153990000D01*
X137841904Y-154085238D01*
X137794285Y-154180476D01*
X137746666Y-154370952D01*
X137746666Y-154513809D01*
X137794285Y-154704285D01*
X137841904Y-154799523D01*
X137937142Y-154894761D01*
X138080000Y-154942380D01*
X138318095Y-154942380D01*
X137413333Y-153942380D02*
X136794285Y-153942380D01*
X137127619Y-154323333D01*
X136984761Y-154323333D01*
X136889523Y-154370952D01*
X136841904Y-154418571D01*
X136794285Y-154513809D01*
X136794285Y-154751904D01*
X136841904Y-154847142D01*
X136889523Y-154894761D01*
X136984761Y-154942380D01*
X137270476Y-154942380D01*
X137365714Y-154894761D01*
X137413333Y-154847142D01*
G04 #@! TO.C,D4*
X111942380Y-197731904D02*
X110942380Y-197731904D01*
X110942380Y-197970000D01*
X110990000Y-198112857D01*
X111085238Y-198208095D01*
X111180476Y-198255714D01*
X111370952Y-198303333D01*
X111513809Y-198303333D01*
X111704285Y-198255714D01*
X111799523Y-198208095D01*
X111894761Y-198112857D01*
X111942380Y-197970000D01*
X111942380Y-197731904D01*
X111275714Y-199160476D02*
X111942380Y-199160476D01*
X110894761Y-198922380D02*
X111609047Y-198684285D01*
X111609047Y-199303333D01*
G04 #@! TO.C,D5*
X146692380Y-114641904D02*
X145692380Y-114641904D01*
X145692380Y-114880000D01*
X145740000Y-115022857D01*
X145835238Y-115118095D01*
X145930476Y-115165714D01*
X146120952Y-115213333D01*
X146263809Y-115213333D01*
X146454285Y-115165714D01*
X146549523Y-115118095D01*
X146644761Y-115022857D01*
X146692380Y-114880000D01*
X146692380Y-114641904D01*
X145692380Y-116118095D02*
X145692380Y-115641904D01*
X146168571Y-115594285D01*
X146120952Y-115641904D01*
X146073333Y-115737142D01*
X146073333Y-115975238D01*
X146120952Y-116070476D01*
X146168571Y-116118095D01*
X146263809Y-116165714D01*
X146501904Y-116165714D01*
X146597142Y-116118095D01*
X146644761Y-116070476D01*
X146692380Y-115975238D01*
X146692380Y-115737142D01*
X146644761Y-115641904D01*
X146597142Y-115594285D01*
G04 #@! TO.C,D6*
X143388095Y-136402380D02*
X143388095Y-135402380D01*
X143150000Y-135402380D01*
X143007142Y-135450000D01*
X142911904Y-135545238D01*
X142864285Y-135640476D01*
X142816666Y-135830952D01*
X142816666Y-135973809D01*
X142864285Y-136164285D01*
X142911904Y-136259523D01*
X143007142Y-136354761D01*
X143150000Y-136402380D01*
X143388095Y-136402380D01*
X141959523Y-135402380D02*
X142150000Y-135402380D01*
X142245238Y-135450000D01*
X142292857Y-135497619D01*
X142388095Y-135640476D01*
X142435714Y-135830952D01*
X142435714Y-136211904D01*
X142388095Y-136307142D01*
X142340476Y-136354761D01*
X142245238Y-136402380D01*
X142054761Y-136402380D01*
X141959523Y-136354761D01*
X141911904Y-136307142D01*
X141864285Y-136211904D01*
X141864285Y-135973809D01*
X141911904Y-135878571D01*
X141959523Y-135830952D01*
X142054761Y-135783333D01*
X142245238Y-135783333D01*
X142340476Y-135830952D01*
X142388095Y-135878571D01*
X142435714Y-135973809D01*
G04 #@! TO.C,D7*
X143338095Y-153652380D02*
X143338095Y-152652380D01*
X143100000Y-152652380D01*
X142957142Y-152700000D01*
X142861904Y-152795238D01*
X142814285Y-152890476D01*
X142766666Y-153080952D01*
X142766666Y-153223809D01*
X142814285Y-153414285D01*
X142861904Y-153509523D01*
X142957142Y-153604761D01*
X143100000Y-153652380D01*
X143338095Y-153652380D01*
X142433333Y-152652380D02*
X141766666Y-152652380D01*
X142195238Y-153652380D01*
G04 #@! TO.C,D8*
X143338095Y-171232380D02*
X143338095Y-170232380D01*
X143100000Y-170232380D01*
X142957142Y-170280000D01*
X142861904Y-170375238D01*
X142814285Y-170470476D01*
X142766666Y-170660952D01*
X142766666Y-170803809D01*
X142814285Y-170994285D01*
X142861904Y-171089523D01*
X142957142Y-171184761D01*
X143100000Y-171232380D01*
X143338095Y-171232380D01*
X142195238Y-170660952D02*
X142290476Y-170613333D01*
X142338095Y-170565714D01*
X142385714Y-170470476D01*
X142385714Y-170422857D01*
X142338095Y-170327619D01*
X142290476Y-170280000D01*
X142195238Y-170232380D01*
X142004761Y-170232380D01*
X141909523Y-170280000D01*
X141861904Y-170327619D01*
X141814285Y-170422857D01*
X141814285Y-170470476D01*
X141861904Y-170565714D01*
X141909523Y-170613333D01*
X142004761Y-170660952D01*
X142195238Y-170660952D01*
X142290476Y-170708571D01*
X142338095Y-170756190D01*
X142385714Y-170851428D01*
X142385714Y-171041904D01*
X142338095Y-171137142D01*
X142290476Y-171184761D01*
X142195238Y-171232380D01*
X142004761Y-171232380D01*
X141909523Y-171184761D01*
X141861904Y-171137142D01*
X141814285Y-171041904D01*
X141814285Y-170851428D01*
X141861904Y-170756190D01*
X141909523Y-170708571D01*
X142004761Y-170660952D01*
G04 #@! TO.C,D9*
X132878095Y-197962380D02*
X132878095Y-196962380D01*
X132640000Y-196962380D01*
X132497142Y-197010000D01*
X132401904Y-197105238D01*
X132354285Y-197200476D01*
X132306666Y-197390952D01*
X132306666Y-197533809D01*
X132354285Y-197724285D01*
X132401904Y-197819523D01*
X132497142Y-197914761D01*
X132640000Y-197962380D01*
X132878095Y-197962380D01*
X131830476Y-197962380D02*
X131640000Y-197962380D01*
X131544761Y-197914761D01*
X131497142Y-197867142D01*
X131401904Y-197724285D01*
X131354285Y-197533809D01*
X131354285Y-197152857D01*
X131401904Y-197057619D01*
X131449523Y-197010000D01*
X131544761Y-196962380D01*
X131735238Y-196962380D01*
X131830476Y-197010000D01*
X131878095Y-197057619D01*
X131925714Y-197152857D01*
X131925714Y-197390952D01*
X131878095Y-197486190D01*
X131830476Y-197533809D01*
X131735238Y-197581428D01*
X131544761Y-197581428D01*
X131449523Y-197533809D01*
X131401904Y-197486190D01*
X131354285Y-197390952D01*
G04 #@! TO.C,D10*
X162764285Y-117042380D02*
X162764285Y-116042380D01*
X162526190Y-116042380D01*
X162383333Y-116090000D01*
X162288095Y-116185238D01*
X162240476Y-116280476D01*
X162192857Y-116470952D01*
X162192857Y-116613809D01*
X162240476Y-116804285D01*
X162288095Y-116899523D01*
X162383333Y-116994761D01*
X162526190Y-117042380D01*
X162764285Y-117042380D01*
X161240476Y-117042380D02*
X161811904Y-117042380D01*
X161526190Y-117042380D02*
X161526190Y-116042380D01*
X161621428Y-116185238D01*
X161716666Y-116280476D01*
X161811904Y-116328095D01*
X160621428Y-116042380D02*
X160526190Y-116042380D01*
X160430952Y-116090000D01*
X160383333Y-116137619D01*
X160335714Y-116232857D01*
X160288095Y-116423333D01*
X160288095Y-116661428D01*
X160335714Y-116851904D01*
X160383333Y-116947142D01*
X160430952Y-116994761D01*
X160526190Y-117042380D01*
X160621428Y-117042380D01*
X160716666Y-116994761D01*
X160764285Y-116947142D01*
X160811904Y-116851904D01*
X160859523Y-116661428D01*
X160859523Y-116423333D01*
X160811904Y-116232857D01*
X160764285Y-116137619D01*
X160716666Y-116090000D01*
X160621428Y-116042380D01*
G04 #@! TO.C,D11*
X162814285Y-135322380D02*
X162814285Y-134322380D01*
X162576190Y-134322380D01*
X162433333Y-134370000D01*
X162338095Y-134465238D01*
X162290476Y-134560476D01*
X162242857Y-134750952D01*
X162242857Y-134893809D01*
X162290476Y-135084285D01*
X162338095Y-135179523D01*
X162433333Y-135274761D01*
X162576190Y-135322380D01*
X162814285Y-135322380D01*
X161290476Y-135322380D02*
X161861904Y-135322380D01*
X161576190Y-135322380D02*
X161576190Y-134322380D01*
X161671428Y-134465238D01*
X161766666Y-134560476D01*
X161861904Y-134608095D01*
X160338095Y-135322380D02*
X160909523Y-135322380D01*
X160623809Y-135322380D02*
X160623809Y-134322380D01*
X160719047Y-134465238D01*
X160814285Y-134560476D01*
X160909523Y-134608095D01*
G04 #@! TO.C,D12*
X162814285Y-153702380D02*
X162814285Y-152702380D01*
X162576190Y-152702380D01*
X162433333Y-152750000D01*
X162338095Y-152845238D01*
X162290476Y-152940476D01*
X162242857Y-153130952D01*
X162242857Y-153273809D01*
X162290476Y-153464285D01*
X162338095Y-153559523D01*
X162433333Y-153654761D01*
X162576190Y-153702380D01*
X162814285Y-153702380D01*
X161290476Y-153702380D02*
X161861904Y-153702380D01*
X161576190Y-153702380D02*
X161576190Y-152702380D01*
X161671428Y-152845238D01*
X161766666Y-152940476D01*
X161861904Y-152988095D01*
X160909523Y-152797619D02*
X160861904Y-152750000D01*
X160766666Y-152702380D01*
X160528571Y-152702380D01*
X160433333Y-152750000D01*
X160385714Y-152797619D01*
X160338095Y-152892857D01*
X160338095Y-152988095D01*
X160385714Y-153130952D01*
X160957142Y-153702380D01*
X160338095Y-153702380D01*
G04 #@! TO.C,D13*
X162814285Y-172632380D02*
X162814285Y-171632380D01*
X162576190Y-171632380D01*
X162433333Y-171680000D01*
X162338095Y-171775238D01*
X162290476Y-171870476D01*
X162242857Y-172060952D01*
X162242857Y-172203809D01*
X162290476Y-172394285D01*
X162338095Y-172489523D01*
X162433333Y-172584761D01*
X162576190Y-172632380D01*
X162814285Y-172632380D01*
X161290476Y-172632380D02*
X161861904Y-172632380D01*
X161576190Y-172632380D02*
X161576190Y-171632380D01*
X161671428Y-171775238D01*
X161766666Y-171870476D01*
X161861904Y-171918095D01*
X160957142Y-171632380D02*
X160338095Y-171632380D01*
X160671428Y-172013333D01*
X160528571Y-172013333D01*
X160433333Y-172060952D01*
X160385714Y-172108571D01*
X160338095Y-172203809D01*
X160338095Y-172441904D01*
X160385714Y-172537142D01*
X160433333Y-172584761D01*
X160528571Y-172632380D01*
X160814285Y-172632380D01*
X160909523Y-172584761D01*
X160957142Y-172537142D01*
G04 #@! TO.C,D14*
X154354285Y-173442380D02*
X154354285Y-172442380D01*
X154116190Y-172442380D01*
X153973333Y-172490000D01*
X153878095Y-172585238D01*
X153830476Y-172680476D01*
X153782857Y-172870952D01*
X153782857Y-173013809D01*
X153830476Y-173204285D01*
X153878095Y-173299523D01*
X153973333Y-173394761D01*
X154116190Y-173442380D01*
X154354285Y-173442380D01*
X152830476Y-173442380D02*
X153401904Y-173442380D01*
X153116190Y-173442380D02*
X153116190Y-172442380D01*
X153211428Y-172585238D01*
X153306666Y-172680476D01*
X153401904Y-172728095D01*
X151973333Y-172775714D02*
X151973333Y-173442380D01*
X152211428Y-172394761D02*
X152449523Y-173109047D01*
X151830476Y-173109047D01*
G04 #@! TO.C,D15*
X181814285Y-114292380D02*
X181814285Y-113292380D01*
X181576190Y-113292380D01*
X181433333Y-113340000D01*
X181338095Y-113435238D01*
X181290476Y-113530476D01*
X181242857Y-113720952D01*
X181242857Y-113863809D01*
X181290476Y-114054285D01*
X181338095Y-114149523D01*
X181433333Y-114244761D01*
X181576190Y-114292380D01*
X181814285Y-114292380D01*
X180290476Y-114292380D02*
X180861904Y-114292380D01*
X180576190Y-114292380D02*
X180576190Y-113292380D01*
X180671428Y-113435238D01*
X180766666Y-113530476D01*
X180861904Y-113578095D01*
X179385714Y-113292380D02*
X179861904Y-113292380D01*
X179909523Y-113768571D01*
X179861904Y-113720952D01*
X179766666Y-113673333D01*
X179528571Y-113673333D01*
X179433333Y-113720952D01*
X179385714Y-113768571D01*
X179338095Y-113863809D01*
X179338095Y-114101904D01*
X179385714Y-114197142D01*
X179433333Y-114244761D01*
X179528571Y-114292380D01*
X179766666Y-114292380D01*
X179861904Y-114244761D01*
X179909523Y-114197142D01*
G04 #@! TO.C,D16*
X181814285Y-132552380D02*
X181814285Y-131552380D01*
X181576190Y-131552380D01*
X181433333Y-131600000D01*
X181338095Y-131695238D01*
X181290476Y-131790476D01*
X181242857Y-131980952D01*
X181242857Y-132123809D01*
X181290476Y-132314285D01*
X181338095Y-132409523D01*
X181433333Y-132504761D01*
X181576190Y-132552380D01*
X181814285Y-132552380D01*
X180290476Y-132552380D02*
X180861904Y-132552380D01*
X180576190Y-132552380D02*
X180576190Y-131552380D01*
X180671428Y-131695238D01*
X180766666Y-131790476D01*
X180861904Y-131838095D01*
X179433333Y-131552380D02*
X179623809Y-131552380D01*
X179719047Y-131600000D01*
X179766666Y-131647619D01*
X179861904Y-131790476D01*
X179909523Y-131980952D01*
X179909523Y-132361904D01*
X179861904Y-132457142D01*
X179814285Y-132504761D01*
X179719047Y-132552380D01*
X179528571Y-132552380D01*
X179433333Y-132504761D01*
X179385714Y-132457142D01*
X179338095Y-132361904D01*
X179338095Y-132123809D01*
X179385714Y-132028571D01*
X179433333Y-131980952D01*
X179528571Y-131933333D01*
X179719047Y-131933333D01*
X179814285Y-131980952D01*
X179861904Y-132028571D01*
X179909523Y-132123809D01*
G04 #@! TO.C,D17*
X181814285Y-151062380D02*
X181814285Y-150062380D01*
X181576190Y-150062380D01*
X181433333Y-150110000D01*
X181338095Y-150205238D01*
X181290476Y-150300476D01*
X181242857Y-150490952D01*
X181242857Y-150633809D01*
X181290476Y-150824285D01*
X181338095Y-150919523D01*
X181433333Y-151014761D01*
X181576190Y-151062380D01*
X181814285Y-151062380D01*
X180290476Y-151062380D02*
X180861904Y-151062380D01*
X180576190Y-151062380D02*
X180576190Y-150062380D01*
X180671428Y-150205238D01*
X180766666Y-150300476D01*
X180861904Y-150348095D01*
X179957142Y-150062380D02*
X179290476Y-150062380D01*
X179719047Y-151062380D01*
G04 #@! TO.C,D18*
X181804285Y-170042380D02*
X181804285Y-169042380D01*
X181566190Y-169042380D01*
X181423333Y-169090000D01*
X181328095Y-169185238D01*
X181280476Y-169280476D01*
X181232857Y-169470952D01*
X181232857Y-169613809D01*
X181280476Y-169804285D01*
X181328095Y-169899523D01*
X181423333Y-169994761D01*
X181566190Y-170042380D01*
X181804285Y-170042380D01*
X180280476Y-170042380D02*
X180851904Y-170042380D01*
X180566190Y-170042380D02*
X180566190Y-169042380D01*
X180661428Y-169185238D01*
X180756666Y-169280476D01*
X180851904Y-169328095D01*
X179709047Y-169470952D02*
X179804285Y-169423333D01*
X179851904Y-169375714D01*
X179899523Y-169280476D01*
X179899523Y-169232857D01*
X179851904Y-169137619D01*
X179804285Y-169090000D01*
X179709047Y-169042380D01*
X179518571Y-169042380D01*
X179423333Y-169090000D01*
X179375714Y-169137619D01*
X179328095Y-169232857D01*
X179328095Y-169280476D01*
X179375714Y-169375714D01*
X179423333Y-169423333D01*
X179518571Y-169470952D01*
X179709047Y-169470952D01*
X179804285Y-169518571D01*
X179851904Y-169566190D01*
X179899523Y-169661428D01*
X179899523Y-169851904D01*
X179851904Y-169947142D01*
X179804285Y-169994761D01*
X179709047Y-170042380D01*
X179518571Y-170042380D01*
X179423333Y-169994761D01*
X179375714Y-169947142D01*
X179328095Y-169851904D01*
X179328095Y-169661428D01*
X179375714Y-169566190D01*
X179423333Y-169518571D01*
X179518571Y-169470952D01*
G04 #@! TO.C,D19*
X175612380Y-174885714D02*
X174612380Y-174885714D01*
X174612380Y-175123809D01*
X174660000Y-175266666D01*
X174755238Y-175361904D01*
X174850476Y-175409523D01*
X175040952Y-175457142D01*
X175183809Y-175457142D01*
X175374285Y-175409523D01*
X175469523Y-175361904D01*
X175564761Y-175266666D01*
X175612380Y-175123809D01*
X175612380Y-174885714D01*
X175612380Y-176409523D02*
X175612380Y-175838095D01*
X175612380Y-176123809D02*
X174612380Y-176123809D01*
X174755238Y-176028571D01*
X174850476Y-175933333D01*
X174898095Y-175838095D01*
X175612380Y-176885714D02*
X175612380Y-177076190D01*
X175564761Y-177171428D01*
X175517142Y-177219047D01*
X175374285Y-177314285D01*
X175183809Y-177361904D01*
X174802857Y-177361904D01*
X174707619Y-177314285D01*
X174660000Y-177266666D01*
X174612380Y-177171428D01*
X174612380Y-176980952D01*
X174660000Y-176885714D01*
X174707619Y-176838095D01*
X174802857Y-176790476D01*
X175040952Y-176790476D01*
X175136190Y-176838095D01*
X175183809Y-176885714D01*
X175231428Y-176980952D01*
X175231428Y-177171428D01*
X175183809Y-177266666D01*
X175136190Y-177314285D01*
X175040952Y-177361904D01*
G04 #@! TO.C,D20*
X205154285Y-114192380D02*
X205154285Y-113192380D01*
X204916190Y-113192380D01*
X204773333Y-113240000D01*
X204678095Y-113335238D01*
X204630476Y-113430476D01*
X204582857Y-113620952D01*
X204582857Y-113763809D01*
X204630476Y-113954285D01*
X204678095Y-114049523D01*
X204773333Y-114144761D01*
X204916190Y-114192380D01*
X205154285Y-114192380D01*
X204201904Y-113287619D02*
X204154285Y-113240000D01*
X204059047Y-113192380D01*
X203820952Y-113192380D01*
X203725714Y-113240000D01*
X203678095Y-113287619D01*
X203630476Y-113382857D01*
X203630476Y-113478095D01*
X203678095Y-113620952D01*
X204249523Y-114192380D01*
X203630476Y-114192380D01*
X203011428Y-113192380D02*
X202916190Y-113192380D01*
X202820952Y-113240000D01*
X202773333Y-113287619D01*
X202725714Y-113382857D01*
X202678095Y-113573333D01*
X202678095Y-113811428D01*
X202725714Y-114001904D01*
X202773333Y-114097142D01*
X202820952Y-114144761D01*
X202916190Y-114192380D01*
X203011428Y-114192380D01*
X203106666Y-114144761D01*
X203154285Y-114097142D01*
X203201904Y-114001904D01*
X203249523Y-113811428D01*
X203249523Y-113573333D01*
X203201904Y-113382857D01*
X203154285Y-113287619D01*
X203106666Y-113240000D01*
X203011428Y-113192380D01*
G04 #@! TO.C,D21*
X201814285Y-135632380D02*
X201814285Y-134632380D01*
X201576190Y-134632380D01*
X201433333Y-134680000D01*
X201338095Y-134775238D01*
X201290476Y-134870476D01*
X201242857Y-135060952D01*
X201242857Y-135203809D01*
X201290476Y-135394285D01*
X201338095Y-135489523D01*
X201433333Y-135584761D01*
X201576190Y-135632380D01*
X201814285Y-135632380D01*
X200861904Y-134727619D02*
X200814285Y-134680000D01*
X200719047Y-134632380D01*
X200480952Y-134632380D01*
X200385714Y-134680000D01*
X200338095Y-134727619D01*
X200290476Y-134822857D01*
X200290476Y-134918095D01*
X200338095Y-135060952D01*
X200909523Y-135632380D01*
X200290476Y-135632380D01*
X199338095Y-135632380D02*
X199909523Y-135632380D01*
X199623809Y-135632380D02*
X199623809Y-134632380D01*
X199719047Y-134775238D01*
X199814285Y-134870476D01*
X199909523Y-134918095D01*
G04 #@! TO.C,D22*
X200884285Y-154412380D02*
X200884285Y-153412380D01*
X200646190Y-153412380D01*
X200503333Y-153460000D01*
X200408095Y-153555238D01*
X200360476Y-153650476D01*
X200312857Y-153840952D01*
X200312857Y-153983809D01*
X200360476Y-154174285D01*
X200408095Y-154269523D01*
X200503333Y-154364761D01*
X200646190Y-154412380D01*
X200884285Y-154412380D01*
X199931904Y-153507619D02*
X199884285Y-153460000D01*
X199789047Y-153412380D01*
X199550952Y-153412380D01*
X199455714Y-153460000D01*
X199408095Y-153507619D01*
X199360476Y-153602857D01*
X199360476Y-153698095D01*
X199408095Y-153840952D01*
X199979523Y-154412380D01*
X199360476Y-154412380D01*
X198979523Y-153507619D02*
X198931904Y-153460000D01*
X198836666Y-153412380D01*
X198598571Y-153412380D01*
X198503333Y-153460000D01*
X198455714Y-153507619D01*
X198408095Y-153602857D01*
X198408095Y-153698095D01*
X198455714Y-153840952D01*
X199027142Y-154412380D01*
X198408095Y-154412380D01*
G04 #@! TO.C,D23*
X200834285Y-171902380D02*
X200834285Y-170902380D01*
X200596190Y-170902380D01*
X200453333Y-170950000D01*
X200358095Y-171045238D01*
X200310476Y-171140476D01*
X200262857Y-171330952D01*
X200262857Y-171473809D01*
X200310476Y-171664285D01*
X200358095Y-171759523D01*
X200453333Y-171854761D01*
X200596190Y-171902380D01*
X200834285Y-171902380D01*
X199881904Y-170997619D02*
X199834285Y-170950000D01*
X199739047Y-170902380D01*
X199500952Y-170902380D01*
X199405714Y-170950000D01*
X199358095Y-170997619D01*
X199310476Y-171092857D01*
X199310476Y-171188095D01*
X199358095Y-171330952D01*
X199929523Y-171902380D01*
X199310476Y-171902380D01*
X198977142Y-170902380D02*
X198358095Y-170902380D01*
X198691428Y-171283333D01*
X198548571Y-171283333D01*
X198453333Y-171330952D01*
X198405714Y-171378571D01*
X198358095Y-171473809D01*
X198358095Y-171711904D01*
X198405714Y-171807142D01*
X198453333Y-171854761D01*
X198548571Y-171902380D01*
X198834285Y-171902380D01*
X198929523Y-171854761D01*
X198977142Y-171807142D01*
G04 #@! TO.C,D24*
X196412380Y-183285714D02*
X195412380Y-183285714D01*
X195412380Y-183523809D01*
X195460000Y-183666666D01*
X195555238Y-183761904D01*
X195650476Y-183809523D01*
X195840952Y-183857142D01*
X195983809Y-183857142D01*
X196174285Y-183809523D01*
X196269523Y-183761904D01*
X196364761Y-183666666D01*
X196412380Y-183523809D01*
X196412380Y-183285714D01*
X195507619Y-184238095D02*
X195460000Y-184285714D01*
X195412380Y-184380952D01*
X195412380Y-184619047D01*
X195460000Y-184714285D01*
X195507619Y-184761904D01*
X195602857Y-184809523D01*
X195698095Y-184809523D01*
X195840952Y-184761904D01*
X196412380Y-184190476D01*
X196412380Y-184809523D01*
X195745714Y-185666666D02*
X196412380Y-185666666D01*
X195364761Y-185428571D02*
X196079047Y-185190476D01*
X196079047Y-185809523D01*
G04 #@! TO.C,D25*
X221014285Y-119642380D02*
X221014285Y-118642380D01*
X220776190Y-118642380D01*
X220633333Y-118690000D01*
X220538095Y-118785238D01*
X220490476Y-118880476D01*
X220442857Y-119070952D01*
X220442857Y-119213809D01*
X220490476Y-119404285D01*
X220538095Y-119499523D01*
X220633333Y-119594761D01*
X220776190Y-119642380D01*
X221014285Y-119642380D01*
X220061904Y-118737619D02*
X220014285Y-118690000D01*
X219919047Y-118642380D01*
X219680952Y-118642380D01*
X219585714Y-118690000D01*
X219538095Y-118737619D01*
X219490476Y-118832857D01*
X219490476Y-118928095D01*
X219538095Y-119070952D01*
X220109523Y-119642380D01*
X219490476Y-119642380D01*
X218585714Y-118642380D02*
X219061904Y-118642380D01*
X219109523Y-119118571D01*
X219061904Y-119070952D01*
X218966666Y-119023333D01*
X218728571Y-119023333D01*
X218633333Y-119070952D01*
X218585714Y-119118571D01*
X218538095Y-119213809D01*
X218538095Y-119451904D01*
X218585714Y-119547142D01*
X218633333Y-119594761D01*
X218728571Y-119642380D01*
X218966666Y-119642380D01*
X219061904Y-119594761D01*
X219109523Y-119547142D01*
G04 #@! TO.C,D26*
X219784285Y-139142380D02*
X219784285Y-138142380D01*
X219546190Y-138142380D01*
X219403333Y-138190000D01*
X219308095Y-138285238D01*
X219260476Y-138380476D01*
X219212857Y-138570952D01*
X219212857Y-138713809D01*
X219260476Y-138904285D01*
X219308095Y-138999523D01*
X219403333Y-139094761D01*
X219546190Y-139142380D01*
X219784285Y-139142380D01*
X218831904Y-138237619D02*
X218784285Y-138190000D01*
X218689047Y-138142380D01*
X218450952Y-138142380D01*
X218355714Y-138190000D01*
X218308095Y-138237619D01*
X218260476Y-138332857D01*
X218260476Y-138428095D01*
X218308095Y-138570952D01*
X218879523Y-139142380D01*
X218260476Y-139142380D01*
X217403333Y-138142380D02*
X217593809Y-138142380D01*
X217689047Y-138190000D01*
X217736666Y-138237619D01*
X217831904Y-138380476D01*
X217879523Y-138570952D01*
X217879523Y-138951904D01*
X217831904Y-139047142D01*
X217784285Y-139094761D01*
X217689047Y-139142380D01*
X217498571Y-139142380D01*
X217403333Y-139094761D01*
X217355714Y-139047142D01*
X217308095Y-138951904D01*
X217308095Y-138713809D01*
X217355714Y-138618571D01*
X217403333Y-138570952D01*
X217498571Y-138523333D01*
X217689047Y-138523333D01*
X217784285Y-138570952D01*
X217831904Y-138618571D01*
X217879523Y-138713809D01*
G04 #@! TO.C,D27*
X219794285Y-157152380D02*
X219794285Y-156152380D01*
X219556190Y-156152380D01*
X219413333Y-156200000D01*
X219318095Y-156295238D01*
X219270476Y-156390476D01*
X219222857Y-156580952D01*
X219222857Y-156723809D01*
X219270476Y-156914285D01*
X219318095Y-157009523D01*
X219413333Y-157104761D01*
X219556190Y-157152380D01*
X219794285Y-157152380D01*
X218841904Y-156247619D02*
X218794285Y-156200000D01*
X218699047Y-156152380D01*
X218460952Y-156152380D01*
X218365714Y-156200000D01*
X218318095Y-156247619D01*
X218270476Y-156342857D01*
X218270476Y-156438095D01*
X218318095Y-156580952D01*
X218889523Y-157152380D01*
X218270476Y-157152380D01*
X217937142Y-156152380D02*
X217270476Y-156152380D01*
X217699047Y-157152380D01*
G04 #@! TO.C,D28*
X219834285Y-177102380D02*
X219834285Y-176102380D01*
X219596190Y-176102380D01*
X219453333Y-176150000D01*
X219358095Y-176245238D01*
X219310476Y-176340476D01*
X219262857Y-176530952D01*
X219262857Y-176673809D01*
X219310476Y-176864285D01*
X219358095Y-176959523D01*
X219453333Y-177054761D01*
X219596190Y-177102380D01*
X219834285Y-177102380D01*
X218881904Y-176197619D02*
X218834285Y-176150000D01*
X218739047Y-176102380D01*
X218500952Y-176102380D01*
X218405714Y-176150000D01*
X218358095Y-176197619D01*
X218310476Y-176292857D01*
X218310476Y-176388095D01*
X218358095Y-176530952D01*
X218929523Y-177102380D01*
X218310476Y-177102380D01*
X217739047Y-176530952D02*
X217834285Y-176483333D01*
X217881904Y-176435714D01*
X217929523Y-176340476D01*
X217929523Y-176292857D01*
X217881904Y-176197619D01*
X217834285Y-176150000D01*
X217739047Y-176102380D01*
X217548571Y-176102380D01*
X217453333Y-176150000D01*
X217405714Y-176197619D01*
X217358095Y-176292857D01*
X217358095Y-176340476D01*
X217405714Y-176435714D01*
X217453333Y-176483333D01*
X217548571Y-176530952D01*
X217739047Y-176530952D01*
X217834285Y-176578571D01*
X217881904Y-176626190D01*
X217929523Y-176721428D01*
X217929523Y-176911904D01*
X217881904Y-177007142D01*
X217834285Y-177054761D01*
X217739047Y-177102380D01*
X217548571Y-177102380D01*
X217453333Y-177054761D01*
X217405714Y-177007142D01*
X217358095Y-176911904D01*
X217358095Y-176721428D01*
X217405714Y-176626190D01*
X217453333Y-176578571D01*
X217548571Y-176530952D01*
G04 #@! TO.C,D29*
X231184285Y-188552380D02*
X231184285Y-187552380D01*
X230946190Y-187552380D01*
X230803333Y-187600000D01*
X230708095Y-187695238D01*
X230660476Y-187790476D01*
X230612857Y-187980952D01*
X230612857Y-188123809D01*
X230660476Y-188314285D01*
X230708095Y-188409523D01*
X230803333Y-188504761D01*
X230946190Y-188552380D01*
X231184285Y-188552380D01*
X230231904Y-187647619D02*
X230184285Y-187600000D01*
X230089047Y-187552380D01*
X229850952Y-187552380D01*
X229755714Y-187600000D01*
X229708095Y-187647619D01*
X229660476Y-187742857D01*
X229660476Y-187838095D01*
X229708095Y-187980952D01*
X230279523Y-188552380D01*
X229660476Y-188552380D01*
X229184285Y-188552380D02*
X228993809Y-188552380D01*
X228898571Y-188504761D01*
X228850952Y-188457142D01*
X228755714Y-188314285D01*
X228708095Y-188123809D01*
X228708095Y-187742857D01*
X228755714Y-187647619D01*
X228803333Y-187600000D01*
X228898571Y-187552380D01*
X229089047Y-187552380D01*
X229184285Y-187600000D01*
X229231904Y-187647619D01*
X229279523Y-187742857D01*
X229279523Y-187980952D01*
X229231904Y-188076190D01*
X229184285Y-188123809D01*
X229089047Y-188171428D01*
X228898571Y-188171428D01*
X228803333Y-188123809D01*
X228755714Y-188076190D01*
X228708095Y-187980952D01*
G04 #@! TO.C,D30*
X248294285Y-120912380D02*
X248294285Y-119912380D01*
X248056190Y-119912380D01*
X247913333Y-119960000D01*
X247818095Y-120055238D01*
X247770476Y-120150476D01*
X247722857Y-120340952D01*
X247722857Y-120483809D01*
X247770476Y-120674285D01*
X247818095Y-120769523D01*
X247913333Y-120864761D01*
X248056190Y-120912380D01*
X248294285Y-120912380D01*
X247389523Y-119912380D02*
X246770476Y-119912380D01*
X247103809Y-120293333D01*
X246960952Y-120293333D01*
X246865714Y-120340952D01*
X246818095Y-120388571D01*
X246770476Y-120483809D01*
X246770476Y-120721904D01*
X246818095Y-120817142D01*
X246865714Y-120864761D01*
X246960952Y-120912380D01*
X247246666Y-120912380D01*
X247341904Y-120864761D01*
X247389523Y-120817142D01*
X246151428Y-119912380D02*
X246056190Y-119912380D01*
X245960952Y-119960000D01*
X245913333Y-120007619D01*
X245865714Y-120102857D01*
X245818095Y-120293333D01*
X245818095Y-120531428D01*
X245865714Y-120721904D01*
X245913333Y-120817142D01*
X245960952Y-120864761D01*
X246056190Y-120912380D01*
X246151428Y-120912380D01*
X246246666Y-120864761D01*
X246294285Y-120817142D01*
X246341904Y-120721904D01*
X246389523Y-120531428D01*
X246389523Y-120293333D01*
X246341904Y-120102857D01*
X246294285Y-120007619D01*
X246246666Y-119960000D01*
X246151428Y-119912380D01*
G04 #@! TO.C,D31*
X238794285Y-138682380D02*
X238794285Y-137682380D01*
X238556190Y-137682380D01*
X238413333Y-137730000D01*
X238318095Y-137825238D01*
X238270476Y-137920476D01*
X238222857Y-138110952D01*
X238222857Y-138253809D01*
X238270476Y-138444285D01*
X238318095Y-138539523D01*
X238413333Y-138634761D01*
X238556190Y-138682380D01*
X238794285Y-138682380D01*
X237889523Y-137682380D02*
X237270476Y-137682380D01*
X237603809Y-138063333D01*
X237460952Y-138063333D01*
X237365714Y-138110952D01*
X237318095Y-138158571D01*
X237270476Y-138253809D01*
X237270476Y-138491904D01*
X237318095Y-138587142D01*
X237365714Y-138634761D01*
X237460952Y-138682380D01*
X237746666Y-138682380D01*
X237841904Y-138634761D01*
X237889523Y-138587142D01*
X236318095Y-138682380D02*
X236889523Y-138682380D01*
X236603809Y-138682380D02*
X236603809Y-137682380D01*
X236699047Y-137825238D01*
X236794285Y-137920476D01*
X236889523Y-137968095D01*
G04 #@! TO.C,D32*
X238794285Y-159862380D02*
X238794285Y-158862380D01*
X238556190Y-158862380D01*
X238413333Y-158910000D01*
X238318095Y-159005238D01*
X238270476Y-159100476D01*
X238222857Y-159290952D01*
X238222857Y-159433809D01*
X238270476Y-159624285D01*
X238318095Y-159719523D01*
X238413333Y-159814761D01*
X238556190Y-159862380D01*
X238794285Y-159862380D01*
X237889523Y-158862380D02*
X237270476Y-158862380D01*
X237603809Y-159243333D01*
X237460952Y-159243333D01*
X237365714Y-159290952D01*
X237318095Y-159338571D01*
X237270476Y-159433809D01*
X237270476Y-159671904D01*
X237318095Y-159767142D01*
X237365714Y-159814761D01*
X237460952Y-159862380D01*
X237746666Y-159862380D01*
X237841904Y-159814761D01*
X237889523Y-159767142D01*
X236889523Y-158957619D02*
X236841904Y-158910000D01*
X236746666Y-158862380D01*
X236508571Y-158862380D01*
X236413333Y-158910000D01*
X236365714Y-158957619D01*
X236318095Y-159052857D01*
X236318095Y-159148095D01*
X236365714Y-159290952D01*
X236937142Y-159862380D01*
X236318095Y-159862380D01*
G04 #@! TO.C,D33*
X255374285Y-162522380D02*
X255374285Y-161522380D01*
X255136190Y-161522380D01*
X254993333Y-161570000D01*
X254898095Y-161665238D01*
X254850476Y-161760476D01*
X254802857Y-161950952D01*
X254802857Y-162093809D01*
X254850476Y-162284285D01*
X254898095Y-162379523D01*
X254993333Y-162474761D01*
X255136190Y-162522380D01*
X255374285Y-162522380D01*
X254469523Y-161522380D02*
X253850476Y-161522380D01*
X254183809Y-161903333D01*
X254040952Y-161903333D01*
X253945714Y-161950952D01*
X253898095Y-161998571D01*
X253850476Y-162093809D01*
X253850476Y-162331904D01*
X253898095Y-162427142D01*
X253945714Y-162474761D01*
X254040952Y-162522380D01*
X254326666Y-162522380D01*
X254421904Y-162474761D01*
X254469523Y-162427142D01*
X253517142Y-161522380D02*
X252898095Y-161522380D01*
X253231428Y-161903333D01*
X253088571Y-161903333D01*
X252993333Y-161950952D01*
X252945714Y-161998571D01*
X252898095Y-162093809D01*
X252898095Y-162331904D01*
X252945714Y-162427142D01*
X252993333Y-162474761D01*
X253088571Y-162522380D01*
X253374285Y-162522380D01*
X253469523Y-162474761D01*
X253517142Y-162427142D01*
G04 #@! TO.C,D34*
X265194285Y-135752380D02*
X265194285Y-134752380D01*
X264956190Y-134752380D01*
X264813333Y-134800000D01*
X264718095Y-134895238D01*
X264670476Y-134990476D01*
X264622857Y-135180952D01*
X264622857Y-135323809D01*
X264670476Y-135514285D01*
X264718095Y-135609523D01*
X264813333Y-135704761D01*
X264956190Y-135752380D01*
X265194285Y-135752380D01*
X264289523Y-134752380D02*
X263670476Y-134752380D01*
X264003809Y-135133333D01*
X263860952Y-135133333D01*
X263765714Y-135180952D01*
X263718095Y-135228571D01*
X263670476Y-135323809D01*
X263670476Y-135561904D01*
X263718095Y-135657142D01*
X263765714Y-135704761D01*
X263860952Y-135752380D01*
X264146666Y-135752380D01*
X264241904Y-135704761D01*
X264289523Y-135657142D01*
X262813333Y-135085714D02*
X262813333Y-135752380D01*
X263051428Y-134704761D02*
X263289523Y-135419047D01*
X262670476Y-135419047D01*
G04 #@! TO.C,D35*
X265884285Y-142772380D02*
X265884285Y-141772380D01*
X265646190Y-141772380D01*
X265503333Y-141820000D01*
X265408095Y-141915238D01*
X265360476Y-142010476D01*
X265312857Y-142200952D01*
X265312857Y-142343809D01*
X265360476Y-142534285D01*
X265408095Y-142629523D01*
X265503333Y-142724761D01*
X265646190Y-142772380D01*
X265884285Y-142772380D01*
X264979523Y-141772380D02*
X264360476Y-141772380D01*
X264693809Y-142153333D01*
X264550952Y-142153333D01*
X264455714Y-142200952D01*
X264408095Y-142248571D01*
X264360476Y-142343809D01*
X264360476Y-142581904D01*
X264408095Y-142677142D01*
X264455714Y-142724761D01*
X264550952Y-142772380D01*
X264836666Y-142772380D01*
X264931904Y-142724761D01*
X264979523Y-142677142D01*
X263455714Y-141772380D02*
X263931904Y-141772380D01*
X263979523Y-142248571D01*
X263931904Y-142200952D01*
X263836666Y-142153333D01*
X263598571Y-142153333D01*
X263503333Y-142200952D01*
X263455714Y-142248571D01*
X263408095Y-142343809D01*
X263408095Y-142581904D01*
X263455714Y-142677142D01*
X263503333Y-142724761D01*
X263598571Y-142772380D01*
X263836666Y-142772380D01*
X263931904Y-142724761D01*
X263979523Y-142677142D01*
G04 #@! TD*
M02*
