G04 #@! TF.GenerationSoftware,KiCad,Pcbnew,5.1.9-73d0e3b20d~88~ubuntu20.04.1*
G04 #@! TF.CreationDate,2021-01-19T00:06:27+03:00*
G04 #@! TF.ProjectId,jeaex-right,6a656165-782d-4726-9967-68742e6b6963,rev?*
G04 #@! TF.SameCoordinates,Original*
G04 #@! TF.FileFunction,Soldermask,Top*
G04 #@! TF.FilePolarity,Negative*
%FSLAX46Y46*%
G04 Gerber Fmt 4.6, Leading zero omitted, Abs format (unit mm)*
G04 Created by KiCad (PCBNEW 5.1.9-73d0e3b20d~88~ubuntu20.04.1) date 2021-01-19 00:06:27*
%MOMM*%
%LPD*%
G01*
G04 APERTURE LIST*
%ADD10C,5.500000*%
%ADD11C,9.000000*%
%ADD12C,1.600000*%
%ADD13R,1.600000X1.600000*%
%ADD14O,1.700000X1.700000*%
%ADD15R,1.700000X1.700000*%
%ADD16C,3.250000*%
%ADD17C,1.700000*%
%ADD18C,2.200000*%
%ADD19C,4.000000*%
G04 APERTURE END LIST*
D10*
G04 #@! TO.C,REF\u002A\u002A*
X141730000Y-197340000D03*
G04 #@! TD*
D11*
G04 #@! TO.C,REF\u002A\u002A*
X135140000Y-178390000D03*
G04 #@! TD*
G04 #@! TO.C,R3*
G36*
G01*
X287685000Y-81260000D02*
X286435000Y-81260000D01*
G75*
G02*
X286185000Y-81010000I0J250000D01*
G01*
X286185000Y-80210000D01*
G75*
G02*
X286435000Y-79960000I250000J0D01*
G01*
X287685000Y-79960000D01*
G75*
G02*
X287935000Y-80210000I0J-250000D01*
G01*
X287935000Y-81010000D01*
G75*
G02*
X287685000Y-81260000I-250000J0D01*
G01*
G37*
G36*
G01*
X287685000Y-84360000D02*
X286435000Y-84360000D01*
G75*
G02*
X286185000Y-84110000I0J250000D01*
G01*
X286185000Y-83310000D01*
G75*
G02*
X286435000Y-83060000I250000J0D01*
G01*
X287685000Y-83060000D01*
G75*
G02*
X287935000Y-83310000I0J-250000D01*
G01*
X287935000Y-84110000D01*
G75*
G02*
X287685000Y-84360000I-250000J0D01*
G01*
G37*
G04 #@! TD*
G04 #@! TO.C,R2*
G36*
G01*
X285155000Y-81260000D02*
X283905000Y-81260000D01*
G75*
G02*
X283655000Y-81010000I0J250000D01*
G01*
X283655000Y-80210000D01*
G75*
G02*
X283905000Y-79960000I250000J0D01*
G01*
X285155000Y-79960000D01*
G75*
G02*
X285405000Y-80210000I0J-250000D01*
G01*
X285405000Y-81010000D01*
G75*
G02*
X285155000Y-81260000I-250000J0D01*
G01*
G37*
G36*
G01*
X285155000Y-84360000D02*
X283905000Y-84360000D01*
G75*
G02*
X283655000Y-84110000I0J250000D01*
G01*
X283655000Y-83310000D01*
G75*
G02*
X283905000Y-83060000I250000J0D01*
G01*
X285155000Y-83060000D01*
G75*
G02*
X285405000Y-83310000I0J-250000D01*
G01*
X285405000Y-84110000D01*
G75*
G02*
X285155000Y-84360000I-250000J0D01*
G01*
G37*
G04 #@! TD*
D12*
G04 #@! TO.C,U1*
X271820000Y-77100000D03*
X269280000Y-77100000D03*
X266740000Y-77100000D03*
X274360000Y-77100000D03*
X276900000Y-77100000D03*
X279440000Y-77100000D03*
X281980000Y-77100000D03*
X284520000Y-77100000D03*
X287060000Y-77100000D03*
X289600000Y-77100000D03*
D13*
X292140000Y-77100000D03*
D12*
X264200000Y-77100000D03*
X261660000Y-77100000D03*
X259120000Y-77100000D03*
X256580000Y-77100000D03*
X254040000Y-77100000D03*
X251500000Y-77100000D03*
X248960000Y-77100000D03*
X246420000Y-77100000D03*
X243880000Y-77100000D03*
X243880000Y-82180000D03*
X243880000Y-84720000D03*
X243880000Y-87260000D03*
X243880000Y-92340000D03*
X246420000Y-92340000D03*
X248960000Y-92340000D03*
X251500000Y-92340000D03*
X254040000Y-92340000D03*
X256580000Y-92340000D03*
X259120000Y-92340000D03*
X261660000Y-92340000D03*
X266740000Y-92340000D03*
X269280000Y-92340000D03*
X274360000Y-92340000D03*
X276900000Y-92340000D03*
X279440000Y-92340000D03*
X281980000Y-92340000D03*
X284520000Y-92340000D03*
X287060000Y-92340000D03*
X289600000Y-92340000D03*
X292140000Y-92340000D03*
X259120000Y-87260000D03*
X256580000Y-87260000D03*
X254040000Y-87260000D03*
X251500000Y-87260000D03*
X259120000Y-84720000D03*
X256580000Y-84720000D03*
X254040000Y-84720000D03*
X251500000Y-84720000D03*
X251500000Y-82180000D03*
G04 #@! TD*
D14*
G04 #@! TO.C,J2*
X192150000Y-87880000D03*
X192150000Y-85340000D03*
X192150000Y-82800000D03*
D15*
X192150000Y-80260000D03*
G04 #@! TD*
D10*
G04 #@! TO.C,REF\u002A\u002A*
X173910000Y-95930000D03*
G04 #@! TD*
G04 #@! TO.C,REF\u002A\u002A*
X236030000Y-100220000D03*
G04 #@! TD*
G04 #@! TO.C,REF\u002A\u002A*
X253840000Y-142360000D03*
G04 #@! TD*
G04 #@! TO.C,REF\u002A\u002A*
X235660000Y-174610000D03*
G04 #@! TD*
G04 #@! TO.C,REF\u002A\u002A*
X204410000Y-176820000D03*
G04 #@! TD*
G04 #@! TO.C,REF\u002A\u002A*
X184250000Y-173380000D03*
G04 #@! TD*
D16*
G04 #@! TO.C,J1*
X165800000Y-81510000D03*
X165800000Y-89150000D03*
D17*
X172150000Y-83425000D03*
X172150000Y-85965000D03*
X174690000Y-84695000D03*
X174690000Y-87235000D03*
G04 #@! TD*
D18*
G04 #@! TO.C,SW1*
X131560000Y-103020000D03*
X125210000Y-105560000D03*
D19*
X129020000Y-108100000D03*
G04 #@! TD*
D18*
G04 #@! TO.C,SW2*
X134050000Y-134390000D03*
X131510000Y-128040000D03*
D19*
X128970000Y-131850000D03*
G04 #@! TD*
G04 #@! TO.C,SW3*
X128970000Y-160340000D03*
D18*
X131510000Y-156530000D03*
X134050000Y-162880000D03*
G04 #@! TD*
G04 #@! TO.C,SW4*
X105720000Y-205850000D03*
X110278647Y-210948317D03*
D19*
X111362370Y-206499357D03*
G04 #@! TD*
G04 #@! TO.C,SW5*
X148050000Y-108080000D03*
D18*
X144240000Y-105540000D03*
X150590000Y-103000000D03*
G04 #@! TD*
D19*
G04 #@! TO.C,SW6*
X148050000Y-127090000D03*
D18*
X144240000Y-124550000D03*
X150590000Y-122010000D03*
G04 #@! TD*
D19*
G04 #@! TO.C,SW7*
X148050000Y-146080000D03*
D18*
X144240000Y-143540000D03*
X150590000Y-141000000D03*
G04 #@! TD*
G04 #@! TO.C,SW8*
X150590000Y-160010000D03*
X144240000Y-162550000D03*
D19*
X148050000Y-165090000D03*
G04 #@! TD*
G04 #@! TO.C,SW9*
X127510000Y-195130000D03*
D18*
X126426277Y-199578960D03*
X121867630Y-194480643D03*
G04 #@! TD*
G04 #@! TO.C,SW10*
X169580000Y-103010000D03*
X163230000Y-105550000D03*
D19*
X167040000Y-108090000D03*
G04 #@! TD*
G04 #@! TO.C,SW11*
X167050000Y-127090000D03*
D18*
X163240000Y-124550000D03*
X169590000Y-122010000D03*
G04 #@! TD*
G04 #@! TO.C,SW12*
X169590000Y-141000000D03*
X163240000Y-143540000D03*
D19*
X167050000Y-146080000D03*
G04 #@! TD*
G04 #@! TO.C,SW13*
X167050000Y-165090000D03*
D18*
X163240000Y-162550000D03*
X169590000Y-160010000D03*
G04 #@! TD*
G04 #@! TO.C,SW14*
X157830000Y-179060000D03*
X151480000Y-181600000D03*
D19*
X155290000Y-184140000D03*
G04 #@! TD*
G04 #@! TO.C,SW15*
X186070000Y-105580000D03*
D18*
X182260000Y-103040000D03*
X188610000Y-100500000D03*
G04 #@! TD*
D19*
G04 #@! TO.C,SW16*
X186070000Y-124590000D03*
D18*
X182260000Y-122050000D03*
X188610000Y-119510000D03*
G04 #@! TD*
G04 #@! TO.C,SW17*
X188610000Y-138500000D03*
X182260000Y-141040000D03*
D19*
X186070000Y-143580000D03*
G04 #@! TD*
D18*
G04 #@! TO.C,SW18*
X188610000Y-157510000D03*
X182260000Y-160050000D03*
D19*
X186070000Y-162590000D03*
G04 #@! TD*
G04 #@! TO.C,SW19*
X183830000Y-184140000D03*
D18*
X180020000Y-181600000D03*
X186370000Y-179060000D03*
G04 #@! TD*
G04 #@! TO.C,SW20*
X207610000Y-103000000D03*
X201260000Y-105540000D03*
D19*
X205070000Y-108080000D03*
G04 #@! TD*
G04 #@! TO.C,SW21*
X205070000Y-127080000D03*
D18*
X201260000Y-124540000D03*
X207610000Y-122000000D03*
G04 #@! TD*
D19*
G04 #@! TO.C,SW22*
X205070000Y-146090000D03*
D18*
X201260000Y-143550000D03*
X207610000Y-141010000D03*
G04 #@! TD*
G04 #@! TO.C,SW23*
X207610000Y-160010000D03*
X201260000Y-162550000D03*
D19*
X205070000Y-165090000D03*
G04 #@! TD*
D18*
G04 #@! TO.C,SW24*
X210110000Y-183550000D03*
X203760000Y-186090000D03*
D19*
X207570000Y-188630000D03*
G04 #@! TD*
D18*
G04 #@! TO.C,SW25*
X226610000Y-107510000D03*
X220260000Y-110050000D03*
D19*
X224070000Y-112590000D03*
G04 #@! TD*
G04 #@! TO.C,SW26*
X224070000Y-131590000D03*
D18*
X220260000Y-129050000D03*
X226610000Y-126510000D03*
G04 #@! TD*
G04 #@! TO.C,SW27*
X226610000Y-145500000D03*
X220260000Y-148040000D03*
D19*
X224070000Y-150580000D03*
G04 #@! TD*
D18*
G04 #@! TO.C,SW28*
X226610000Y-164500000D03*
X220260000Y-167040000D03*
D19*
X224070000Y-169580000D03*
G04 #@! TD*
G04 #@! TO.C,SW29*
X240920000Y-188620000D03*
D18*
X237110000Y-186080000D03*
X243460000Y-183540000D03*
G04 #@! TD*
G04 #@! TO.C,SW30*
X255070000Y-107430000D03*
X248720000Y-109970000D03*
D19*
X252530000Y-112510000D03*
G04 #@! TD*
G04 #@! TO.C,SW31*
X243070000Y-131560000D03*
D18*
X239260000Y-129020000D03*
X245610000Y-126480000D03*
G04 #@! TD*
G04 #@! TO.C,SW32*
X245600000Y-145480000D03*
X239250000Y-148020000D03*
D19*
X243060000Y-150560000D03*
G04 #@! TD*
D18*
G04 #@! TO.C,SW33*
X262210000Y-164530000D03*
X255860000Y-167070000D03*
D19*
X259670000Y-169610000D03*
G04 #@! TD*
G04 #@! TO.C,SW34*
X262120000Y-131560000D03*
D18*
X258310000Y-129020000D03*
X264660000Y-126480000D03*
G04 #@! TD*
G04 #@! TO.C,SW35*
X276610000Y-145520000D03*
X270260000Y-148060000D03*
D19*
X274070000Y-150600000D03*
G04 #@! TD*
M02*
