M48
INCH,TZ
T1C0.1280
T2C0.1575
T3C0.2165
T4C0.3543
%
G90
G05
T1
X65276Y-32091
X65276Y-35098
T2
X43843Y-81299
X50201Y-76823
X50776Y-51909
X50776Y-63126
X50795Y-42559
X58287Y-42551
X58287Y-50035
X58287Y-57512
X58287Y-64996
X61138Y-72496
X65764Y-42555
X65768Y-50035
X65768Y-57512
X65768Y-64996
X72374Y-72496
X73256Y-41567
X73256Y-49051
X73256Y-56528
X73256Y-64012
X80736Y-42551
X80736Y-50031
X80736Y-57516
X80736Y-64996
X81720Y-74264
X88217Y-44327
X88217Y-51807
X88217Y-59283
X88217Y-66764
X94850Y-74260
X95693Y-59276
X95697Y-51795
X99421Y-44295
X102232Y-66776
X103197Y-51795
X107902Y-59291
T3
X55799Y-77693
X68469Y-37768
X72539Y-68260
X80476Y-69614
X92780Y-68744
X92925Y-39457
X99937Y-56047
T4
X53205Y-70232
T0
M30
