G04 #@! TF.GenerationSoftware,KiCad,Pcbnew,5.1.9-73d0e3b20d~88~ubuntu20.04.1*
G04 #@! TF.CreationDate,2021-01-19T00:06:27+03:00*
G04 #@! TF.ProjectId,jeaex-right,6a656165-782d-4726-9967-68742e6b6963,rev?*
G04 #@! TF.SameCoordinates,Original*
G04 #@! TF.FileFunction,Profile,NP*
%FSLAX46Y46*%
G04 Gerber Fmt 4.6, Leading zero omitted, Abs format (unit mm)*
G04 Created by KiCad (PCBNEW 5.1.9-73d0e3b20d~88~ubuntu20.04.1) date 2021-01-19 00:06:27*
%MOMM*%
%LPD*%
G01*
G04 APERTURE LIST*
G04 #@! TA.AperFunction,Profile*
%ADD10C,0.050000*%
G04 #@! TD*
G04 APERTURE END LIST*
D10*
X186926407Y-78120752D02*
G75*
G02*
X189628486Y-75135581I3000001J0D01*
G01*
X198225724Y-74353082D02*
X189628495Y-75135583D01*
X202987748Y-73982202D02*
X198225724Y-74353082D01*
X207852006Y-73646875D02*
X202987748Y-73982202D01*
X212724137Y-73353082D02*
X207852006Y-73646875D01*
X222395280Y-72886377D02*
X212724137Y-73353082D01*
X232090226Y-72560266D02*
X222395280Y-72886377D01*
X241799333Y-72359521D02*
X232090226Y-72560266D01*
X250904191Y-72271051D02*
X241799333Y-72359521D01*
X260001359Y-72265161D02*
X250904191Y-72271051D01*
X270089372Y-72338006D02*
X260001359Y-72265161D01*
X276798234Y-72423059D02*
X270089372Y-72338006D01*
X290169572Y-72651208D02*
X276798234Y-72423059D01*
X186926408Y-78120752D02*
X186926408Y-79019952D01*
X113351168Y-217274400D02*
G75*
G02*
X103097467Y-212493022I-2736161J7517540D01*
G01*
X103097459Y-212493005D02*
X99695268Y-203145624D01*
X104476640Y-192891931D02*
X112258683Y-190059503D01*
X99695274Y-203145610D02*
G75*
G02*
X104476654Y-192891907I7517541J2736162D01*
G01*
X257900468Y-183625482D02*
X257900468Y-198950494D01*
X257900468Y-183625482D02*
G75*
G02*
X260900468Y-180625482I3000000J0D01*
G01*
X266501542Y-180625482D02*
X260900468Y-180625482D01*
X268799675Y-179553845D02*
G75*
G02*
X266501542Y-180625482I-2298133J1928363D01*
G01*
X284348588Y-161023370D02*
X268799699Y-179553857D01*
X285050432Y-159094995D02*
G75*
G02*
X284348565Y-161023358I-3000001J0D01*
G01*
X285050431Y-142600488D02*
X285050431Y-159094995D01*
X282050431Y-139600488D02*
G75*
G02*
X285050431Y-142600488I0J-3000000D01*
G01*
X276100480Y-139600488D02*
X282050431Y-139600488D01*
X276100480Y-139600488D02*
G75*
G02*
X273100480Y-136600488I0J3000000D01*
G01*
X273100480Y-109143915D02*
X273100480Y-136600488D01*
X273100480Y-109143914D02*
G75*
G02*
X273979160Y-107022594I3000000J-1D01*
G01*
X283103105Y-97898645D02*
X273979142Y-107022607D01*
X283103123Y-97898632D02*
G75*
G02*
X285224443Y-97019952I2121320J-2121320D01*
G01*
X290981767Y-97019952D02*
X285224443Y-97019952D01*
X293981767Y-94019952D02*
G75*
G02*
X290981767Y-97019952I-3000000J0D01*
G01*
X293981767Y-75041925D02*
X293981767Y-94019952D01*
X292756325Y-73198000D02*
G75*
G02*
X293981767Y-75041925I-774558J-1843925D01*
G01*
X290169605Y-72651215D02*
G75*
G02*
X292756355Y-73198018I-133151J-7021844D01*
G01*
X186926407Y-79019952D02*
G75*
G02*
X177954546Y-79522391I-4499999J0D01*
G01*
X174576871Y-76883669D02*
G75*
G02*
X177954586Y-79522395I396473J-2973686D01*
G01*
X164407508Y-78364201D02*
G75*
G02*
X174576844Y-76883677I66635843J-422038898D01*
G01*
X161875444Y-81327477D02*
G75*
G02*
X164407570Y-78364187I3000000J-1D01*
G01*
X161875444Y-96300500D02*
X161875444Y-81327478D01*
X161875444Y-96300500D02*
G75*
G02*
X158875444Y-99300500I-3000000J0D01*
G01*
X123154435Y-99300500D02*
X158875444Y-99300500D01*
X120154435Y-102300500D02*
G75*
G02*
X123154435Y-99300500I3000000J0D01*
G01*
X120154435Y-114985620D02*
X120154435Y-102300500D01*
X123154435Y-117985620D02*
G75*
G02*
X120154435Y-114985620I0J3000000D01*
G01*
X123154435Y-117985620D02*
X135954423Y-117985620D01*
X135954423Y-117985620D02*
G75*
G02*
X136954423Y-118985620I0J-1000000D01*
G01*
X136954423Y-120985620D02*
X136954423Y-118985620D01*
X136954423Y-120985620D02*
G75*
G02*
X135954423Y-121985620I-1000000J0D01*
G01*
X135954423Y-121985620D02*
X123154435Y-121985620D01*
X120154435Y-124985620D02*
G75*
G02*
X123154435Y-121985620I3000000J0D01*
G01*
X120154435Y-141112024D02*
X120154435Y-124985620D01*
X123154435Y-144112024D02*
G75*
G02*
X120154435Y-141112024I0J3000000D01*
G01*
X123154435Y-144112024D02*
X135954423Y-144112024D01*
X135954423Y-144112024D02*
G75*
G02*
X136954423Y-145112024I0J-1000000D01*
G01*
X136954423Y-147112024D02*
X136954423Y-145112024D01*
X136954423Y-147112024D02*
G75*
G02*
X135954423Y-148112024I-1000000J0D01*
G01*
X135954423Y-148112024D02*
X123154435Y-148112024D01*
X120154435Y-151112024D02*
G75*
G02*
X123154435Y-148112024I3000000J0D01*
G01*
X120154435Y-178783197D02*
X120154435Y-151112024D01*
X120154435Y-178783197D02*
G75*
G02*
X112258677Y-190059508I-12000000J0D01*
G01*
X140515885Y-207387231D02*
X113351152Y-217274377D01*
X142087899Y-206068170D02*
G75*
G02*
X140515884Y-207387248I-2598076J1500000D01*
G01*
X147929338Y-195950494D02*
X142087907Y-206068170D01*
X147929345Y-195950494D02*
G75*
G02*
X150527421Y-194450494I2598076J-1500000D01*
G01*
X190288957Y-194450494D02*
X150527421Y-194450494D01*
X190288957Y-194450493D02*
G75*
G02*
X192410278Y-195329173I0J-3000001D01*
G01*
X195152970Y-198071802D02*
X192410295Y-195329187D01*
X197274247Y-198950494D02*
G75*
G02*
X195152927Y-198071814I0J3000000D01*
G01*
X197274247Y-198950494D02*
X257900468Y-198950494D01*
M02*
