M48
INCH,TZ
T1C0.0157
T2C0.0354
T3C0.0394
T4C0.0433
T5C0.0591
%
G90
G05
T1
X80484Y-33276
X86933Y-35335
X88787Y-30551
T2
X67776Y-32844
X67776Y-33844
X68776Y-33344
X68776Y-34344
T3
X75650Y-31598
X75650Y-32598
X75650Y-33598
X75650Y-34598
T4
X96016Y-30354
X96016Y-32354
X96016Y-33354
X96016Y-34354
X96016Y-36354
X97016Y-30354
X97016Y-36354
X98016Y-30354
X98016Y-36354
X99016Y-30354
X99016Y-32354
X99016Y-33354
X99016Y-34354
X99016Y-36354
X100016Y-30354
X100016Y-33354
X100016Y-34354
X100016Y-36354
X101016Y-30354
X101016Y-33354
X101016Y-34354
X101016Y-36354
X102016Y-30354
X102016Y-33354
X102016Y-34354
X102016Y-36354
X103016Y-30354
X103016Y-36354
X104016Y-30354
X105016Y-30354
X105016Y-36354
X106016Y-30354
X106016Y-36354
X107016Y-30354
X108016Y-30354
X108016Y-36354
X109016Y-30354
X109016Y-36354
X110016Y-30354
X110016Y-36354
X111016Y-30354
X111016Y-36354
X112016Y-30354
X112016Y-36354
X113016Y-30354
X113016Y-36354
X114016Y-30354
X114016Y-36354
X115016Y-30354
X115016Y-36354
T5
X41622Y-81043
X43417Y-83051
X47979Y-76567
X49295Y-41559
X49774Y-78574
X51776Y-50409
X51776Y-61626
X51795Y-40559
X52776Y-52909
X52776Y-64126
X56787Y-41551
X56787Y-49035
X56787Y-56512
X56787Y-63996
X59287Y-40551
X59287Y-48035
X59287Y-55512
X59287Y-62996
X59638Y-71496
X62138Y-70496
X64264Y-41555
X64268Y-49035
X64268Y-56512
X64268Y-63996
X66764Y-40555
X66768Y-48035
X66768Y-55512
X66768Y-62996
X70874Y-71496
X71756Y-40567
X71756Y-48051
X71756Y-55528
X71756Y-63012
X73374Y-70496
X74256Y-39567
X74256Y-47051
X74256Y-54528
X74256Y-62012
X79236Y-41551
X79236Y-49031
X79236Y-56516
X79236Y-63996
X80220Y-73264
X81736Y-40551
X81736Y-48031
X81736Y-55516
X81736Y-62996
X82720Y-72264
X86717Y-43327
X86717Y-50807
X86717Y-58283
X86717Y-65764
X89217Y-42327
X89217Y-49807
X89217Y-57283
X89217Y-64764
X93350Y-73260
X94193Y-58276
X94197Y-50795
X95850Y-72260
X96693Y-57276
X96697Y-49795
X97921Y-43295
X100421Y-42295
X100732Y-65776
X101697Y-50795
X103232Y-64776
X104197Y-49795
X106402Y-58291
X108902Y-57291
T0
M30
