999
dxfrw 0.6.3
  0
SECTION
  2
HEADER
  9
$ACADVER
  1
AC1021
  9
$DWGCODEPAGE
  3
ANSI_1252
  9
$INSBASE
 10
0
 20
0
 30
0
  9
$EXTMIN
 10
1.56015851349315
 20
-69.79195868722576
 30
0
  9
$EXTMAX
 10
694.962097
 20
491.976929
 30
0
  9
$LIMMIN
 10
0
 20
0
  9
$LIMMAX
 10
420
 20
297
  9
$ORTHOMODE
 70
    0
  9
$REGENMODE
 70
    1
  9
$FILLMODE
 70
    1
  9
$QTEXTMODE
 70
    0
  9
$MIRRTEXT
 70
    1
  9
$LTSCALE
 40
1
  9
$ATTMODE
 70
    1
  9
$TEXTSIZE
 40
2.5
  9
$TRACEWID
 40
1
  9
$TEXTSTYLE
  7
Standard
  9
$CLAYER
  8
0
  9
$CELTYPE
  6
ByLayer
  9
$CECOLOR
 62
  256
  9
$CELTSCALE
 40
1
  9
$DISPSILH
 70
    0
  9
$DIMSCALE
 40
1
  9
$DIMASZ
 40
2.5
  9
$DIMEXO
 40
0.625
  9
$DIMDLI
 40
3.75
  9
$DIMRND
 40
0
  9
$DIMDLE
 40
0
  9
$DIMEXE
 40
1.25
  9
$DIMTP
 40
0
  9
$DIMTM
 40
0
  9
$DIMTXT
 40
2.5
  9
$DIMCEN
 40
2.5
  9
$DIMTSZ
 40
0
  9
$DIMTOL
 70
    0
  9
$DIMLIM
 70
    0
  9
$DIMTIH
 70
    0
  9
$DIMTOH
 70
    0
  9
$DIMSE1
 70
    0
  9
$DIMSE2
 70
    0
  9
$DIMTAD
 70
    1
  9
$DIMZIN
 70
    8
  9
$DIMBLK
  1

  9
$DIMASO
 70
    1
  9
$DIMSHO
 70
    1
  9
$DIMPOST
  1

  9
$DIMAPOST
  1

  9
$DIMALT
 70
    0
  9
$DIMALTD
 70
    3
  9
$DIMALTF
 40
0.03937
  9
$DIMLFAC
 40
1
  9
$DIMTOFL
 70
    1
  9
$DIMTVP
 40
0
  9
$DIMTIX
 70
    0
  9
$DIMSOXD
 70
    0
  9
$DIMSAH
 70
    0
  9
$DIMBLK1
  1

  9
$DIMBLK2
  1

  9
$DIMSTYLE
  2

  9
$DIMCLRD
 70
    0
  9
$DIMCLRE
 70
    0
  9
$DIMCLRT
 70
    0
  9
$DIMTFAC
 40
1
  9
$DIMGAP
 40
0.625
  9
$DIMJUST
 70
    0
  9
$DIMSD1
 70
    0
  9
$DIMSD2
 70
    0
  9
$DIMTOLJ
 70
    0
  9
$DIMTZIN
 70
    8
  9
$DIMALTZ
 70
    0
  9
$DIMALTTZ
 70
    0
  9
$DIMUPT
 70
    0
  9
$DIMDEC
 70
    2
  9
$DIMTDEC
 70
    2
  9
$DIMALTU
 70
    2
  9
$DIMALTTD
 70
    3
  9
$DIMTXSTY
  7
Standard
  9
$DIMAUNIT
 70
    0
  9
$DIMADEC
 70
    0
  9
$DIMALTRND
 40
0
  9
$DIMAZIN
 70
    0
  9
$DIMDSEP
 70
   44
  9
$DIMATFIT
 70
    0
  9
$DIMFRAC
 70
    0
  9
$DIMLDRBLK
  1

  9
$DIMLUNIT
 70
    2
  9
$DIMLWD
 70
   -2
  9
$DIMLWE
 70
   -2
  9
$DIMTMOVE
 70
    0
  9
$DIMFXL
 40
1
  9
$DIMFXLON
 70
    0
  9
$DIMJOGANG
 40
0.7854
  9
$DIMTFILL
 70
    0
  9
$DIMTFILLCLR
 70
    0
  9
$DIMARCSYM
 70
    0
  9
$DIMLTYPE
  6

  9
$DIMLTEX1
  6

  9
$DIMLTEX2
  6

  9
$LUNITS
 70
    2
  9
$LUPREC
 70
    4
  9
$SKETCHINC
 40
1
  9
$FILLETRAD
 40
2.5
  9
$AUNITS
 70
    0
  9
$AUPREC
 70
    0
  9
$MENU
  1
.
  9
$ELEVATION
 40
0
  9
$PELEVATION
 40
0
  9
$THICKNESS
 40
0
  9
$LIMCHECK
 70
    0
  9
$CHAMFERA
 40
2.5
  9
$CHAMFERB
 40
2.5
  9
$CHAMFERC
 40
0
  9
$CHAMFERD
 40
0
  9
$SKPOLY
 70
    0
  9
$USRTIMER
 70
    1
  9
$ANGBASE
 50
0
  9
$ANGDIR
 70
    0
  9
$PDMODE
 70
    0
  9
$PDSIZE
 40
0
  9
$PLINEWID
 40
0
  9
$SPLFRAME
 70
    0
  9
$SPLINETYPE
 70
    6
  9
$SPLINESEGS
 70
    8
  9
$HANDSEED
  5
20000
  9
$SURFTAB1
 70
    6
  9
$SURFTAB2
 70
    6
  9
$SURFTYPE
 70
    6
  9
$SURFU
 70
    6
  9
$SURFV
 70
    6
  9
$UCSBASE
  2

  9
$UCSNAME
  2

  9
$UCSORG
 10
0
 20
0
 30
0
  9
$UCSXDIR
 10
1
 20
0
 30
0
  9
$UCSYDIR
 10
0
 20
1
 30
0
  9
$UCSORTHOREF
  2

  9
$UCSORTHOVIEW
 70
    1
  9
$UCSORGTOP
 10
0
 20
0
 30
0
  9
$UCSORGBOTTOM
 10
0
 20
0
 30
0
  9
$UCSORGLEFT
 10
0
 20
0
 30
0
  9
$UCSORGRIGHT
 10
0
 20
0
 30
0
  9
$UCSORGFRONT
 10
0
 20
0
 30
0
  9
$UCSORGBACK
 10
0
 20
0
 30
0
  9
$PUCSBASE
  2

  9
$PUCSNAME
  2

  9
$PUCSORG
 10
0
 20
0
 30
0
  9
$PUCSXDIR
 10
1
 20
0
 30
0
  9
$PUCSYDIR
 10
0
 20
1
 30
0
  9
$PUCSORTHOREF
  2

  9
$PUCSORTHOVIEW
 70
    0
  9
$PUCSORGTOP
 10
0
 20
0
 30
0
  9
$PUCSORGBOTTOM
 10
0
 20
0
 30
0
  9
$PUCSORGLEFT
 10
0
 20
0
 30
0
  9
$PUCSORGRIGHT
 10
0
 20
0
 30
0
  9
$PUCSORGFRONT
 10
0
 20
0
 30
0
  9
$PUCSORGBACK
 10
0
 20
0
 30
0
  9
$USERI1
 70
    0
  9
$USERI2
 70
    0
  9
$USERI3
 70
    0
  9
$USERI4
 70
    0
  9
$USERI5
 70
    0
  9
$USERR1
 40
0
  9
$USERR2
 40
0
  9
$USERR3
 40
0
  9
$USERR4
 40
0
  9
$USERR5
 40
0
  9
$WORLDVIEW
 70
    1
  9
$SHADEDGE
 70
    3
  9
$SHADEDIF
 70
   70
  9
$TILEMODE
 70
    1
  9
$MAXACTVP
 70
   48
  9
$PINSBASE
 10
0
 20
0
 30
0
  9
$PLIMCHECK
 70
    0
  9
$PEXTMIN
 10
0
 20
0
 30
0
  9
$PEXTMAX
 10
694.962097
 20
491.976929
 30
2
  9
$GRIDMODE
 70
    0
  9
$SNAPSTYLE
 70
    0
  9
$PLIMMIN
 10
0
 20
0
  9
$PLIMMAX
 10
420
 20
297
  9
$UNITMODE
 70
    0
  9
$VISRETAIN
 70
    0
  9
$PLINEGEN
 70
    0
  9
$PSLTSCALE
 70
    1
  9
$TREEDEPTH
 70
 3020
  9
$CMLSTYLE
  2
Standard
  9
$CMLJUST
 70
    0
  9
$CMLSCALE
 40
20
  9
$PROXYGRAPHICS
 70
    1
  9
$MEASUREMENT
 70
    1
  9
$CELWEIGHT
370
   -1
  9
$ENDCAPS
280
    0
  9
$JOINSTYLE
280
    0
  9
$LWDISPLAY
290
    0
  9
$INSUNITS
 70
    0
  9
$HYPERLINKBASE
  1

  9
$STYLESHEET
  1

  9
$XEDIT
290
    1
  9
$CEPSNTYPE
380
    0
  9
$PSTYLEMODE
290
    0
  9
$EXTNAMES
290
    0
  9
$PSVPSCALE
 40
0
  9
$OLESTARTUP
290
    0
  9
$SORTENTS
280
  127
  9
$INDEXCTL
280
    0
  9
$HIDETEXT
280
    1
  9
$XCLIPFRAME
290
    0
  9
$HALOGAP
280
    0
  9
$OBSCOLOR
 70
  257
  9
$OBSLTYPE
280
    0
  9
$INTERSECTIONDISPLAY
280
    0
  9
$INTERSECTIONCOLOR
 70
  257
  9
$DIMASSOC
280
    1
  9
$PROJECTNAME
  1

  9
$CAMERADISPLAY
290
    0
  9
$LENSLENGTH
 40
50
  9
$CAMERAHEIGHT
 40
0
  9
$STEPSPERSEC
 40
2
  9
$STEPSIZE
 40
50
  9
$3DDWFPREC
 40
2
  9
$PSOLWIDTH
 40
5
  9
$PSOLHEIGHT
 40
80
  9
$LOFTANG1
 40
1.570796326794897
  9
$LOFTANG2
 40
1.570796326794897
  9
$LOFTMAG1
 40
0
  9
$LOFTMAG2
 40
0
  9
$LOFTPARAM
 70
    7
  9
$LOFTNORMALS
280
    1
  9
$LATITUDE
 40
1
  9
$LONGITUDE
 40
1
  9
$NORTHDIRECTION
 40
0
  9
$TIMEZONE
 70
-8000
  9
$LIGHTGLYPHDISPLAY
280
    1
  9
$TILEMODELIGHTSYNCH
280
    1
  9
$SOLIDHIST
280
    1
  9
$SHOWHIST
280
    1
  9
$DWFFRAME
280
    2
  9
$DGNFRAME
280
    0
  9
$REALWORLDSCALE
290
    1
  9
$INTERFERECOLOR
 62
    1
  9
$CSHADOW
280
    0
  9
$SHADOWPLANELOCATION
 40
0
  0
ENDSEC
  0
SECTION
  2
CLASSES
  0
ENDSEC
  0
SECTION
  2
TABLES
  0
TABLE
  2
VPORT
  5
8
330
0
100
AcDbSymbolTable
 70
    1
  0
VPORT
  5
31
330
2
100
AcDbSymbolTableRecord
100
AcDbViewportTableRecord
  2
*ACTIVE
 70
    0
 10
0
 20
0
 11
1
 21
1
 12
210.5768639399319
 22
79.48042764920281
 13
0
 23
0
 14
10
 24
10
 15
10
 25
10
 16
0
 26
0
 36
1
 17
0
 27
0
 37
0
 40
379.2028682668305
 41
1.721800433839479
 42
50
 43
0
 44
0
 50
0
 51
0
 71
    0
 72
  100
 73
    1
 74
    3
 75
    0
 76
    0
 77
    0
 78
    0
281
    0
 65
    1
110
0
120
0
130
0
111
1
121
0
131
0
112
0
122
1
132
0
 79
    0
146
0
348
10020
 60
    7
 61
    5
292
1
282
    1
141
0
142
0
 63
  250
421
3358443
  0
ENDTAB
  0
TABLE
  2
LTYPE
  5
5
330
0
100
AcDbSymbolTable
 70
    4
  0
LTYPE
  5
14
330
5
100
AcDbSymbolTableRecord
100
AcDbLinetypeTableRecord
  2
ByBlock
 70
    0
  3

 72
   65
 73
    0
 40
0
  0
LTYPE
  5
15
330
5
100
AcDbSymbolTableRecord
100
AcDbLinetypeTableRecord
  2
ByLayer
 70
    0
  3

 72
   65
 73
    0
 40
0
  0
LTYPE
  5
16
330
5
100
AcDbSymbolTableRecord
100
AcDbLinetypeTableRecord
  2
Continuous
 70
    0
  3
Solid line
 72
   65
 73
    0
 40
0
  0
LTYPE
  5
32
330
5
100
AcDbSymbolTableRecord
100
AcDbLinetypeTableRecord
  2
DOT
 70
    0
  3
Dot . . . . . . . . . . . . . . . . . . . . . .
 72
   65
 73
    2
 40
6.35
 49
0
 74
    0
 49
-6.35
 74
    0
  0
LTYPE
  5
33
330
5
100
AcDbSymbolTableRecord
100
AcDbLinetypeTableRecord
  2
DOTTINY
 70
    0
  3
Dot (.15x) .....................................
 72
   65
 73
    2
 40
0.9525
 49
0
 74
    0
 49
-0.9525
 74
    0
  0
LTYPE
  5
34
330
5
100
AcDbSymbolTableRecord
100
AcDbLinetypeTableRecord
  2
DOT2
 70
    0
  3
Dot (.5x) .....................................
 72
   65
 73
    2
 40
3.175
 49
0
 74
    0
 49
-3.175
 74
    0
  0
LTYPE
  5
35
330
5
100
AcDbSymbolTableRecord
100
AcDbLinetypeTableRecord
  2
DOTX2
 70
    0
  3
Dot (2x) .  .  .  .  .  .  .  .  .  .  .  .  .
 72
   65
 73
    2
 40
12.7
 49
0
 74
    0
 49
-12.7
 74
    0
  0
LTYPE
  5
36
330
5
100
AcDbSymbolTableRecord
100
AcDbLinetypeTableRecord
  2
DASHED
 70
    0
  3
Dashed _ _ _ _ _ _ _ _ _ _ _ _ _ _ _ _ _
 72
   65
 73
    2
 40
19.05
 49
12.7
 74
    0
 49
-6.35
 74
    0
  0
LTYPE
  5
37
330
5
100
AcDbSymbolTableRecord
100
AcDbLinetypeTableRecord
  2
DASHEDTINY
 70
    0
  3
Dashed (.15x) _ _ _ _ _ _ _ _ _ _ _ _ _ _ _ _ _
 72
   65
 73
    2
 40
2.8575
 49
1.905
 74
    0
 49
-0.9525
 74
    0
  0
LTYPE
  5
38
330
5
100
AcDbSymbolTableRecord
100
AcDbLinetypeTableRecord
  2
DASHED2
 70
    0
  3
Dashed (.5x) _ _ _ _ _ _ _ _ _ _ _ _ _ _ _ _ _
 72
   65
 73
    2
 40
9.524999999999999
 49
6.35
 74
    0
 49
-3.175
 74
    0
  0
LTYPE
  5
39
330
5
100
AcDbSymbolTableRecord
100
AcDbLinetypeTableRecord
  2
DASHEDX2
 70
    0
  3
Dashed (2x) ____  ____  ____  ____  ____  ___
 72
   65
 73
    2
 40
38.09999999999999
 49
25.4
 74
    0
 49
-12.7
 74
    0
  0
LTYPE
  5
3A
330
5
100
AcDbSymbolTableRecord
100
AcDbLinetypeTableRecord
  2
DASHDOT
 70
    0
  3
Dash dot __ . __ . __ . __ . __ . __ . __ . __
 72
   65
 73
    4
 40
25.4
 49
12.7
 74
    0
 49
-6.35
 74
    0
 49
0
 74
    0
 49
-6.35
 74
    0
  0
LTYPE
  5
3B
330
5
100
AcDbSymbolTableRecord
100
AcDbLinetypeTableRecord
  2
DASHDOTTINY
 70
    0
  3
Dash dot (.15x) _._._._._._._._._._._._._._._.
 72
   65
 73
    4
 40
3.81
 49
1.905
 74
    0
 49
-0.9525
 74
    0
 49
0
 74
    0
 49
-0.9525
 74
    0
  0
LTYPE
  5
3C
330
5
100
AcDbSymbolTableRecord
100
AcDbLinetypeTableRecord
  2
DASHDOT2
 70
    0
  3
Dash dot (.5x) _._._._._._._._._._._._._._._.
 72
   65
 73
    4
 40
12.7
 49
6.35
 74
    0
 49
-3.175
 74
    0
 49
0
 74
    0
 49
-3.175
 74
    0
  0
LTYPE
  5
3D
330
5
100
AcDbSymbolTableRecord
100
AcDbLinetypeTableRecord
  2
DASHDOTX2
 70
    0
  3
Dash dot (2x) ____  .  ____  .  ____  .  ___
 72
   65
 73
    4
 40
50.8
 49
25.4
 74
    0
 49
-12.7
 74
    0
 49
0
 74
    0
 49
-12.7
 74
    0
  0
LTYPE
  5
3E
330
5
100
AcDbSymbolTableRecord
100
AcDbLinetypeTableRecord
  2
DIVIDE
 70
    0
  3
Divide ____ . . ____ . . ____ . . ____ . . ____
 72
   65
 73
    6
 40
31.75
 49
12.7
 74
    0
 49
-6.35
 74
    0
 49
0
 74
    0
 49
-6.35
 74
    0
 49
0
 74
    0
 49
-6.35
 74
    0
  0
LTYPE
  5
3F
330
5
100
AcDbSymbolTableRecord
100
AcDbLinetypeTableRecord
  2
DIVIDETINY
 70
    0
  3
Divide (.15x) __..__..__..__..__..__..__..__.._
 72
   65
 73
    6
 40
4.7625
 49
1.905
 74
    0
 49
-0.9525
 74
    0
 49
0
 74
    0
 49
-0.9525
 74
    0
 49
0
 74
    0
 49
-0.9525
 74
    0
  0
LTYPE
  5
40
330
5
100
AcDbSymbolTableRecord
100
AcDbLinetypeTableRecord
  2
DIVIDE2
 70
    0
  3
Divide (.5x) __..__..__..__..__..__..__..__.._
 72
   65
 73
    6
 40
15.875
 49
6.35
 74
    0
 49
-3.175
 74
    0
 49
0
 74
    0
 49
-3.175
 74
    0
 49
0
 74
    0
 49
-3.175
 74
    0
  0
LTYPE
  5
41
330
5
100
AcDbSymbolTableRecord
100
AcDbLinetypeTableRecord
  2
DIVIDEX2
 70
    0
  3
Divide (2x) ________  .  .  ________  .  .  _
 72
   65
 73
    6
 40
63.5
 49
25.4
 74
    0
 49
-12.7
 74
    0
 49
0
 74
    0
 49
-12.7
 74
    0
 49
0
 74
    0
 49
-12.7
 74
    0
  0
LTYPE
  5
42
330
5
100
AcDbSymbolTableRecord
100
AcDbLinetypeTableRecord
  2
BORDER
 70
    0
  3
Border __ __ . __ __ . __ __ . __ __ . __ __ .
 72
   65
 73
    6
 40
44.45
 49
12.7
 74
    0
 49
-6.35
 74
    0
 49
12.7
 74
    0
 49
-6.35
 74
    0
 49
0
 74
    0
 49
-6.35
 74
    0
  0
LTYPE
  5
43
330
5
100
AcDbSymbolTableRecord
100
AcDbLinetypeTableRecord
  2
BORDERTINY
 70
    0
  3
Border (.15x) __.__.__.__.__.__.__.__.__.__.__.
 72
   65
 73
    6
 40
6.6675
 49
1.905
 74
    0
 49
-0.9525
 74
    0
 49
1.905
 74
    0
 49
-0.9525
 74
    0
 49
0
 74
    0
 49
-0.9525
 74
    0
  0
LTYPE
  5
44
330
5
100
AcDbSymbolTableRecord
100
AcDbLinetypeTableRecord
  2
BORDER2
 70
    0
  3
Border (.5x) __.__.__.__.__.__.__.__.__.__.__.
 72
   65
 73
    6
 40
22.225
 49
6.35
 74
    0
 49
-3.175
 74
    0
 49
6.35
 74
    0
 49
-3.175
 74
    0
 49
0
 74
    0
 49
-3.175
 74
    0
  0
LTYPE
  5
45
330
5
100
AcDbSymbolTableRecord
100
AcDbLinetypeTableRecord
  2
BORDERX2
 70
    0
  3
Border (2x) ____  ____  .  ____  ____  .  ___
 72
   65
 73
    6
 40
88.89999999999999
 49
25.4
 74
    0
 49
-12.7
 74
    0
 49
25.4
 74
    0
 49
-12.7
 74
    0
 49
0
 74
    0
 49
-12.7
 74
    0
  0
LTYPE
  5
46
330
5
100
AcDbSymbolTableRecord
100
AcDbLinetypeTableRecord
  2
CENTER
 70
    0
  3
Center ____ _ ____ _ ____ _ ____ _ ____ _ ____
 72
   65
 73
    4
 40
50.8
 49
31.75
 74
    0
 49
-6.35
 74
    0
 49
6.35
 74
    0
 49
-6.35
 74
    0
  0
LTYPE
  5
47
330
5
100
AcDbSymbolTableRecord
100
AcDbLinetypeTableRecord
  2
CENTERTINY
 70
    0
  3
Center (.15x) ___ _ ___ _ ___ _ ___ _ ___ _ ___
 72
   65
 73
    4
 40
7.619999999999999
 49
4.7625
 74
    0
 49
-0.9525
 74
    0
 49
0.9525
 74
    0
 49
-0.9525
 74
    0
  0
LTYPE
  5
48
330
5
100
AcDbSymbolTableRecord
100
AcDbLinetypeTableRecord
  2
CENTER2
 70
    0
  3
Center (.5x) ___ _ ___ _ ___ _ ___ _ ___ _ ___
 72
   65
 73
    4
 40
28.575
 49
19.05
 74
    0
 49
-3.175
 74
    0
 49
3.175
 74
    0
 49
-3.175
 74
    0
  0
LTYPE
  5
49
330
5
100
AcDbSymbolTableRecord
100
AcDbLinetypeTableRecord
  2
CENTERX2
 70
    0
  3
Center (2x) ________  __  ________  __  _____
 72
   65
 73
    4
 40
101.6
 49
63.5
 74
    0
 49
-12.7
 74
    0
 49
12.7
 74
    0
 49
-12.7
 74
    0
  0
ENDTAB
  0
TABLE
  2
LAYER
  5
2
330
0
100
AcDbSymbolTable
 70
    1
  0
LAYER
  5
10
330
2
100
AcDbSymbolTableRecord
100
AcDbLayerTableRecord
  2
0
 70
    0
 62
    7
  6
CONTINUOUS
370
   -3
390
F
  0
ENDTAB
  0
TABLE
  2
STYLE
  5
3
330
0
100
AcDbSymbolTable
 70
    3
  0
STYLE
  5
4A
330
2
100
AcDbSymbolTableRecord
100
AcDbTextStyleTableRecord
  2
Standard
 70
    0
 40
0
 41
1
 50
0
 71
    0
 42
1
  3
txt
  4

  0
ENDTAB
  0
TABLE
  2
VIEW
  5
6
330
0
100
AcDbSymbolTable
 70
    0
  0
ENDTAB
  0
TABLE
  2
UCS
  5
7
330
0
100
AcDbSymbolTable
 70
    0
  0
ENDTAB
  0
TABLE
  2
APPID
  5
9
330
0
100
AcDbSymbolTable
 70
    1
  0
APPID
  5
12
330
9
100
AcDbSymbolTableRecord
100
AcDbRegAppTableRecord
  2
ACAD
 70
    0
  0
APPID
  5
4B
330
9
100
AcDbSymbolTableRecord
100
AcDbRegAppTableRecord
  2
LibreCad
 70
    0
  0
ENDTAB
  0
TABLE
  2
DIMSTYLE
  5
A
330
0
100
AcDbSymbolTable
 70
    1
100
AcDbDimStyleTable
 71
    1
  0
DIMSTYLE
105
4C
330
A
100
AcDbSymbolTableRecord
100
AcDbDimStyleTableRecord
  2
Standard
 70
    0
 40
1
 41
2.5
 42
0.625
 43
0.38
 44
1.25
 45
0
 46
0
 47
0
 48
0
 49
1
140
2.5
141
0.09
142
0
143
25.4
144
1
145
0
146
1
147
0.625
148
0
 71
    0
 72
    0
 73
    0
 74
    1
 75
    0
 76
    0
 77
    0
 78
    8
 79
    0
170
    0
171
    2
172
    0
173
    0
174
    0
175
    0
176
    0
177
    0
178
    0
179
    0
271
    2
272
    4
273
    2
274
    2
275
    0
276
    0
277
    2
278
   44
279
    0
280
    0
281
    0
282
    0
283
    1
284
    0
285
    0
286
    0
288
    0
289
    3
340
Standard
341

371
   -2
372
   -2
  0
ENDTAB
  0
TABLE
  2
BLOCK_RECORD
  5
1
330
0
100
AcDbSymbolTable
 70
    2
  0
BLOCK_RECORD
  5
1F
330
1
100
AcDbSymbolTableRecord
100
AcDbBlockTableRecord
  2
*Model_Space
 70
    0
280
    1
281
    0
  0
BLOCK_RECORD
  5
1E
330
1
100
AcDbSymbolTableRecord
100
AcDbBlockTableRecord
  2
*Paper_Space
 70
    0
280
    1
281
    0
  0
ENDTAB
  0
ENDSEC
  0
SECTION
  2
BLOCKS
  0
BLOCK
  5
20
330
1F
100
AcDbEntity
  8
0
100
AcDbBlockBegin
  2
*Model_Space
 70
    0
 10
0
 20
0
 30
0
  3
*Model_Space
  1

  0
ENDBLK
  5
21
330
1F
100
AcDbEntity
  8
0
100
AcDbBlockEnd
  0
BLOCK
  5
1C
330
1B
100
AcDbEntity
  8
0
100
AcDbBlockBegin
  2
*Paper_Space
 70
    0
 10
0
 20
0
 30
0
  3
*Paper_Space
  1

  0
ENDBLK
  5
1D
330
1F
100
AcDbEntity
  8
0
100
AcDbBlockEnd
  0
ENDSEC
  0
SECTION
  2
ENTITIES
  0
ARC
  5
4D
100
AcDbEntity
  8
0
  6
ByLayer
 62
    7
370
    5
100
AcDbCircle
 10
85.22931751349313
 20
-29.04095168722574
 40
5
100
AcDbArc
 50
279.539053
 51
332.270149
  0
LINE
  5
4E
100
AcDbEntity
  8
0
  6
ByLayer
 62
    7
370
    5
100
AcDbLine
 10
182.4727255134932
 20
-41.19405868722578
 11
182.4727255134932
 21
-33.19610368722579
  0
ARC
  5
4F
100
AcDbEntity
  8
0
  6
ByLayer
 62
    7
370
    5
100
AcDbCircle
 10
180.4727255134932
 20
-41.19405868722578
 40
2
100
AcDbArc
 50
321.628284
 51
360
  0
ARC
  5
50
100
AcDbEntity
  8
0
  6
ByLayer
 62
    7
370
    5
100
AcDbCircle
 10
185.3726885134931
 20
-45.07381968722575
 40
4.25
100
AcDbArc
 50
141.628289
 51
38.371716
  0
ARC
  5
51
100
AcDbEntity
  8
0
  6
ByLayer
 62
    7
370
    5
100
AcDbCircle
 10
190.2727135134932
 20
-41.19405868722578
 40
2
100
AcDbArc
 50
179.999995
 51
218.371711
  0
LINE
  5
52
100
AcDbEntity
  8
0
  6
ByLayer
 62
    7
370
    5
100
AcDbLine
 10
188.2727135134932
 20
-33.19610368722579
 11
188.2727135134932
 21
-41.19405868722578
  0
ARC
  5
53
100
AcDbEntity
  8
0
  6
ByLayer
 62
    7
370
    5
100
AcDbCircle
 10
188.7727135134932
 20
-33.19610368722579
 40
0.5
100
AcDbArc
 50
90.00000300000001
 51
179.999995
  0
LINE
  5
54
100
AcDbEntity
  8
0
  6
ByLayer
 62
    7
370
    5
100
AcDbLine
 10
190.4504475134931
 20
-32.69610368722579
 11
188.7727135134932
 21
-32.69610368722579
  0
ARC
  5
55
100
AcDbEntity
  8
0
  6
ByLayer
 62
    7
370
    5
100
AcDbCircle
 10
190.4504475134931
 20
-29.69610368722579
 40
3
100
AcDbArc
 50
269.999997
 51
360
  0
LINE
  5
56
100
AcDbEntity
  8
0
  6
ByLayer
 62
    7
370
    5
100
AcDbLine
 10
193.4504475134931
 20
-28.15508768722577
 11
193.4504475134931
 21
-29.69610368722579
  0
ARC
  5
57
100
AcDbEntity
  8
0
  6
ByLayer
 62
    7
370
    5
100
AcDbCircle
 10
197.6504595134932
 20
-28.15508768722577
 40
4.2
100
AcDbArc
 50
116.387803
 51
180.000005
  0
ARC
  5
58
100
AcDbEntity
  8
0
  6
ByLayer
 62
    7
370
    5
100
AcDbCircle
 10
194.4504475134931
 20
-21.70525868722575
 40
3
100
AcDbArc
 50
296.387798
 51
360
  0
LINE
  5
59
100
AcDbEntity
  8
0
  6
ByLayer
 62
    7
370
    5
100
AcDbLine
 10
197.4504475134931
 20
-21.70525868722575
 11
197.4504475134931
 21
1.262179312774265
  0
ARC
  5
5A
100
AcDbEntity
  8
0
  6
ByLayer
 62
    7
370
    5
100
AcDbCircle
 10
200.4504475134931
 20
1.262179312774265
 40
3
100
AcDbArc
 50
99.594069
 51
180.000005
  0
ARC
  5
5B
100
AcDbEntity
  8
0
  6
ByLayer
 62
    7
370
    5
100
AcDbCircle
 10
199.4504475134931
 20
7.178256312774238
 40
3
100
AcDbArc
 50
279.594071
 51
360
  0
LINE
  5
5C
100
AcDbEntity
  8
0
  6
ByLayer
 62
    7
370
    5
100
AcDbLine
 10
202.4504475134931
 20
7.178256312774238
 11
202.4504475134931
 21
24.17825631277424
  0
ARC
  5
5D
100
AcDbEntity
  8
0
  6
ByLayer
 62
    7
370
    5
100
AcDbCircle
 10
199.4504475134931
 20
24.17825631277424
 40
3
100
AcDbArc
 50
0
 51
90.00000300000001
  0
LINE
  5
5E
100
AcDbEntity
  8
0
  6
ByLayer
 62
    7
370
    5
100
AcDbLine
 10
199.4504475134931
 20
27.17825631277424
 11
183.4504475134931
 21
27.17825631277424
  0
ARC
  5
5F
100
AcDbEntity
  8
0
  6
ByLayer
 62
    7
370
    5
100
AcDbCircle
 10
183.4504475134931
 20
30.17825631277424
 40
3
100
AcDbArc
 50
180.000005
 51
269.999997
  0
LINE
  5
60
100
AcDbEntity
  8
0
  6
ByLayer
 62
    7
370
    5
100
AcDbLine
 10
180.4504475134931
 20
30.17825631277424
 11
180.4504475134931
 21
33.11386331277424
  0
ARC
  5
61
100
AcDbEntity
  8
0
  6
ByLayer
 62
    7
370
    5
100
AcDbCircle
 10
185.4504475134931
 20
33.11386331277424
 40
5
100
AcDbArc
 50
135
 51
180.000005
  0
LINE
  5
62
100
AcDbEntity
  8
0
  6
ByLayer
 62
    7
370
    5
100
AcDbLine
 10
181.9149255134931
 20
36.64938631277425
 11
193.5182575134932
 21
48.25271831277422
  0
ARC
  5
63
100
AcDbEntity
  8
0
  6
ByLayer
 62
    7
370
    5
100
AcDbCircle
 10
186.4472125134931
 20
55.32379431277423
 40
10
100
AcDbArc
 50
314.999999
 51
360
  0
LINE
  5
64
100
AcDbEntity
  8
0
  6
ByLayer
 62
    7
370
    5
100
AcDbLine
 10
196.4472125134931
 20
55.32379431277423
 11
196.4472125134931
 21
56.99713431277422
  0
ARC
  5
65
100
AcDbEntity
  8
0
  6
ByLayer
 62
    7
370
    5
100
AcDbCircle
 10
193.4472125134931
 20
56.99713431277422
 40
3
100
AcDbArc
 50
0
 51
65.375682
  0
ARC
  5
66
100
AcDbEntity
  8
0
  6
ByLayer
 62
    7
370
    5
100
AcDbCircle
 10
196.4472125134931
 20
63.54236131277423
 40
4.2
100
AcDbArc
 50
190.244691
 51
245.375683
  0
ARC
  5
67
100
AcDbEntity
  8
0
  6
ByLayer
 62
    7
370
    5
100
AcDbCircle
 10
189.3620075134932
 20
62.26181331277422
 40
3
100
AcDbArc
 50
10.244697
 51
90.00000300000001
  0
LINE
  5
68
100
AcDbEntity
  8
0
  6
ByLayer
 62
    7
370
    5
100
AcDbLine
 10
148.6754845134932
 20
65.26181331277422
 11
189.3620075134932
 21
65.26181331277422
  0
ARC
  5
69
100
AcDbEntity
  8
0
  6
ByLayer
 62
    7
370
    5
100
AcDbCircle
 10
148.6754845134932
 20
68.26181331277422
 40
3
100
AcDbArc
 50
239.999997
 51
269.999997
  0
LINE
  5
6A
100
AcDbEntity
  8
0
  6
ByLayer
 62
    7
370
    5
100
AcDbLine
 10
142.5055625134931
 20
68.35989631277425
 11
147.1754845134932
 21
65.66372931277425
  0
ARC
  5
6B
100
AcDbEntity
  8
0
  6
ByLayer
 62
    7
370
    5
100
AcDbCircle
 10
141.0055625134931
 20
65.76181331277422
 40
3
100
AcDbArc
 50
60.000002
 51
90.00000300000001
  0
LINE
  5
6C
100
AcDbEntity
  8
0
  6
ByLayer
 62
    7
370
    5
100
AcDbLine
 10
141.0055625134931
 20
68.76181331277422
 11
106.6132895134932
 21
68.76181331277422
  0
ARC
  5
6D
100
AcDbEntity
  8
0
  6
ByLayer
 62
    7
370
    5
100
AcDbCircle
 10
106.6132895134932
 20
71.76181331277422
 40
3
100
AcDbArc
 50
239.999997
 51
269.999997
  0
LINE
  5
6E
100
AcDbEntity
  8
0
  6
ByLayer
 62
    7
370
    5
100
AcDbLine
 10
105.1132895134932
 20
69.16372931277425
 11
98.71137251349319
 21
72.85989631277425
  0
ARC
  5
6F
100
AcDbEntity
  8
0
  6
ByLayer
 62
    7
370
    5
100
AcDbCircle
 10
97.21137251349319
 20
70.26181331277422
 40
3
100
AcDbArc
 50
60.000002
 51
90.00000300000001
  0
LINE
  5
70
100
AcDbEntity
  8
0
  6
ByLayer
 62
    7
370
    5
100
AcDbLine
 10
97.21137251349319
 20
73.26181331277422
 11
78.84229351349313
 21
73.26181331277422
  0
ARC
  5
71
100
AcDbEntity
  8
0
  6
ByLayer
 62
    7
370
    5
100
AcDbCircle
 10
78.84229351349313
 20
70.26181331277422
 40
3
100
AcDbArc
 50
90.00000300000001
 51
149.999997
  0
LINE
  5
72
100
AcDbEntity
  8
0
  6
ByLayer
 62
    7
370
    5
100
AcDbLine
 10
76.24420951349316
 20
71.76181331277422
 11
75.9555135134932
 21
71.26181331277422
  0
ARC
  5
73
100
AcDbEntity
  8
0
  6
ByLayer
 62
    7
370
    5
100
AcDbCircle
 10
73.35749151349319
 20
72.76181331277422
 40
3
100
AcDbArc
 50
269.999997
 51
329.999999
  0
LINE
  5
74
100
AcDbEntity
  8
0
  6
ByLayer
 62
    7
370
    5
100
AcDbLine
 10
25.88123351349316
 20
69.76181331277422
 11
73.35749151349319
 21
69.76181331277422
  0
ARC
  5
75
100
AcDbEntity
  8
0
  6
ByLayer
 62
    7
370
    5
100
AcDbCircle
 10
25.88123351349316
 20
66.76181331277422
 40
3
100
AcDbArc
 50
90.00000300000001
 51
180.000005
  0
LINE
  5
76
100
AcDbEntity
  8
0
  6
ByLayer
 62
    7
370
    5
100
AcDbLine
 10
22.88123351349316
 20
-1.494076687225743
 11
22.88123351349316
 21
66.76181331277422
  0
ARC
  5
77
100
AcDbEntity
  8
0
  6
ByLayer
 62
    7
370
    5
100
AcDbCircle
 10
2.881233513493157
 20
-1.494076687225743
 40
20
100
AcDbArc
 50
353.649103
 51
360
  0
ARC
  5
78
100
AcDbEntity
  8
0
  6
ByLayer
 62
    7
370
    5
100
AcDbCircle
 10
27.72779151349323
 20
-4.25951868722575
 40
5
100
AcDbArc
 50
173.649104
 51
220.432679
  0
ARC
  5
79
100
AcDbEntity
  8
0
  6
ByLayer
 62
    7
370
    5
100
AcDbCircle
 10
20.72504451349323
 20
-10.22622368722574
 40
4.2
100
AcDbArc
 50
270.818848
 51
40.432681
  0
ARC
  5
7A
100
AcDbEntity
  8
0
  6
ByLayer
 62
    7
370
    5
100
AcDbCircle
 10
20.90644151349318
 20
-22.91528068722579
 40
8.490371
100
AcDbArc
 50
90.818853
 51
150.766686
  0
ARC
  5
7B
100
AcDbEntity
  8
0
  6
ByLayer
 62
    7
370
    5
100
AcDbCircle
 10
1.386116513493164
 20
-11.99087268722576
 40
13.878916
100
AcDbArc
 50
309.334265
 51
330.766681
  0
ARC
  5
7C
100
AcDbEntity
  8
0
  6
ByLayer
 62
    7
370
    5
100
AcDbCircle
 10
1.399666513493173
 20
-10.56631168722578
 40
15
100
AcDbArc
 50
290
 51
305.843092
  0
LINE
  5
7D
100
AcDbEntity
  8
0
  6
ByLayer
 62
    7
370
    5
100
AcDbLine
 10
2.876106513493198
 20
-25.99160468722579
 11
6.529976513493182
 21
-24.66170968722577
  0
ARC
  5
7E
100
AcDbEntity
  8
0
  6
ByLayer
 62
    7
370
    5
100
AcDbCircle
 10
3.56015851349315
 20
-27.87096868722574
 40
2
100
AcDbArc
 50
109.999999
 51
200.000005
  0
LINE
  5
7F
100
AcDbEntity
  8
0
  6
ByLayer
 62
    7
370
    5
100
AcDbLine
 10
12.38575051349318
 20
-57.96673268722577
 11
1.680763513493162
 21
-28.55502068722575
  0
ARC
  5
80
100
AcDbEntity
  8
0
  6
ByLayer
 62
    7
370
    5
100
AcDbCircle
 10
14.26514451349317
 20
-57.28268168722576
 40
2
100
AcDbArc
 50
200.000005
 51
290
  0
LINE
  5
81
100
AcDbEntity
  8
0
  6
ByLayer
 62
    7
370
    5
100
AcDbLine
 10
25.56769651349316
 20
-55.29726868722577
 11
14.9491655134932
 21
-59.16207568722575
  0
ARC
  5
82
100
AcDbEntity
  8
0
  6
ByLayer
 62
    7
370
    5
100
AcDbCircle
 10
25.73871651349316
 20
-55.76708668722574
 40
0.5
100
AcDbArc
 50
20.000001
 51
109.999999
  0
LINE
  5
83
100
AcDbEntity
  8
0
  6
ByLayer
 62
    7
370
    5
100
AcDbLine
 10
28.8626185134932
 20
-62.88802868722576
 11
26.20856551349323
 21
-55.59609668722578
  0
ARC
  5
84
100
AcDbEntity
  8
0
  6
ByLayer
 62
    7
370
    5
100
AcDbCircle
 10
26.98322351349316
 20
-63.57207968722577
 40
2
100
AcDbArc
 50
341.628285
 51
20.000001
  0
ARC
  5
85
100
AcDbEntity
  8
0
  6
ByLayer
 62
    7
370
    5
100
AcDbCircle
 10
32.91468151349318
 20
-65.54195868722576
 40
4.25
100
AcDbArc
 50
161.628285
 51
58.371712
  0
ARC
  5
86
100
AcDbEntity
  8
0
  6
ByLayer
 62
    7
370
    5
100
AcDbCircle
 10
36.19220751349314
 20
-60.22027268722576
 40
2
100
AcDbArc
 50
200.000005
 51
238.371721
  0
LINE
  5
87
100
AcDbEntity
  8
0
  6
ByLayer
 62
    7
370
    5
100
AcDbLine
 10
31.59320851349321
 20
-53.43215668722576
 11
34.31281351349321
 21
-60.90432468722577
  0
ARC
  5
88
100
AcDbEntity
  8
0
  6
ByLayer
 62
    7
370
    5
100
AcDbCircle
 10
32.06305751349316
 20
-53.26113668722576
 40
0.5
100
AcDbArc
 50
125.175238
 51
200.000005
  0
ARC
  5
89
100
AcDbEntity
  8
0
  6
ByLayer
 62
    7
370
    5
100
AcDbCircle
 10
28.89460051349317
 20
-48.76546968722579
 40
5
100
AcDbArc
 50
305.175229
 51
319.999998
  0
LINE
  5
8A
100
AcDbEntity
  8
0
  6
ByLayer
 62
    7
370
    5
100
AcDbLine
 10
35.85743051349323
 20
-48.24612168722575
 11
32.72480051349316
 21
-51.97939768722574
  0
ARC
  5
8B
100
AcDbEntity
  8
0
  6
ByLayer
 62
    7
370
    5
100
AcDbCircle
 10
39.68763051349322
 20
-51.46004968722576
 40
5
100
AcDbArc
 50
109.934968
 51
139.999999
  0
ARC
  5
8C
100
AcDbEntity
  8
0
  6
ByLayer
 62
    7
370
    5
100
AcDbCircle
 10
148.6533895134932
 20
-351.4259006872257
 40
324.143977
100
AcDbArc
 50
108.436705
 51
109.963635
  0
ARC
  5
8D
100
AcDbEntity
  8
0
  6
ByLayer
 62
    7
370
    5
100
AcDbCircle
 10
44.56159251349322
 20
-39.17516768722578
 40
5
100
AcDbArc
 50
288.41041
 51
343.28129
  0
ARC
  5
8E
100
AcDbEntity
  8
0
  6
ByLayer
 62
    7
370
    5
100
AcDbCircle
 10
53.37268851349313
 20
-41.82174368722576
 40
4.2
100
AcDbArc
 50
50.439851
 51
163.281287
  0
ARC
  5
8F
100
AcDbEntity
  8
0
  6
ByLayer
 62
    7
370
    5
100
AcDbCircle
 10
59.23206351349313
 20
-34.72897068722574
 40
5
100
AcDbArc
 50
230.439849
 51
285.23608
  0
ARC
  5
90
100
AcDbEntity
  8
0
  6
ByLayer
 62
    7
370
    5
100
AcDbCircle
 10
127.6897665134932
 20
-286.0438506872258
 40
255.471947
100
AcDbArc
 50
102.987382
 51
105.237588
  0
ARC
  5
91
100
AcDbEntity
  8
0
  6
ByLayer
 62
    7
370
    5
100
AcDbCircle
 10
70.38831351349313
 20
-37.59420468722578
 40
0.5
100
AcDbArc
 50
12.218826
 51
102.988516
  0
LINE
  5
92
100
AcDbEntity
  8
0
  6
ByLayer
 62
    7
370
    5
100
AcDbLine
 10
73.31433951349322
 20
-48.74367968722578
 11
70.87696151349314
 21
-37.48836968722577
  0
ARC
  5
93
100
AcDbEntity
  8
0
  6
ByLayer
 62
    7
370
    5
100
AcDbCircle
 10
71.35962751349314
 20
-49.16695868722576
 40
2
100
AcDbArc
 50
333.847112
 51
12.218826
  0
ARC
  5
94
100
AcDbEntity
  8
0
  6
ByLayer
 62
    7
370
    5
100
AcDbCircle
 10
76.96973451349322
 20
-51.92175068722577
 40
4.25
100
AcDbArc
 50
153.847115
 51
50.590542
  0
ARC
  5
95
100
AcDbEntity
  8
0
  6
ByLayer
 62
    7
370
    5
100
AcDbCircle
 10
80.93763051349322
 20
-47.09283168722578
 40
2
100
AcDbArc
 50
192.218821
 51
230.590537
  0
LINE
  5
96
100
AcDbEntity
  8
0
  6
ByLayer
 62
    7
370
    5
100
AcDbLine
 10
76.54517451349318
 20
-36.25899968722575
 11
78.98291851349313
 21
-47.51611068722576
  0
ARC
  5
97
100
AcDbEntity
  8
0
  6
ByLayer
 62
    7
370
    5
100
AcDbCircle
 10
77.03388251349315
 20
-36.15316468722574
 40
0.5
100
AcDbArc
 50
101.487923
 51
192.218821
  0
ARC
  5
98
100
AcDbEntity
  8
0
  6
ByLayer
 62
    7
370
    5
100
AcDbCircle
 10
131.1832965134931
 20
-302.8786896872257
 40
272.666712
100
AcDbArc
 50
99.52607399999999
 51
101.475991
  0
ARC
  5
99
100
AcDbEntity
  8
0
  6
ByLayer
 62
    7
370
    5
100
AcDbCircle
 10
93.37268851349313
 20
-33.32174368722576
 40
4.2
100
AcDbArc
 50
37.696873
 51
152.270147
  0
ARC
  5
9A
100
AcDbEntity
  8
0
  6
ByLayer
 62
    7
370
    5
100
AcDbCircle
 10
100.6522905134932
 20
-27.69610368722579
 40
5
100
AcDbArc
 50
217.696875
 51
269.999997
  0
LINE
  5
9B
100
AcDbEntity
  8
0
  6
ByLayer
 62
    7
370
    5
100
AcDbLine
 10
181.9727255134932
 20
-32.69610368722579
 11
100.6522905134932
 21
-32.69610368722579
  0
ARC
  5
9C
100
AcDbEntity
  8
0
  6
ByLayer
 62
    7
370
    5
100
AcDbCircle
 10
181.9727255134932
 20
-33.19610368722579
 40
0.5
100
AcDbArc
 50
0
 51
90.00000300000001
  0
CIRCLE
  5
9D
100
AcDbEntity
  8
0
  6
ByLayer
 62
    7
370
    5
100
AcDbCircle
 10
72.73975451349315
 20
-32.38818068722577
 40
1.25
  0
CIRCLE
  5
9E
100
AcDbEntity
  8
0
  6
ByLayer
 62
    7
370
    5
100
AcDbCircle
 10
40.37268851349313
 20
-11.82174368722576
 40
1.25
  0
CIRCLE
  5
9F
100
AcDbEntity
  8
0
  6
ByLayer
 62
    7
370
    5
100
AcDbCircle
 10
185.3726885134931
 20
47.17825631277424
 40
1.25
  0
CIRCLE
  5
A0
100
AcDbEntity
  8
0
  6
ByLayer
 62
    7
370
    5
100
AcDbCircle
 10
185.3726885134931
 20
-18.82174368722576
 40
1.25
  0
ARC
  5
A1
100
AcDbEntity
  8
0
  6
ByLayer
 62
    7
370
    5
100
AcDbCircle
 10
171.5272905134932
 20
21.16180731277422
 40
0.5
100
AcDbArc
 50
180.000005
 51
269.999997
  0
LINE
  5
A2
100
AcDbEntity
  8
0
  6
ByLayer
 62
    7
370
    5
100
AcDbLine
 10
171.5272905134932
 20
20.66180731277422
 11
171.6972735134932
 21
20.66180731277422
  0
ARC
  5
A3
100
AcDbEntity
  8
0
  6
ByLayer
 62
    7
370
    5
100
AcDbCircle
 10
171.6972735134932
 20
21.16180731277422
 40
0.5
100
AcDbArc
 50
269.999997
 51
360
  0
LINE
  5
A4
100
AcDbEntity
  8
0
  6
ByLayer
 62
    7
370
    5
100
AcDbLine
 10
172.1972735134932
 20
21.16180731277422
 11
172.1972735134932
 21
23.04181131277426
  0
LINE
  5
A5
100
AcDbEntity
  8
0
  6
ByLayer
 62
    7
370
    5
100
AcDbLine
 10
172.1972735134932
 20
23.04181131277426
 11
186.3572465134931
 21
23.04181131277426
  0
LINE
  5
A6
100
AcDbEntity
  8
0
  6
ByLayer
 62
    7
370
    5
100
AcDbLine
 10
186.3572465134931
 20
23.04181131277426
 11
186.3572465134931
 21
21.16180731277422
  0
ARC
  5
A7
100
AcDbEntity
  8
0
  6
ByLayer
 62
    7
370
    5
100
AcDbCircle
 10
186.8572465134931
 20
21.16180731277422
 40
0.5
100
AcDbArc
 50
179.999995
 51
269.999997
  0
LINE
  5
A8
100
AcDbEntity
  8
0
  6
ByLayer
 62
    7
370
    5
100
AcDbLine
 10
186.8572465134931
 20
20.66180731277422
 11
187.0272905134932
 21
20.66180731277422
  0
ARC
  5
A9
100
AcDbEntity
  8
0
  6
ByLayer
 62
    7
370
    5
100
AcDbCircle
 10
187.0272905134932
 20
21.16180731277422
 40
0.5
100
AcDbArc
 50
269.999997
 51
360
  0
LINE
  5
AA
100
AcDbEntity
  8
0
  6
ByLayer
 62
    7
370
    5
100
AcDbLine
 10
187.5272905134932
 20
21.16180731277422
 11
187.5272905134932
 21
21.36181931277423
  0
ARC
  5
AB
100
AcDbEntity
  8
0
  6
ByLayer
 62
    7
370
    5
100
AcDbCircle
 10
187.8274005134932
 20
21.36169731277425
 40
0.300124
100
AcDbArc
 50
90.023724
 51
179.976277
  0
LINE
  5
AC
100
AcDbEntity
  8
0
  6
ByLayer
 62
    7
370
    5
100
AcDbLine
 10
187.8272785134932
 20
21.66180731277422
 11
194.6272665134932
 21
21.66180731277422
  0
ARC
  5
AD
100
AcDbEntity
  8
0
  6
ByLayer
 62
    7
370
    5
100
AcDbCircle
 10
194.6271445134931
 20
21.36169731277425
 40
0.300124
100
AcDbArc
 50
0.023725
 51
89.976274
  0
LINE
  5
AE
100
AcDbEntity
  8
0
  6
ByLayer
 62
    7
370
    5
100
AcDbLine
 10
194.9272545134932
 20
21.36181931277423
 11
194.9272545134932
 21
18.36181931277423
  0
ARC
  5
AF
100
AcDbEntity
  8
0
  6
ByLayer
 62
    7
370
    5
100
AcDbCircle
 10
195.2273645134932
 20
18.36194131277426
 40
0.300124
100
AcDbArc
 50
180.023723
 51
269.976276
  0
LINE
  5
B0
100
AcDbEntity
  8
0
  6
ByLayer
 62
    7
370
    5
100
AcDbLine
 10
195.2272425134931
 20
18.06183131277425
 11
195.4272545134932
 21
18.06183131277425
  0
ARC
  5
B1
100
AcDbEntity
  8
0
  6
ByLayer
 62
    7
370
    5
100
AcDbCircle
 10
195.4271325134931
 20
17.76169131277425
 40
0.300124
100
AcDbArc
 50
0.023725
 51
89.976274
  0
LINE
  5
B2
100
AcDbEntity
  8
0
  6
ByLayer
 62
    7
370
    5
100
AcDbLine
 10
195.7272425134931
 20
17.76181331277422
 11
195.7272425134931
 21
15.56183131277425
  0
ARC
  5
B3
100
AcDbEntity
  8
0
  6
ByLayer
 62
    7
370
    5
100
AcDbCircle
 10
195.4271325134931
 20
15.56195331277422
 40
0.300124
100
AcDbArc
 50
270.023726
 51
359.976275
  0
LINE
  5
B4
100
AcDbEntity
  8
0
  6
ByLayer
 62
    7
370
    5
100
AcDbLine
 10
195.4272545134932
 20
15.26181331277422
 11
195.2272425134931
 21
15.26181331277422
  0
ARC
  5
B5
100
AcDbEntity
  8
0
  6
ByLayer
 62
    7
370
    5
100
AcDbCircle
 10
195.2273645134932
 20
14.96170331277426
 40
0.300124
100
AcDbArc
 50
90.023724
 51
179.976277
  0
LINE
  5
B6
100
AcDbEntity
  8
0
  6
ByLayer
 62
    7
370
    5
100
AcDbLine
 10
194.9272545134932
 20
14.96182531277424
 11
194.9272545134932
 21
9.261813312774223
  0
ARC
  5
B7
100
AcDbEntity
  8
0
  6
ByLayer
 62
    7
370
    5
100
AcDbCircle
 10
194.6271445134931
 20
9.261935312774256
 40
0.300124
100
AcDbArc
 50
270.023726
 51
359.976275
  0
LINE
  5
B8
100
AcDbEntity
  8
0
  6
ByLayer
 62
    7
370
    5
100
AcDbLine
 10
194.6272665134932
 20
8.961825312774238
 11
187.8272785134932
 21
8.961825312774238
  0
ARC
  5
B9
100
AcDbEntity
  8
0
  6
ByLayer
 62
    7
370
    5
100
AcDbCircle
 10
187.8274005134932
 20
9.261935312774256
 40
0.300124
100
AcDbArc
 50
180.023723
 51
269.976276
  0
LINE
  5
BA
100
AcDbEntity
  8
0
  6
ByLayer
 62
    7
370
    5
100
AcDbLine
 10
187.5272905134932
 20
9.261813312774223
 11
187.5272905134932
 21
9.461825312774238
  0
ARC
  5
BB
100
AcDbEntity
  8
0
  6
ByLayer
 62
    7
370
    5
100
AcDbCircle
 10
187.0272905134932
 20
9.461825312774238
 40
0.5
100
AcDbArc
 50
0
 51
90.00000300000001
  0
LINE
  5
BC
100
AcDbEntity
  8
0
  6
ByLayer
 62
    7
370
    5
100
AcDbLine
 10
187.0272905134932
 20
9.961825312774238
 11
186.8572465134931
 21
9.961825312774238
  0
ARC
  5
BD
100
AcDbEntity
  8
0
  6
ByLayer
 62
    7
370
    5
100
AcDbCircle
 10
186.8572465134931
 20
9.461825312774238
 40
0.5
100
AcDbArc
 50
90.00000300000001
 51
179.999995
  0
LINE
  5
BE
100
AcDbEntity
  8
0
  6
ByLayer
 62
    7
370
    5
100
AcDbLine
 10
186.3572465134931
 20
9.461825312774238
 11
186.3572465134931
 21
8.88180831277424
  0
LINE
  5
BF
100
AcDbEntity
  8
0
  6
ByLayer
 62
    7
370
    5
100
AcDbLine
 10
186.3572465134931
 20
8.88180831277424
 11
172.1972735134932
 21
8.88180831277424
  0
LINE
  5
C0
100
AcDbEntity
  8
0
  6
ByLayer
 62
    7
370
    5
100
AcDbLine
 10
172.1972735134932
 20
8.88180831277424
 11
172.1972735134932
 21
9.461825312774238
  0
ARC
  5
C1
100
AcDbEntity
  8
0
  6
ByLayer
 62
    7
370
    5
100
AcDbCircle
 10
171.6972735134932
 20
9.461825312774238
 40
0.5
100
AcDbArc
 50
360
 51
90.00000300000001
  0
LINE
  5
C2
100
AcDbEntity
  8
0
  6
ByLayer
 62
    7
370
    5
100
AcDbLine
 10
171.6972735134932
 20
9.961825312774238
 11
171.5272905134932
 21
9.961825312774238
  0
ARC
  5
C3
100
AcDbEntity
  8
0
  6
ByLayer
 62
    7
370
    5
100
AcDbCircle
 10
171.5272905134932
 20
9.461825312774238
 40
0.5
100
AcDbArc
 50
90.00000300000001
 51
180.000005
  0
LINE
  5
C4
100
AcDbEntity
  8
0
  6
ByLayer
 62
    7
370
    5
100
AcDbLine
 10
171.0272905134932
 20
9.461825312774238
 11
171.0272905134932
 21
9.261813312774223
  0
ARC
  5
C5
100
AcDbEntity
  8
0
  6
ByLayer
 62
    7
370
    5
100
AcDbCircle
 10
170.7271205134932
 20
9.261935312774256
 40
0.300124
100
AcDbArc
 50
270.023726
 51
359.976275
  0
LINE
  5
C6
100
AcDbEntity
  8
0
  6
ByLayer
 62
    7
370
    5
100
AcDbLine
 10
170.7272425134931
 20
8.961825312774238
 11
163.9272545134932
 21
8.961825312774238
  0
ARC
  5
C7
100
AcDbEntity
  8
0
  6
ByLayer
 62
    7
370
    5
100
AcDbCircle
 10
163.9273765134932
 20
9.261935312774256
 40
0.300124
100
AcDbArc
 50
180.023723
 51
269.976276
  0
LINE
  5
C8
100
AcDbEntity
  8
0
  6
ByLayer
 62
    7
370
    5
100
AcDbLine
 10
163.6272665134932
 20
9.261813312774223
 11
163.6272665134932
 21
14.96182531277424
  0
ARC
  5
C9
100
AcDbEntity
  8
0
  6
ByLayer
 62
    7
370
    5
100
AcDbCircle
 10
163.3271565134932
 20
14.96170331277426
 40
0.300124
100
AcDbArc
 50
0.023725
 51
89.976274
  0
LINE
  5
CA
100
AcDbEntity
  8
0
  6
ByLayer
 62
    7
370
    5
100
AcDbLine
 10
163.3272785134932
 20
15.26181331277422
 11
163.1272665134932
 21
15.26181331277422
  0
ARC
  5
CB
100
AcDbEntity
  8
0
  6
ByLayer
 62
    7
370
    5
100
AcDbCircle
 10
163.1273885134932
 20
15.56195331277422
 40
0.300124
100
AcDbArc
 50
180.023723
 51
269.976276
  0
LINE
  5
CC
100
AcDbEntity
  8
0
  6
ByLayer
 62
    7
370
    5
100
AcDbLine
 10
162.8272785134932
 20
15.56183131277425
 11
162.8272785134932
 21
17.76181331277422
  0
ARC
  5
CD
100
AcDbEntity
  8
0
  6
ByLayer
 62
    7
370
    5
100
AcDbCircle
 10
163.1273885134932
 20
17.76169131277425
 40
0.300124
100
AcDbArc
 50
90.023724
 51
179.976277
  0
LINE
  5
CE
100
AcDbEntity
  8
0
  6
ByLayer
 62
    7
370
    5
100
AcDbLine
 10
163.1272665134932
 20
18.06183131277425
 11
163.3272785134932
 21
18.06183131277425
  0
ARC
  5
CF
100
AcDbEntity
  8
0
  6
ByLayer
 62
    7
370
    5
100
AcDbCircle
 10
163.3271565134932
 20
18.36194131277426
 40
0.300124
100
AcDbArc
 50
270.023726
 51
359.976275
  0
LINE
  5
D0
100
AcDbEntity
  8
0
  6
ByLayer
 62
    7
370
    5
100
AcDbLine
 10
163.6272665134932
 20
18.36181931277423
 11
163.6272665134932
 21
21.36181931277423
  0
ARC
  5
D1
100
AcDbEntity
  8
0
  6
ByLayer
 62
    7
370
    5
100
AcDbCircle
 10
163.9273765134932
 20
21.36169731277425
 40
0.300124
100
AcDbArc
 50
90.023724
 51
179.976277
  0
LINE
  5
D2
100
AcDbEntity
  8
0
  6
ByLayer
 62
    7
370
    5
100
AcDbLine
 10
163.9272545134932
 20
21.66180731277422
 11
170.7272425134931
 21
21.66180731277422
  0
ARC
  5
D3
100
AcDbEntity
  8
0
  6
ByLayer
 62
    7
370
    5
100
AcDbCircle
 10
170.7271205134932
 20
21.36169731277425
 40
0.300124
100
AcDbArc
 50
0.023725
 51
89.976274
  0
LINE
  5
D4
100
AcDbEntity
  8
0
  6
ByLayer
 62
    7
370
    5
100
AcDbLine
 10
171.0272905134932
 20
21.36181931277423
 11
171.0272905134932
 21
21.16180731277422
  0
ARC
  5
D5
100
AcDbEntity
  8
0
  6
ByLayer
 62
    7
370
    5
100
AcDbCircle
 10
157.1367885134932
 20
-9.563168687225755
 40
0.5
100
AcDbArc
 50
90.00000300000001
 51
180.000005
  0
LINE
  5
D6
100
AcDbEntity
  8
0
  6
ByLayer
 62
    7
370
    5
100
AcDbLine
 10
156.6367885134932
 20
-9.563168687225755
 11
156.6367885134932
 21
-9.76318068722577
  0
ARC
  5
D7
100
AcDbEntity
  8
0
  6
ByLayer
 62
    7
370
    5
100
AcDbCircle
 10
156.3366175134931
 20
-9.763058687225737
 40
0.300124
100
AcDbArc
 50
270.023726
 51
359.976275
  0
LINE
  5
D8
100
AcDbEntity
  8
0
  6
ByLayer
 62
    7
370
    5
100
AcDbLine
 10
156.3367395134932
 20
-10.06316868722575
 11
149.5367515134932
 21
-10.06316868722575
  0
ARC
  5
D9
100
AcDbEntity
  8
0
  6
ByLayer
 62
    7
370
    5
100
AcDbCircle
 10
149.5368735134932
 20
-9.763058687225737
 40
0.300124
100
AcDbArc
 50
180.023723
 51
269.976276
  0
LINE
  5
DA
100
AcDbEntity
  8
0
  6
ByLayer
 62
    7
370
    5
100
AcDbLine
 10
149.2367635134932
 20
-9.76318068722577
 11
149.2367635134932
 21
-4.063168687225755
  0
ARC
  5
DB
100
AcDbEntity
  8
0
  6
ByLayer
 62
    7
370
    5
100
AcDbCircle
 10
148.9366535134932
 20
-4.063290687225788
 40
0.300124
100
AcDbArc
 50
0.023725
 51
89.976274
  0
LINE
  5
DC
100
AcDbEntity
  8
0
  6
ByLayer
 62
    7
370
    5
100
AcDbLine
 10
148.9367755134932
 20
-3.76318068722577
 11
148.7367635134932
 21
-3.76318068722577
  0
ARC
  5
DD
100
AcDbEntity
  8
0
  6
ByLayer
 62
    7
370
    5
100
AcDbCircle
 10
148.7368855134931
 20
-3.463040687225771
 40
0.300124
100
AcDbArc
 50
180.023723
 51
269.976276
  0
LINE
  5
DE
100
AcDbEntity
  8
0
  6
ByLayer
 62
    7
370
    5
100
AcDbLine
 10
148.4367755134932
 20
-3.463192687225785
 11
148.4367755134932
 21
-1.26318068722577
  0
ARC
  5
DF
100
AcDbEntity
  8
0
  6
ByLayer
 62
    7
370
    5
100
AcDbCircle
 10
148.7368855134931
 20
-1.263302687225746
 40
0.300124
100
AcDbArc
 50
90.023724
 51
179.976277
  0
LINE
  5
E0
100
AcDbEntity
  8
0
  6
ByLayer
 62
    7
370
    5
100
AcDbLine
 10
148.7367635134932
 20
-0.963192687225785
 11
148.9367755134932
 21
-0.963192687225785
  0
ARC
  5
E1
100
AcDbEntity
  8
0
  6
ByLayer
 62
    7
370
    5
100
AcDbCircle
 10
148.9366535134932
 20
-0.663052687225786
 40
0.300124
100
AcDbArc
 50
270.023726
 51
359.976275
  0
LINE
  5
E2
100
AcDbEntity
  8
0
  6
ByLayer
 62
    7
370
    5
100
AcDbLine
 10
149.2367635134932
 20
-0.6631746872257622
 11
149.2367635134932
 21
2.336825312774238
  0
ARC
  5
E3
100
AcDbEntity
  8
0
  6
ByLayer
 62
    7
370
    5
100
AcDbCircle
 10
149.5368735134932
 20
2.336703312774262
 40
0.300124
100
AcDbArc
 50
90.023724
 51
179.976277
  0
LINE
  5
E4
100
AcDbEntity
  8
0
  6
ByLayer
 62
    7
370
    5
100
AcDbLine
 10
149.5367515134932
 20
2.636813312774223
 11
156.3367395134932
 21
2.636813312774223
  0
ARC
  5
E5
100
AcDbEntity
  8
0
  6
ByLayer
 62
    7
370
    5
100
AcDbCircle
 10
156.3366175134931
 20
2.336703312774262
 40
0.300124
100
AcDbArc
 50
0.023725
 51
89.976274
  0
LINE
  5
E6
100
AcDbEntity
  8
0
  6
ByLayer
 62
    7
370
    5
100
AcDbLine
 10
156.6367885134932
 20
2.336825312774238
 11
156.6367885134932
 21
2.136813312774223
  0
ARC
  5
E7
100
AcDbEntity
  8
0
  6
ByLayer
 62
    7
370
    5
100
AcDbCircle
 10
157.1367885134932
 20
2.136813312774223
 40
0.5
100
AcDbArc
 50
180.000005
 51
269.999997
  0
LINE
  5
E8
100
AcDbEntity
  8
0
  6
ByLayer
 62
    7
370
    5
100
AcDbLine
 10
157.1367885134932
 20
1.636813312774223
 11
157.3067705134931
 21
1.636813312774223
  0
ARC
  5
E9
100
AcDbEntity
  8
0
  6
ByLayer
 62
    7
370
    5
100
AcDbCircle
 10
157.3067705134931
 20
2.136813312774223
 40
0.5
100
AcDbArc
 50
269.999997
 51
360
  0
LINE
  5
EA
100
AcDbEntity
  8
0
  6
ByLayer
 62
    7
370
    5
100
AcDbLine
 10
157.8067705134931
 20
2.136813312774223
 11
157.8067705134931
 21
4.016818312774262
  0
LINE
  5
EB
100
AcDbEntity
  8
0
  6
ByLayer
 62
    7
370
    5
100
AcDbLine
 10
157.8067705134931
 20
4.016818312774262
 11
171.9667445134932
 21
4.016818312774262
  0
LINE
  5
EC
100
AcDbEntity
  8
0
  6
ByLayer
 62
    7
370
    5
100
AcDbLine
 10
171.9667445134932
 20
4.016818312774262
 11
171.9667445134932
 21
2.136813312774223
  0
ARC
  5
ED
100
AcDbEntity
  8
0
  6
ByLayer
 62
    7
370
    5
100
AcDbCircle
 10
172.4667445134932
 20
2.136813312774223
 40
0.5
100
AcDbArc
 50
179.999995
 51
269.999997
  0
LINE
  5
EE
100
AcDbEntity
  8
0
  6
ByLayer
 62
    7
370
    5
100
AcDbLine
 10
172.4667445134932
 20
1.636813312774223
 11
172.6367885134932
 21
1.636813312774223
  0
ARC
  5
EF
100
AcDbEntity
  8
0
  6
ByLayer
 62
    7
370
    5
100
AcDbCircle
 10
172.6367885134932
 20
2.136813312774223
 40
0.5
100
AcDbArc
 50
269.999997
 51
360
  0
LINE
  5
F0
100
AcDbEntity
  8
0
  6
ByLayer
 62
    7
370
    5
100
AcDbLine
 10
173.1367885134932
 20
2.136813312774223
 11
173.1367885134932
 21
2.336825312774238
  0
ARC
  5
F1
100
AcDbEntity
  8
0
  6
ByLayer
 62
    7
370
    5
100
AcDbCircle
 10
173.4368975134931
 20
2.336703312774262
 40
0.300124
100
AcDbArc
 50
90.023724
 51
179.976277
  0
LINE
  5
F2
100
AcDbEntity
  8
0
  6
ByLayer
 62
    7
370
    5
100
AcDbLine
 10
173.4367755134932
 20
2.636813312774223
 11
180.2367635134932
 21
2.636813312774223
  0
ARC
  5
F3
100
AcDbEntity
  8
0
  6
ByLayer
 62
    7
370
    5
100
AcDbCircle
 10
180.2366415134932
 20
2.336703312774262
 40
0.300124
100
AcDbArc
 50
0.023725
 51
89.976274
  0
LINE
  5
F4
100
AcDbEntity
  8
0
  6
ByLayer
 62
    7
370
    5
100
AcDbLine
 10
180.5367515134932
 20
2.336825312774238
 11
180.5367515134932
 21
-0.6631746872257622
  0
ARC
  5
F5
100
AcDbEntity
  8
0
  6
ByLayer
 62
    7
370
    5
100
AcDbCircle
 10
180.8368615134932
 20
-0.663052687225786
 40
0.300124
100
AcDbArc
 50
180.023723
 51
269.976276
  0
LINE
  5
F6
100
AcDbEntity
  8
0
  6
ByLayer
 62
    7
370
    5
100
AcDbLine
 10
180.8367395134932
 20
-0.963192687225785
 11
181.0367515134932
 21
-0.963192687225785
  0
ARC
  5
F7
100
AcDbEntity
  8
0
  6
ByLayer
 62
    7
370
    5
100
AcDbCircle
 10
181.0366295134932
 20
-1.263302687225746
 40
0.300124
100
AcDbArc
 50
0.023725
 51
89.976274
  0
LINE
  5
F8
100
AcDbEntity
  8
0
  6
ByLayer
 62
    7
370
    5
100
AcDbLine
 10
181.3367395134932
 20
-1.26318068722577
 11
181.3367395134932
 21
-3.463192687225785
  0
ARC
  5
F9
100
AcDbEntity
  8
0
  6
ByLayer
 62
    7
370
    5
100
AcDbCircle
 10
181.0366295134932
 20
-3.463040687225771
 40
0.300124
100
AcDbArc
 50
270.023726
 51
359.976275
  0
LINE
  5
FA
100
AcDbEntity
  8
0
  6
ByLayer
 62
    7
370
    5
100
AcDbLine
 10
181.0367515134932
 20
-3.76318068722577
 11
180.8367395134932
 21
-3.76318068722577
  0
ARC
  5
FB
100
AcDbEntity
  8
0
  6
ByLayer
 62
    7
370
    5
100
AcDbCircle
 10
180.8368615134932
 20
-4.063290687225788
 40
0.300124
100
AcDbArc
 50
90.023724
 51
179.976277
  0
LINE
  5
FC
100
AcDbEntity
  8
0
  6
ByLayer
 62
    7
370
    5
100
AcDbLine
 10
180.5367515134932
 20
-4.063168687225755
 11
180.5367515134932
 21
-9.76318068722577
  0
ARC
  5
FD
100
AcDbEntity
  8
0
  6
ByLayer
 62
    7
370
    5
100
AcDbCircle
 10
180.2366415134932
 20
-9.763058687225737
 40
0.300124
100
AcDbArc
 50
270.023726
 51
359.976275
  0
LINE
  5
FE
100
AcDbEntity
  8
0
  6
ByLayer
 62
    7
370
    5
100
AcDbLine
 10
180.2367635134932
 20
-10.06316868722575
 11
173.4367755134932
 21
-10.06316868722575
  0
ARC
  5
FF
100
AcDbEntity
  8
0
  6
ByLayer
 62
    7
370
    5
100
AcDbCircle
 10
173.4368975134931
 20
-9.763058687225737
 40
0.300124
100
AcDbArc
 50
180.023723
 51
269.976276
  0
LINE
  5
100
100
AcDbEntity
  8
0
  6
ByLayer
 62
    7
370
    5
100
AcDbLine
 10
173.1367885134932
 20
-9.76318068722577
 11
173.1367885134932
 21
-9.563168687225755
  0
ARC
  5
101
100
AcDbEntity
  8
0
  6
ByLayer
 62
    7
370
    5
100
AcDbCircle
 10
172.6367885134932
 20
-9.563168687225755
 40
0.5
100
AcDbArc
 50
360
 51
90.00000300000001
  0
LINE
  5
102
100
AcDbEntity
  8
0
  6
ByLayer
 62
    7
370
    5
100
AcDbLine
 10
172.6367885134932
 20
-9.063168687225755
 11
172.4667445134932
 21
-9.063168687225755
  0
ARC
  5
103
100
AcDbEntity
  8
0
  6
ByLayer
 62
    7
370
    5
100
AcDbCircle
 10
172.4667445134932
 20
-9.563168687225755
 40
0.5
100
AcDbArc
 50
90.00000300000001
 51
179.999995
  0
LINE
  5
104
100
AcDbEntity
  8
0
  6
ByLayer
 62
    7
370
    5
100
AcDbLine
 10
171.9667445134932
 20
-9.563168687225755
 11
171.9667445134932
 21
-10.14318568722575
  0
LINE
  5
105
100
AcDbEntity
  8
0
  6
ByLayer
 62
    7
370
    5
100
AcDbLine
 10
171.9667445134932
 20
-10.14318568722575
 11
157.8067705134931
 21
-10.14318568722575
  0
LINE
  5
106
100
AcDbEntity
  8
0
  6
ByLayer
 62
    7
370
    5
100
AcDbLine
 10
157.8067705134931
 20
-10.14318568722575
 11
157.8067705134931
 21
-9.563168687225755
  0
ARC
  5
107
100
AcDbEntity
  8
0
  6
ByLayer
 62
    7
370
    5
100
AcDbCircle
 10
157.3067705134931
 20
-9.563168687225755
 40
0.5
100
AcDbArc
 50
360
 51
90.00000300000001
  0
LINE
  5
108
100
AcDbEntity
  8
0
  6
ByLayer
 62
    7
370
    5
100
AcDbLine
 10
157.3067705134931
 20
-9.063168687225755
 11
157.1367885134932
 21
-9.063168687225755
  0
LINE
  5
109
100
AcDbEntity
  8
0
  6
ByLayer
 62
    7
370
    5
100
AcDbLine
 10
27.18122151349314
 20
41.70028931277426
 11
41.18122151349314
 21
41.70028931277426
  0
LINE
  5
10A
100
AcDbEntity
  8
0
  6
ByLayer
 62
    7
370
    5
100
AcDbLine
 10
41.18122151349314
 20
41.70028931277426
 11
41.18122151349314
 21
27.70028931277426
  0
LINE
  5
10B
100
AcDbEntity
  8
0
  6
ByLayer
 62
    7
370
    5
100
AcDbLine
 10
41.18122151349314
 20
27.70028931277426
 11
27.18122151349314
 21
27.70028931277426
  0
LINE
  5
10C
100
AcDbEntity
  8
0
  6
ByLayer
 62
    7
370
    5
100
AcDbLine
 10
27.18122151349314
 20
27.70028931277426
 11
27.18122151349314
 21
41.70028931277426
  0
LINE
  5
10D
100
AcDbEntity
  8
0
  6
ByLayer
 62
    7
370
    5
100
AcDbLine
 10
105.7898645134932
 20
-29.08819268722578
 11
105.7898645134932
 21
-15.08819268722578
  0
LINE
  5
10E
100
AcDbEntity
  8
0
  6
ByLayer
 62
    7
370
    5
100
AcDbLine
 10
105.7898645134932
 20
-15.08819268722578
 11
119.7898645134932
 21
-15.08819268722578
  0
LINE
  5
10F
100
AcDbEntity
  8
0
  6
ByLayer
 62
    7
370
    5
100
AcDbLine
 10
119.7898645134932
 20
-15.08819268722578
 11
119.7898645134932
 21
-29.08819268722578
  0
LINE
  5
110
100
AcDbEntity
  8
0
  6
ByLayer
 62
    7
370
    5
100
AcDbLine
 10
119.7898645134932
 20
-29.08819268722578
 11
105.7898645134932
 21
-29.08819268722578
  0
ARC
  5
111
100
AcDbEntity
  8
0
  6
ByLayer
 62
    7
370
    5
100
AcDbCircle
 10
153.7072835134932
 20
-28.56316868722575
 40
0.5
100
AcDbArc
 50
90.00000300000001
 51
179.999995
  0
LINE
  5
112
100
AcDbEntity
  8
0
  6
ByLayer
 62
    7
370
    5
100
AcDbLine
 10
153.2072835134932
 20
-28.56316868722575
 11
153.2072835134932
 21
-29.14318568722575
  0
LINE
  5
113
100
AcDbEntity
  8
0
  6
ByLayer
 62
    7
370
    5
100
AcDbLine
 10
153.2072835134932
 20
-29.14318568722575
 11
139.0472495134932
 21
-29.14318568722575
  0
LINE
  5
114
100
AcDbEntity
  8
0
  6
ByLayer
 62
    7
370
    5
100
AcDbLine
 10
139.0472495134932
 20
-29.14318568722575
 11
139.0472495134932
 21
-28.56316868722575
  0
ARC
  5
115
100
AcDbEntity
  8
0
  6
ByLayer
 62
    7
370
    5
100
AcDbCircle
 10
138.5472495134932
 20
-28.56316868722575
 40
0.5
100
AcDbArc
 50
360
 51
90.00000300000001
  0
LINE
  5
116
100
AcDbEntity
  8
0
  6
ByLayer
 62
    7
370
    5
100
AcDbLine
 10
138.5472495134932
 20
-28.06316868722575
 11
138.3772665134932
 21
-28.06316868722575
  0
ARC
  5
117
100
AcDbEntity
  8
0
  6
ByLayer
 62
    7
370
    5
100
AcDbCircle
 10
138.3772665134932
 20
-28.56316868722575
 40
0.5
100
AcDbArc
 50
90.00000300000001
 51
180.000005
  0
LINE
  5
118
100
AcDbEntity
  8
0
  6
ByLayer
 62
    7
370
    5
100
AcDbLine
 10
137.8772665134932
 20
-28.76318068722577
 11
137.8772665134932
 21
-28.56316868722575
  0
ARC
  5
119
100
AcDbEntity
  8
0
  6
ByLayer
 62
    7
370
    5
100
AcDbCircle
 10
137.5772785134932
 20
-28.76318068722577
 40
0.3
100
AcDbArc
 50
269.999997
 51
0
  0
LINE
  5
11A
100
AcDbEntity
  8
0
  6
ByLayer
 62
    7
370
    5
100
AcDbLine
 10
137.5772785134932
 20
-29.06316868722575
 11
130.7772905134932
 21
-29.06316868722575
  0
ARC
  5
11B
100
AcDbEntity
  8
0
  6
ByLayer
 62
    7
370
    5
100
AcDbCircle
 10
130.7772905134932
 20
-28.76318068722577
 40
0.3
100
AcDbArc
 50
180.000005
 51
269.999997
  0
LINE
  5
11C
100
AcDbEntity
  8
0
  6
ByLayer
 62
    7
370
    5
100
AcDbLine
 10
130.4772425134931
 20
-23.06316868722575
 11
130.4772425134931
 21
-28.76318068722577
  0
ARC
  5
11D
100
AcDbEntity
  8
0
  6
ByLayer
 62
    7
370
    5
100
AcDbCircle
 10
130.1772545134932
 20
-23.06316868722575
 40
0.3
100
AcDbArc
 50
0
 51
90.00000300000001
  0
LINE
  5
11E
100
AcDbEntity
  8
0
  6
ByLayer
 62
    7
370
    5
100
AcDbLine
 10
130.1772545134932
 20
-22.76318068722577
 11
129.9772425134931
 21
-22.76318068722577
  0
ARC
  5
11F
100
AcDbEntity
  8
0
  6
ByLayer
 62
    7
370
    5
100
AcDbCircle
 10
129.9772425134931
 20
-22.46319268722578
 40
0.3
100
AcDbArc
 50
180.000005
 51
269.999997
  0
LINE
  5
120
100
AcDbEntity
  8
0
  6
ByLayer
 62
    7
370
    5
100
AcDbLine
 10
129.6772545134932
 20
-20.26318068722577
 11
129.6772545134932
 21
-22.46319268722578
  0
ARC
  5
121
100
AcDbEntity
  8
0
  6
ByLayer
 62
    7
370
    5
100
AcDbCircle
 10
129.9772425134931
 20
-20.26318068722577
 40
0.3
100
AcDbArc
 50
90.00000300000001
 51
180.000005
  0
LINE
  5
122
100
AcDbEntity
  8
0
  6
ByLayer
 62
    7
370
    5
100
AcDbLine
 10
129.9772425134931
 20
-19.96319268722578
 11
130.1772545134932
 21
-19.96319268722578
  0
ARC
  5
123
100
AcDbEntity
  8
0
  6
ByLayer
 62
    7
370
    5
100
AcDbCircle
 10
130.1772545134932
 20
-19.66317468722576
 40
0.3
100
AcDbArc
 50
269.999997
 51
0
  0
LINE
  5
124
100
AcDbEntity
  8
0
  6
ByLayer
 62
    7
370
    5
100
AcDbLine
 10
130.4772425134931
 20
-16.66317468722576
 11
130.4772425134931
 21
-19.66317468722576
  0
ARC
  5
125
100
AcDbEntity
  8
0
  6
ByLayer
 62
    7
370
    5
100
AcDbCircle
 10
130.7772905134932
 20
-16.66317468722576
 40
0.3
100
AcDbArc
 50
90.00000300000001
 51
180.000005
  0
LINE
  5
126
100
AcDbEntity
  8
0
  6
ByLayer
 62
    7
370
    5
100
AcDbLine
 10
130.7772905134932
 20
-16.36318668722578
 11
137.5772785134932
 21
-16.36318668722578
  0
ARC
  5
127
100
AcDbEntity
  8
0
  6
ByLayer
 62
    7
370
    5
100
AcDbCircle
 10
137.5772785134932
 20
-16.66317468722576
 40
0.3
100
AcDbArc
 50
0
 51
90.00000300000001
  0
LINE
  5
128
100
AcDbEntity
  8
0
  6
ByLayer
 62
    7
370
    5
100
AcDbLine
 10
137.8772665134932
 20
-16.86318668722578
 11
137.8772665134932
 21
-16.66317468722576
  0
ARC
  5
129
100
AcDbEntity
  8
0
  6
ByLayer
 62
    7
370
    5
100
AcDbCircle
 10
138.3772665134932
 20
-16.86318668722578
 40
0.5
100
AcDbArc
 50
180.000005
 51
269.999997
  0
LINE
  5
12A
100
AcDbEntity
  8
0
  6
ByLayer
 62
    7
370
    5
100
AcDbLine
 10
138.3772665134932
 20
-17.36318668722578
 11
138.5472495134932
 21
-17.36318668722578
  0
ARC
  5
12B
100
AcDbEntity
  8
0
  6
ByLayer
 62
    7
370
    5
100
AcDbCircle
 10
138.5472495134932
 20
-16.86318668722578
 40
0.5
100
AcDbArc
 50
269.999997
 51
360
  0
LINE
  5
12C
100
AcDbEntity
  8
0
  6
ByLayer
 62
    7
370
    5
100
AcDbLine
 10
139.0472495134932
 20
-16.86318668722578
 11
139.0472495134932
 21
-14.98318168722574
  0
LINE
  5
12D
100
AcDbEntity
  8
0
  6
ByLayer
 62
    7
370
    5
100
AcDbLine
 10
139.0472495134932
 20
-14.98318168722574
 11
153.2072835134932
 21
-14.98318168722574
  0
LINE
  5
12E
100
AcDbEntity
  8
0
  6
ByLayer
 62
    7
370
    5
100
AcDbLine
 10
153.2072835134932
 20
-14.98318168722574
 11
153.2072835134932
 21
-16.86318668722578
  0
ARC
  5
12F
100
AcDbEntity
  8
0
  6
ByLayer
 62
    7
370
    5
100
AcDbCircle
 10
153.7072835134932
 20
-16.86318668722578
 40
0.5
100
AcDbArc
 50
179.999995
 51
269.999997
  0
LINE
  5
130
100
AcDbEntity
  8
0
  6
ByLayer
 62
    7
370
    5
100
AcDbLine
 10
153.7072835134932
 20
-17.36318668722578
 11
153.8772665134932
 21
-17.36318668722578
  0
ARC
  5
131
100
AcDbEntity
  8
0
  6
ByLayer
 62
    7
370
    5
100
AcDbCircle
 10
153.8772665134932
 20
-16.86318668722578
 40
0.5
100
AcDbArc
 50
269.999997
 51
360
  0
LINE
  5
132
100
AcDbEntity
  8
0
  6
ByLayer
 62
    7
370
    5
100
AcDbLine
 10
154.3772665134932
 20
-16.86318668722578
 11
154.3772665134932
 21
-16.66317468722576
  0
ARC
  5
133
100
AcDbEntity
  8
0
  6
ByLayer
 62
    7
370
    5
100
AcDbCircle
 10
154.6772545134932
 20
-16.66317468722576
 40
0.3
100
AcDbArc
 50
90.00000300000001
 51
180.000005
  0
LINE
  5
134
100
AcDbEntity
  8
0
  6
ByLayer
 62
    7
370
    5
100
AcDbLine
 10
154.6772545134932
 20
-16.36318668722578
 11
161.4772425134931
 21
-16.36318668722578
  0
ARC
  5
135
100
AcDbEntity
  8
0
  6
ByLayer
 62
    7
370
    5
100
AcDbCircle
 10
161.4772425134931
 20
-16.66317468722576
 40
0.3
100
AcDbArc
 50
0
 51
90.00000300000001
  0
LINE
  5
136
100
AcDbEntity
  8
0
  6
ByLayer
 62
    7
370
    5
100
AcDbLine
 10
161.7772905134932
 20
-16.66317468722576
 11
161.7772905134932
 21
-19.66317468722576
  0
ARC
  5
137
100
AcDbEntity
  8
0
  6
ByLayer
 62
    7
370
    5
100
AcDbCircle
 10
162.0772785134932
 20
-19.66317468722576
 40
0.3
100
AcDbArc
 50
180.000005
 51
269.999997
  0
LINE
  5
138
100
AcDbEntity
  8
0
  6
ByLayer
 62
    7
370
    5
100
AcDbLine
 10
162.0772785134932
 20
-19.96319268722578
 11
162.2772905134932
 21
-19.96319268722578
  0
ARC
  5
139
100
AcDbEntity
  8
0
  6
ByLayer
 62
    7
370
    5
100
AcDbCircle
 10
162.2772905134932
 20
-20.26318068722577
 40
0.3
100
AcDbArc
 50
0
 51
90.00000300000001
  0
LINE
  5
13A
100
AcDbEntity
  8
0
  6
ByLayer
 62
    7
370
    5
100
AcDbLine
 10
162.5772785134932
 20
-20.26318068722577
 11
162.5772785134932
 21
-22.46319268722578
  0
ARC
  5
13B
100
AcDbEntity
  8
0
  6
ByLayer
 62
    7
370
    5
100
AcDbCircle
 10
162.2772905134932
 20
-22.46319268722578
 40
0.3
100
AcDbArc
 50
269.999997
 51
0
  0
LINE
  5
13C
100
AcDbEntity
  8
0
  6
ByLayer
 62
    7
370
    5
100
AcDbLine
 10
162.2772905134932
 20
-22.76318068722577
 11
162.0772785134932
 21
-22.76318068722577
  0
ARC
  5
13D
100
AcDbEntity
  8
0
  6
ByLayer
 62
    7
370
    5
100
AcDbCircle
 10
162.0772785134932
 20
-23.06316868722575
 40
0.3
100
AcDbArc
 50
90.00000300000001
 51
180.000005
  0
LINE
  5
13E
100
AcDbEntity
  8
0
  6
ByLayer
 62
    7
370
    5
100
AcDbLine
 10
161.7772905134932
 20
-23.06316868722575
 11
161.7772905134932
 21
-28.76318068722577
  0
ARC
  5
13F
100
AcDbEntity
  8
0
  6
ByLayer
 62
    7
370
    5
100
AcDbCircle
 10
161.4772425134931
 20
-28.76318068722577
 40
0.3
100
AcDbArc
 50
269.999997
 51
0
  0
LINE
  5
140
100
AcDbEntity
  8
0
  6
ByLayer
 62
    7
370
    5
100
AcDbLine
 10
161.4772425134931
 20
-29.06316868722575
 11
154.6772545134932
 21
-29.06316868722575
  0
ARC
  5
141
100
AcDbEntity
  8
0
  6
ByLayer
 62
    7
370
    5
100
AcDbCircle
 10
154.6772545134932
 20
-28.76318068722577
 40
0.3
100
AcDbArc
 50
180.000005
 51
269.999997
  0
LINE
  5
142
100
AcDbEntity
  8
0
  6
ByLayer
 62
    7
370
    5
100
AcDbLine
 10
154.3772665134932
 20
-28.76318068722577
 11
154.3772665134932
 21
-28.56316868722575
  0
ARC
  5
143
100
AcDbEntity
  8
0
  6
ByLayer
 62
    7
370
    5
100
AcDbCircle
 10
153.8772665134932
 20
-28.56316868722575
 40
0.5
100
AcDbArc
 50
360
 51
90.00000300000001
  0
LINE
  5
144
100
AcDbEntity
  8
0
  6
ByLayer
 62
    7
370
    5
100
AcDbLine
 10
153.8772665134932
 20
-28.06316868722575
 11
153.7072835134932
 21
-28.06316868722575
  0
LINE
  5
145
100
AcDbEntity
  8
0
  6
ByLayer
 62
    7
370
    5
100
AcDbLine
 10
41.70807751349321
 20
-32.77190868722579
 11
28.55237651349319
 21
-37.56017768722575
  0
LINE
  5
146
100
AcDbEntity
  8
0
  6
ByLayer
 62
    7
370
    5
100
AcDbLine
 10
28.55237651349319
 20
-37.56017768722575
 11
23.76410751349317
 21
-24.40447768722578
  0
LINE
  5
147
100
AcDbEntity
  8
0
  6
ByLayer
 62
    7
370
    5
100
AcDbLine
 10
23.76410751349317
 20
-24.40447768722578
 11
36.91974651349312
 21
-19.61620868722576
  0
LINE
  5
148
100
AcDbEntity
  8
0
  6
ByLayer
 62
    7
370
    5
100
AcDbLine
 10
36.91974651349312
 20
-19.61620868722576
 11
41.70807751349321
 21
-32.77190868722579
  0
LINE
  5
149
100
AcDbEntity
  8
0
  6
ByLayer
 62
    7
370
    5
100
AcDbLine
 10
67.49597951349313
 20
-10.58819268722578
 11
67.49597951349313
 21
-24.58819268722578
  0
LINE
  5
14A
100
AcDbEntity
  8
0
  6
ByLayer
 62
    7
370
    5
100
AcDbLine
 10
67.49597951349313
 20
-24.58819268722578
 11
53.49597951349313
 21
-24.58819268722578
  0
LINE
  5
14B
100
AcDbEntity
  8
0
  6
ByLayer
 62
    7
370
    5
100
AcDbLine
 10
53.49597951349313
 20
-24.58819268722578
 11
53.49597951349313
 21
-10.58819268722578
  0
LINE
  5
14C
100
AcDbEntity
  8
0
  6
ByLayer
 62
    7
370
    5
100
AcDbLine
 10
53.49597951349313
 20
-10.58819268722578
 11
67.49597951349313
 21
-10.58819268722578
  0
LINE
  5
14D
100
AcDbEntity
  8
0
  6
ByLayer
 62
    7
370
    5
100
AcDbLine
 10
82.0399865134932
 20
-10.58819268722578
 11
96.0399865134932
 21
-10.58819268722578
  0
LINE
  5
14E
100
AcDbEntity
  8
0
  6
ByLayer
 62
    7
370
    5
100
AcDbLine
 10
96.0399865134932
 20
-10.58819268722578
 11
96.0399865134932
 21
-24.58819268722578
  0
LINE
  5
14F
100
AcDbEntity
  8
0
  6
ByLayer
 62
    7
370
    5
100
AcDbLine
 10
96.0399865134932
 20
-24.58819268722578
 11
82.0399865134932
 21
-24.58819268722578
  0
LINE
  5
150
100
AcDbEntity
  8
0
  6
ByLayer
 62
    7
370
    5
100
AcDbLine
 10
82.0399865134932
 20
-24.58819268722578
 11
82.0399865134932
 21
-10.58819268722578
  0
LINE
  5
151
100
AcDbEntity
  8
0
  6
ByLayer
 62
    7
370
    5
100
AcDbLine
 10
41.18122151349314
 20
13.20028931277426
 11
41.18122151349314
 21
-0.7997106872257405
  0
LINE
  5
152
100
AcDbEntity
  8
0
  6
ByLayer
 62
    7
370
    5
100
AcDbLine
 10
41.18122151349314
 20
-0.7997106872257405
 11
27.18122151349314
 21
-0.7997106872257405
  0
LINE
  5
153
100
AcDbEntity
  8
0
  6
ByLayer
 62
    7
370
    5
100
AcDbLine
 10
27.18122151349314
 20
-0.7997106872257405
 11
27.18122151349314
 21
13.20028931277426
  0
LINE
  5
154
100
AcDbEntity
  8
0
  6
ByLayer
 62
    7
370
    5
100
AcDbLine
 10
27.18122151349314
 20
13.20028931277426
 11
41.18122151349314
 21
13.20028931277426
  0
LINE
  5
155
100
AcDbEntity
  8
0
  6
ByLayer
 62
    7
370
    5
100
AcDbLine
 10
12.39188451349315
 20
-48.91976668722577
 11
7.603584513493161
 21
-35.76406568722575
  0
LINE
  5
156
100
AcDbEntity
  8
0
  6
ByLayer
 62
    7
370
    5
100
AcDbLine
 10
7.603584513493161
 20
-35.76406568722575
 11
20.75928551349318
 21
-30.97576668722576
  0
LINE
  5
157
100
AcDbEntity
  8
0
  6
ByLayer
 62
    7
370
    5
100
AcDbLine
 10
20.75928551349318
 20
-30.97576668722576
 11
25.5475545134932
 21
-44.13146668722578
  0
LINE
  5
158
100
AcDbEntity
  8
0
  6
ByLayer
 62
    7
370
    5
100
AcDbLine
 10
25.5475545134932
 20
-44.13146668722578
 11
12.39188451349315
 21
-48.91976668722577
  0
LINE
  5
159
100
AcDbEntity
  8
0
  6
ByLayer
 62
    7
370
    5
100
AcDbLine
 10
65.25849251349314
 20
32.46182531277424
 11
65.25849251349314
 21
46.46182531277424
  0
LINE
  5
15A
100
AcDbEntity
  8
0
  6
ByLayer
 62
    7
370
    5
100
AcDbLine
 10
65.25849251349314
 20
46.46182531277424
 11
79.25849251349314
 21
46.46182531277424
  0
LINE
  5
15B
100
AcDbEntity
  8
0
  6
ByLayer
 62
    7
370
    5
100
AcDbLine
 10
79.25849251349314
 20
46.46182531277424
 11
79.25849251349314
 21
32.46182531277424
  0
LINE
  5
15C
100
AcDbEntity
  8
0
  6
ByLayer
 62
    7
370
    5
100
AcDbLine
 10
79.25849251349314
 20
32.46182531277424
 11
65.25849251349314
 21
32.46182531277424
  0
LINE
  5
15D
100
AcDbEntity
  8
0
  6
ByLayer
 62
    7
370
    5
100
AcDbLine
 10
65.25849251349314
 20
13.46182531277424
 11
65.25849251349314
 21
27.46182531277424
  0
LINE
  5
15E
100
AcDbEntity
  8
0
  6
ByLayer
 62
    7
370
    5
100
AcDbLine
 10
65.25849251349314
 20
27.46182531277424
 11
79.25849251349314
 21
27.46182531277424
  0
LINE
  5
15F
100
AcDbEntity
  8
0
  6
ByLayer
 62
    7
370
    5
100
AcDbLine
 10
79.25849251349314
 20
27.46182531277424
 11
79.25849251349314
 21
13.46182531277424
  0
LINE
  5
160
100
AcDbEntity
  8
0
  6
ByLayer
 62
    7
370
    5
100
AcDbLine
 10
79.25849251349314
 20
13.46182531277424
 11
65.25849251349314
 21
13.46182531277424
  0
LINE
  5
161
100
AcDbEntity
  8
0
  6
ByLayer
 62
    7
370
    5
100
AcDbLine
 10
65.25849251349314
 20
-5.538174687225762
 11
65.25849251349314
 21
8.461825312774238
  0
LINE
  5
162
100
AcDbEntity
  8
0
  6
ByLayer
 62
    7
370
    5
100
AcDbLine
 10
65.25849251349314
 20
8.461825312774238
 11
79.25849251349314
 21
8.461825312774238
  0
LINE
  5
163
100
AcDbEntity
  8
0
  6
ByLayer
 62
    7
370
    5
100
AcDbLine
 10
79.25849251349314
 20
8.461825312774238
 11
79.25849251349314
 21
-5.538174687225762
  0
LINE
  5
164
100
AcDbEntity
  8
0
  6
ByLayer
 62
    7
370
    5
100
AcDbLine
 10
79.25849251349314
 20
-5.538174687225762
 11
65.25849251349314
 21
-5.538174687225762
  0
LINE
  5
165
100
AcDbEntity
  8
0
  6
ByLayer
 62
    7
370
    5
100
AcDbLine
 10
65.25849251349314
 20
51.46182531277424
 11
65.25849251349314
 21
65.46182531277424
  0
LINE
  5
166
100
AcDbEntity
  8
0
  6
ByLayer
 62
    7
370
    5
100
AcDbLine
 10
65.25849251349314
 20
65.46182531277424
 11
79.25849251349314
 21
65.46182531277424
  0
LINE
  5
167
100
AcDbEntity
  8
0
  6
ByLayer
 62
    7
370
    5
100
AcDbLine
 10
79.25849251349314
 20
65.46182531277424
 11
79.25849251349314
 21
51.46182531277424
  0
LINE
  5
168
100
AcDbEntity
  8
0
  6
ByLayer
 62
    7
370
    5
100
AcDbLine
 10
79.25849251349314
 20
51.46182531277424
 11
65.25849251349314
 21
51.46182531277424
  0
LINE
  5
169
100
AcDbEntity
  8
0
  6
ByLayer
 62
    7
370
    5
100
AcDbLine
 10
46.25849251349314
 20
32.46182531277424
 11
46.25849251349314
 21
46.46182531277424
  0
LINE
  5
16A
100
AcDbEntity
  8
0
  6
ByLayer
 62
    7
370
    5
100
AcDbLine
 10
46.25849251349314
 20
46.46182531277424
 11
60.25849251349314
 21
46.46182531277424
  0
LINE
  5
16B
100
AcDbEntity
  8
0
  6
ByLayer
 62
    7
370
    5
100
AcDbLine
 10
60.25849251349314
 20
46.46182531277424
 11
60.25849251349314
 21
32.46182531277424
  0
LINE
  5
16C
100
AcDbEntity
  8
0
  6
ByLayer
 62
    7
370
    5
100
AcDbLine
 10
60.25849251349314
 20
32.46182531277424
 11
46.25849251349314
 21
32.46182531277424
  0
LINE
  5
16D
100
AcDbEntity
  8
0
  6
ByLayer
 62
    7
370
    5
100
AcDbLine
 10
46.25849251349314
 20
13.46182531277424
 11
46.25849251349314
 21
27.46182531277424
  0
LINE
  5
16E
100
AcDbEntity
  8
0
  6
ByLayer
 62
    7
370
    5
100
AcDbLine
 10
46.25849251349314
 20
27.46182531277424
 11
60.25849251349314
 21
27.46182531277424
  0
LINE
  5
16F
100
AcDbEntity
  8
0
  6
ByLayer
 62
    7
370
    5
100
AcDbLine
 10
60.25849251349314
 20
27.46182531277424
 11
60.25849251349314
 21
13.46182531277424
  0
LINE
  5
170
100
AcDbEntity
  8
0
  6
ByLayer
 62
    7
370
    5
100
AcDbLine
 10
60.25849251349314
 20
13.46182531277424
 11
46.25849251349314
 21
13.46182531277424
  0
LINE
  5
171
100
AcDbEntity
  8
0
  6
ByLayer
 62
    7
370
    5
100
AcDbLine
 10
46.25849251349314
 20
-5.538174687225762
 11
46.25849251349314
 21
8.461825312774238
  0
LINE
  5
172
100
AcDbEntity
  8
0
  6
ByLayer
 62
    7
370
    5
100
AcDbLine
 10
46.25849251349314
 20
8.461825312774238
 11
60.25849251349314
 21
8.461825312774238
  0
LINE
  5
173
100
AcDbEntity
  8
0
  6
ByLayer
 62
    7
370
    5
100
AcDbLine
 10
60.25849251349314
 20
8.461825312774238
 11
60.25849251349314
 21
-5.538174687225762
  0
LINE
  5
174
100
AcDbEntity
  8
0
  6
ByLayer
 62
    7
370
    5
100
AcDbLine
 10
60.25849251349314
 20
-5.538174687225762
 11
46.25849251349314
 21
-5.538174687225762
  0
LINE
  5
175
100
AcDbEntity
  8
0
  6
ByLayer
 62
    7
370
    5
100
AcDbLine
 10
46.25849251349314
 20
51.46182531277424
 11
46.25849251349314
 21
65.46182531277424
  0
LINE
  5
176
100
AcDbEntity
  8
0
  6
ByLayer
 62
    7
370
    5
100
AcDbLine
 10
46.25849251349314
 20
65.46182531277424
 11
60.25849251349314
 21
65.46182531277424
  0
LINE
  5
177
100
AcDbEntity
  8
0
  6
ByLayer
 62
    7
370
    5
100
AcDbLine
 10
60.25849251349314
 20
65.46182531277424
 11
60.25849251349314
 21
51.46182531277424
  0
LINE
  5
178
100
AcDbEntity
  8
0
  6
ByLayer
 62
    7
370
    5
100
AcDbLine
 10
60.25849251349314
 20
51.46182531277424
 11
46.25849251349314
 21
51.46182531277424
  0
LINE
  5
179
100
AcDbEntity
  8
0
  6
ByLayer
 62
    7
370
    5
100
AcDbLine
 10
98.28345551349321
 20
53.96182531277424
 11
84.28345551349321
 21
53.96182531277424
  0
LINE
  5
17A
100
AcDbEntity
  8
0
  6
ByLayer
 62
    7
370
    5
100
AcDbLine
 10
84.28345551349321
 20
53.96182531277424
 11
84.28345551349321
 21
67.96182531277424
  0
LINE
  5
17B
100
AcDbEntity
  8
0
  6
ByLayer
 62
    7
370
    5
100
AcDbLine
 10
84.28345551349321
 20
67.96182531277424
 11
98.28345551349321
 21
67.96182531277424
  0
LINE
  5
17C
100
AcDbEntity
  8
0
  6
ByLayer
 62
    7
370
    5
100
AcDbLine
 10
98.28345551349321
 20
67.96182531277424
 11
98.28345551349321
 21
53.96182531277424
  0
LINE
  5
17D
100
AcDbEntity
  8
0
  6
ByLayer
 62
    7
370
    5
100
AcDbLine
 10
84.28345551349321
 20
10.96182531277424
 11
98.28345551349321
 21
10.96182531277424
  0
LINE
  5
17E
100
AcDbEntity
  8
0
  6
ByLayer
 62
    7
370
    5
100
AcDbLine
 10
98.28345551349321
 20
10.96182531277424
 11
98.28345551349321
 21
-3.038174687225762
  0
LINE
  5
17F
100
AcDbEntity
  8
0
  6
ByLayer
 62
    7
370
    5
100
AcDbLine
 10
98.28345551349321
 20
-3.038174687225762
 11
84.28345551349321
 21
-3.038174687225762
  0
LINE
  5
180
100
AcDbEntity
  8
0
  6
ByLayer
 62
    7
370
    5
100
AcDbLine
 10
84.28345551349321
 20
-3.038174687225762
 11
84.28345551349321
 21
10.96182531277424
  0
LINE
  5
181
100
AcDbEntity
  8
0
  6
ByLayer
 62
    7
370
    5
100
AcDbLine
 10
84.28345551349321
 20
29.96182531277424
 11
98.28345551349321
 21
29.96182531277424
  0
LINE
  5
182
100
AcDbEntity
  8
0
  6
ByLayer
 62
    7
370
    5
100
AcDbLine
 10
98.28345551349321
 20
29.96182531277424
 11
98.28345551349321
 21
15.96182531277424
  0
LINE
  5
183
100
AcDbEntity
  8
0
  6
ByLayer
 62
    7
370
    5
100
AcDbLine
 10
98.28345551349321
 20
15.96182531277424
 11
84.28345551349321
 21
15.96182531277424
  0
LINE
  5
184
100
AcDbEntity
  8
0
  6
ByLayer
 62
    7
370
    5
100
AcDbLine
 10
84.28345551349321
 20
15.96182531277424
 11
84.28345551349321
 21
29.96182531277424
  0
LINE
  5
185
100
AcDbEntity
  8
0
  6
ByLayer
 62
    7
370
    5
100
AcDbLine
 10
98.28345551349321
 20
48.96182531277424
 11
98.28345551349321
 21
34.96182531277424
  0
LINE
  5
186
100
AcDbEntity
  8
0
  6
ByLayer
 62
    7
370
    5
100
AcDbLine
 10
98.28345551349321
 20
34.96182531277424
 11
84.28345551349321
 21
34.96182531277424
  0
LINE
  5
187
100
AcDbEntity
  8
0
  6
ByLayer
 62
    7
370
    5
100
AcDbLine
 10
84.28345551349321
 20
34.96182531277424
 11
84.28345551349321
 21
48.96182531277424
  0
LINE
  5
188
100
AcDbEntity
  8
0
  6
ByLayer
 62
    7
370
    5
100
AcDbLine
 10
84.28345551349321
 20
48.96182531277424
 11
98.28345551349321
 21
48.96182531277424
  0
LINE
  5
189
100
AcDbEntity
  8
0
  6
ByLayer
 62
    7
370
    5
100
AcDbLine
 10
103.2834555134932
 20
65.46182531277424
 11
117.2834555134932
 21
65.46182531277424
  0
LINE
  5
18A
100
AcDbEntity
  8
0
  6
ByLayer
 62
    7
370
    5
100
AcDbLine
 10
117.2834555134932
 20
65.46182531277424
 11
117.2834555134932
 21
51.46182531277424
  0
LINE
  5
18B
100
AcDbEntity
  8
0
  6
ByLayer
 62
    7
370
    5
100
AcDbLine
 10
117.2834555134932
 20
51.46182531277424
 11
103.2834555134932
 21
51.46182531277424
  0
LINE
  5
18C
100
AcDbEntity
  8
0
  6
ByLayer
 62
    7
370
    5
100
AcDbLine
 10
103.2834555134932
 20
51.46182531277424
 11
103.2834555134932
 21
65.46182531277424
  0
LINE
  5
18D
100
AcDbEntity
  8
0
  6
ByLayer
 62
    7
370
    5
100
AcDbLine
 10
103.2834555134932
 20
8.461825312774238
 11
117.2834555134932
 21
8.461825312774238
  0
LINE
  5
18E
100
AcDbEntity
  8
0
  6
ByLayer
 62
    7
370
    5
100
AcDbLine
 10
117.2834555134932
 20
8.461825312774238
 11
117.2834555134932
 21
-5.538174687225762
  0
LINE
  5
18F
100
AcDbEntity
  8
0
  6
ByLayer
 62
    7
370
    5
100
AcDbLine
 10
117.2834555134932
 20
-5.538174687225762
 11
103.2834555134932
 21
-5.538174687225762
  0
LINE
  5
190
100
AcDbEntity
  8
0
  6
ByLayer
 62
    7
370
    5
100
AcDbLine
 10
103.2834555134932
 20
-5.538174687225762
 11
103.2834555134932
 21
8.461825312774238
  0
LINE
  5
191
100
AcDbEntity
  8
0
  6
ByLayer
 62
    7
370
    5
100
AcDbLine
 10
103.2834555134932
 20
27.46182531277424
 11
117.2834555134932
 21
27.46182531277424
  0
LINE
  5
192
100
AcDbEntity
  8
0
  6
ByLayer
 62
    7
370
    5
100
AcDbLine
 10
117.2834555134932
 20
27.46182531277424
 11
117.2834555134932
 21
13.46182531277424
  0
LINE
  5
193
100
AcDbEntity
  8
0
  6
ByLayer
 62
    7
370
    5
100
AcDbLine
 10
117.2834555134932
 20
13.46182531277424
 11
103.2834555134932
 21
13.46182531277424
  0
LINE
  5
194
100
AcDbEntity
  8
0
  6
ByLayer
 62
    7
370
    5
100
AcDbLine
 10
103.2834555134932
 20
13.46182531277424
 11
103.2834555134932
 21
27.46182531277424
  0
LINE
  5
195
100
AcDbEntity
  8
0
  6
ByLayer
 62
    7
370
    5
100
AcDbLine
 10
117.2834555134932
 20
32.46182531277424
 11
103.2834555134932
 21
32.46182531277424
  0
LINE
  5
196
100
AcDbEntity
  8
0
  6
ByLayer
 62
    7
370
    5
100
AcDbLine
 10
103.2834555134932
 20
32.46182531277424
 11
103.2834555134932
 21
46.46182531277424
  0
LINE
  5
197
100
AcDbEntity
  8
0
  6
ByLayer
 62
    7
370
    5
100
AcDbLine
 10
103.2834555134932
 20
46.46182531277424
 11
117.2834555134932
 21
46.46182531277424
  0
LINE
  5
198
100
AcDbEntity
  8
0
  6
ByLayer
 62
    7
370
    5
100
AcDbLine
 10
117.2834555134932
 20
46.46182531277424
 11
117.2834555134932
 21
32.46182531277424
  0
LINE
  5
199
100
AcDbEntity
  8
0
  6
ByLayer
 62
    7
370
    5
100
AcDbLine
 10
136.2834555134932
 20
46.96182531277424
 11
122.2834555134932
 21
46.96182531277424
  0
LINE
  5
19A
100
AcDbEntity
  8
0
  6
ByLayer
 62
    7
370
    5
100
AcDbLine
 10
122.2834555134932
 20
46.96182531277424
 11
122.2834555134932
 21
60.96182531277424
  0
LINE
  5
19B
100
AcDbEntity
  8
0
  6
ByLayer
 62
    7
370
    5
100
AcDbLine
 10
122.2834555134932
 20
60.96182531277424
 11
136.2834555134932
 21
60.96182531277424
  0
LINE
  5
19C
100
AcDbEntity
  8
0
  6
ByLayer
 62
    7
370
    5
100
AcDbLine
 10
136.2834555134932
 20
60.96182531277424
 11
136.2834555134932
 21
46.96182531277424
  0
LINE
  5
19D
100
AcDbEntity
  8
0
  6
ByLayer
 62
    7
370
    5
100
AcDbLine
 10
122.2834555134932
 20
3.961825312774238
 11
136.2834555134932
 21
3.961825312774238
  0
LINE
  5
19E
100
AcDbEntity
  8
0
  6
ByLayer
 62
    7
370
    5
100
AcDbLine
 10
136.2834555134932
 20
3.961825312774238
 11
136.2834555134932
 21
-10.03817468722576
  0
LINE
  5
19F
100
AcDbEntity
  8
0
  6
ByLayer
 62
    7
370
    5
100
AcDbLine
 10
136.2834555134932
 20
-10.03817468722576
 11
122.2834555134932
 21
-10.03817468722576
  0
LINE
  5
1A0
100
AcDbEntity
  8
0
  6
ByLayer
 62
    7
370
    5
100
AcDbLine
 10
122.2834555134932
 20
-10.03817468722576
 11
122.2834555134932
 21
3.961825312774238
  0
LINE
  5
1A1
100
AcDbEntity
  8
0
  6
ByLayer
 62
    7
370
    5
100
AcDbLine
 10
136.2834555134932
 20
27.96182531277424
 11
122.2834555134932
 21
27.96182531277424
  0
LINE
  5
1A2
100
AcDbEntity
  8
0
  6
ByLayer
 62
    7
370
    5
100
AcDbLine
 10
122.2834555134932
 20
27.96182531277424
 11
122.2834555134932
 21
41.96182531277424
  0
LINE
  5
1A3
100
AcDbEntity
  8
0
  6
ByLayer
 62
    7
370
    5
100
AcDbLine
 10
122.2834555134932
 20
41.96182531277424
 11
136.2834555134932
 21
41.96182531277424
  0
LINE
  5
1A4
100
AcDbEntity
  8
0
  6
ByLayer
 62
    7
370
    5
100
AcDbLine
 10
136.2834555134932
 20
41.96182531277424
 11
136.2834555134932
 21
27.96182531277424
  0
LINE
  5
1A5
100
AcDbEntity
  8
0
  6
ByLayer
 62
    7
370
    5
100
AcDbLine
 10
136.2834555134932
 20
8.961825312774238
 11
122.2834555134932
 21
8.961825312774238
  0
LINE
  5
1A6
100
AcDbEntity
  8
0
  6
ByLayer
 62
    7
370
    5
100
AcDbLine
 10
122.2834555134932
 20
8.961825312774238
 11
122.2834555134932
 21
22.96182531277424
  0
LINE
  5
1A7
100
AcDbEntity
  8
0
  6
ByLayer
 62
    7
370
    5
100
AcDbLine
 10
122.2834555134932
 20
22.96182531277424
 11
136.2834555134932
 21
22.96182531277424
  0
LINE
  5
1A8
100
AcDbEntity
  8
0
  6
ByLayer
 62
    7
370
    5
100
AcDbLine
 10
136.2834555134932
 20
22.96182531277424
 11
136.2834555134932
 21
8.961825312774238
  0
LINE
  5
1A9
100
AcDbEntity
  8
0
  6
ByLayer
 62
    7
370
    5
100
AcDbLine
 10
27.23346751349322
 20
51.45306631277424
 11
27.23346751349322
 21
65.45306631277424
  0
LINE
  5
1AA
100
AcDbEntity
  8
0
  6
ByLayer
 62
    7
370
    5
100
AcDbLine
 10
27.23346751349322
 20
65.45306631277424
 11
41.23346751349322
 21
65.45306631277424
  0
LINE
  5
1AB
100
AcDbEntity
  8
0
  6
ByLayer
 62
    7
370
    5
100
AcDbLine
 10
41.23346751349322
 20
65.45306631277424
 11
41.23346751349322
 21
51.45306631277424
  0
LINE
  5
1AC
100
AcDbEntity
  8
0
  6
ByLayer
 62
    7
370
    5
100
AcDbLine
 10
41.23346751349322
 20
51.45306631277424
 11
27.23346751349322
 21
51.45306631277424
  0
ARC
  5
1AD
100
AcDbEntity
  8
0
  6
ByLayer
 62
    7
370
    5
100
AcDbCircle
 10
165.4897545134932
 20
47.53683731277425
 40
0.5
100
AcDbArc
 50
360
 51
90.00000300000001
  0
LINE
  5
1AE
100
AcDbEntity
  8
0
  6
ByLayer
 62
    7
370
    5
100
AcDbLine
 10
165.4897545134932
 20
48.03683731277425
 11
165.3197715134932
 21
48.03683731277425
  0
ARC
  5
1AF
100
AcDbEntity
  8
0
  6
ByLayer
 62
    7
370
    5
100
AcDbCircle
 10
165.3197715134932
 20
47.53683731277425
 40
0.5
100
AcDbArc
 50
90.00000300000001
 51
179.999995
  0
LINE
  5
1B0
100
AcDbEntity
  8
0
  6
ByLayer
 62
    7
370
    5
100
AcDbLine
 10
164.8197715134932
 20
47.53683731277425
 11
164.8197715134932
 21
46.95682031277425
  0
LINE
  5
1B1
100
AcDbEntity
  8
0
  6
ByLayer
 62
    7
370
    5
100
AcDbLine
 10
164.8197715134932
 20
46.95682031277425
 11
150.6597375134932
 21
46.95682031277425
  0
LINE
  5
1B2
100
AcDbEntity
  8
0
  6
ByLayer
 62
    7
370
    5
100
AcDbLine
 10
150.6597375134932
 20
46.95682031277425
 11
150.6597375134932
 21
47.53683731277425
  0
ARC
  5
1B3
100
AcDbEntity
  8
0
  6
ByLayer
 62
    7
370
    5
100
AcDbCircle
 10
150.1597375134932
 20
47.53683731277425
 40
0.5
100
AcDbArc
 50
360
 51
90.00000300000001
  0
LINE
  5
1B4
100
AcDbEntity
  8
0
  6
ByLayer
 62
    7
370
    5
100
AcDbLine
 10
150.1597375134932
 20
48.03683731277425
 11
149.9897545134932
 21
48.03683731277425
  0
ARC
  5
1B5
100
AcDbEntity
  8
0
  6
ByLayer
 62
    7
370
    5
100
AcDbCircle
 10
149.9897545134932
 20
47.53683731277425
 40
0.5
100
AcDbArc
 50
90.00000300000001
 51
180.000005
  0
LINE
  5
1B6
100
AcDbEntity
  8
0
  6
ByLayer
 62
    7
370
    5
100
AcDbLine
 10
149.4897545134932
 20
47.53683731277425
 11
149.4897545134932
 21
47.33682531277424
  0
ARC
  5
1B7
100
AcDbEntity
  8
0
  6
ByLayer
 62
    7
370
    5
100
AcDbCircle
 10
149.1896445134931
 20
47.33694731277421
 40
0.300124
100
AcDbArc
 50
270.023726
 51
359.976275
  0
LINE
  5
1B8
100
AcDbEntity
  8
0
  6
ByLayer
 62
    7
370
    5
100
AcDbLine
 10
149.1897665134932
 20
47.03683731277425
 11
142.3897785134932
 21
47.03683731277425
  0
ARC
  5
1B9
100
AcDbEntity
  8
0
  6
ByLayer
 62
    7
370
    5
100
AcDbCircle
 10
142.3899005134932
 20
47.33694731277421
 40
0.300124
100
AcDbArc
 50
180.023723
 51
269.976276
  0
LINE
  5
1BA
100
AcDbEntity
  8
0
  6
ByLayer
 62
    7
370
    5
100
AcDbLine
 10
142.0897905134932
 20
47.33682531277424
 11
142.0897905134932
 21
53.03683731277425
  0
ARC
  5
1BB
100
AcDbEntity
  8
0
  6
ByLayer
 62
    7
370
    5
100
AcDbCircle
 10
141.7896205134932
 20
53.03668531277424
 40
0.300124
100
AcDbArc
 50
0.023725
 51
89.976274
  0
LINE
  5
1BC
100
AcDbEntity
  8
0
  6
ByLayer
 62
    7
370
    5
100
AcDbLine
 10
141.7897425134931
 20
53.33682531277424
 11
141.5897905134932
 21
53.33682531277424
  0
ARC
  5
1BD
100
AcDbEntity
  8
0
  6
ByLayer
 62
    7
370
    5
100
AcDbCircle
 10
141.5899135134932
 20
53.63693531277426
 40
0.300124
100
AcDbArc
 50
180.023723
 51
269.976276
  0
LINE
  5
1BE
100
AcDbEntity
  8
0
  6
ByLayer
 62
    7
370
    5
100
AcDbLine
 10
141.2897425134931
 20
53.63681331277422
 11
141.2897425134931
 21
55.83682531277424
  0
ARC
  5
1BF
100
AcDbEntity
  8
0
  6
ByLayer
 62
    7
370
    5
100
AcDbCircle
 10
141.5899135134932
 20
55.83670331277426
 40
0.300124
100
AcDbArc
 50
90.023724
 51
179.976277
  0
LINE
  5
1C0
100
AcDbEntity
  8
0
  6
ByLayer
 62
    7
370
    5
100
AcDbLine
 10
141.5897905134932
 20
56.13681331277422
 11
141.7897425134931
 21
56.13681331277422
  0
ARC
  5
1C1
100
AcDbEntity
  8
0
  6
ByLayer
 62
    7
370
    5
100
AcDbCircle
 10
141.7896205134932
 20
56.43695331277422
 40
0.300124
100
AcDbArc
 50
270.023726
 51
359.976275
  0
LINE
  5
1C2
100
AcDbEntity
  8
0
  6
ByLayer
 62
    7
370
    5
100
AcDbLine
 10
142.0897905134932
 20
56.43680131277426
 11
142.0897905134932
 21
59.43680131277426
  0
ARC
  5
1C3
100
AcDbEntity
  8
0
  6
ByLayer
 62
    7
370
    5
100
AcDbCircle
 10
142.3899005134932
 20
59.43667831277423
 40
0.300124
100
AcDbArc
 50
90.023724
 51
179.976277
  0
LINE
  5
1C4
100
AcDbEntity
  8
0
  6
ByLayer
 62
    7
370
    5
100
AcDbLine
 10
142.3897785134932
 20
59.73681931277423
 11
149.1897665134932
 21
59.73681931277423
  0
ARC
  5
1C5
100
AcDbEntity
  8
0
  6
ByLayer
 62
    7
370
    5
100
AcDbCircle
 10
149.1896445134931
 20
59.43667831277423
 40
0.300124
100
AcDbArc
 50
0.023725
 51
89.976274
  0
LINE
  5
1C6
100
AcDbEntity
  8
0
  6
ByLayer
 62
    7
370
    5
100
AcDbLine
 10
149.4897545134932
 20
59.43680131277426
 11
149.4897545134932
 21
59.23681931277423
  0
ARC
  5
1C7
100
AcDbEntity
  8
0
  6
ByLayer
 62
    7
370
    5
100
AcDbCircle
 10
149.9897545134932
 20
59.23681931277423
 40
0.5
100
AcDbArc
 50
180.000005
 51
269.999997
  0
LINE
  5
1C8
100
AcDbEntity
  8
0
  6
ByLayer
 62
    7
370
    5
100
AcDbLine
 10
149.9897545134932
 20
58.73681931277423
 11
150.1597375134932
 21
58.73681931277423
  0
ARC
  5
1C9
100
AcDbEntity
  8
0
  6
ByLayer
 62
    7
370
    5
100
AcDbCircle
 10
150.1597375134932
 20
59.23681931277423
 40
0.5
100
AcDbArc
 50
269.999997
 51
360
  0
LINE
  5
1CA
100
AcDbEntity
  8
0
  6
ByLayer
 62
    7
370
    5
100
AcDbLine
 10
150.6597375134932
 20
59.23681931277423
 11
150.6597375134932
 21
61.11682431277421
  0
LINE
  5
1CB
100
AcDbEntity
  8
0
  6
ByLayer
 62
    7
370
    5
100
AcDbLine
 10
150.6597375134932
 20
61.11682431277421
 11
164.8197715134932
 21
61.11682431277421
  0
LINE
  5
1CC
100
AcDbEntity
  8
0
  6
ByLayer
 62
    7
370
    5
100
AcDbLine
 10
164.8197715134932
 20
61.11682431277421
 11
164.8197715134932
 21
59.23681931277423
  0
ARC
  5
1CD
100
AcDbEntity
  8
0
  6
ByLayer
 62
    7
370
    5
100
AcDbCircle
 10
165.3197715134932
 20
59.23681931277423
 40
0.5
100
AcDbArc
 50
179.999995
 51
269.999997
  0
LINE
  5
1CE
100
AcDbEntity
  8
0
  6
ByLayer
 62
    7
370
    5
100
AcDbLine
 10
165.3197715134932
 20
58.73681931277423
 11
165.4897545134932
 21
58.73681931277423
  0
ARC
  5
1CF
100
AcDbEntity
  8
0
  6
ByLayer
 62
    7
370
    5
100
AcDbCircle
 10
165.4897545134932
 20
59.23681931277423
 40
0.5
100
AcDbArc
 50
269.999997
 51
360
  0
LINE
  5
1D0
100
AcDbEntity
  8
0
  6
ByLayer
 62
    7
370
    5
100
AcDbLine
 10
165.9897545134932
 20
59.23681931277423
 11
165.9897545134932
 21
59.43680131277426
  0
ARC
  5
1D1
100
AcDbEntity
  8
0
  6
ByLayer
 62
    7
370
    5
100
AcDbCircle
 10
166.2898645134932
 20
59.43667831277423
 40
0.300124
100
AcDbArc
 50
90.023724
 51
179.976277
  0
LINE
  5
1D2
100
AcDbEntity
  8
0
  6
ByLayer
 62
    7
370
    5
100
AcDbLine
 10
166.2897425134931
 20
59.73681931277423
 11
173.0897905134932
 21
59.73681931277423
  0
ARC
  5
1D3
100
AcDbEntity
  8
0
  6
ByLayer
 62
    7
370
    5
100
AcDbCircle
 10
173.0896685134932
 20
59.43667831277423
 40
0.300124
100
AcDbArc
 50
0.023725
 51
89.976274
  0
LINE
  5
1D4
100
AcDbEntity
  8
0
  6
ByLayer
 62
    7
370
    5
100
AcDbLine
 10
173.3897785134932
 20
59.43680131277426
 11
173.3897785134932
 21
56.43680131277426
  0
ARC
  5
1D5
100
AcDbEntity
  8
0
  6
ByLayer
 62
    7
370
    5
100
AcDbCircle
 10
173.6898885134932
 20
56.43695331277422
 40
0.300124
100
AcDbArc
 50
180.023723
 51
269.976276
  0
LINE
  5
1D6
100
AcDbEntity
  8
0
  6
ByLayer
 62
    7
370
    5
100
AcDbLine
 10
173.6897665134932
 20
56.13681331277422
 11
173.8897785134932
 21
56.13681331277422
  0
ARC
  5
1D7
100
AcDbEntity
  8
0
  6
ByLayer
 62
    7
370
    5
100
AcDbCircle
 10
173.8896565134932
 20
55.83670331277426
 40
0.300124
100
AcDbArc
 50
0.023725
 51
89.976274
  0
LINE
  5
1D8
100
AcDbEntity
  8
0
  6
ByLayer
 62
    7
370
    5
100
AcDbLine
 10
174.1897665134932
 20
55.83682531277424
 11
174.1897665134932
 21
53.63681331277422
  0
ARC
  5
1D9
100
AcDbEntity
  8
0
  6
ByLayer
 62
    7
370
    5
100
AcDbCircle
 10
173.8896565134932
 20
53.63693531277426
 40
0.300124
100
AcDbArc
 50
270.023726
 51
359.976275
  0
LINE
  5
1DA
100
AcDbEntity
  8
0
  6
ByLayer
 62
    7
370
    5
100
AcDbLine
 10
173.8897785134932
 20
53.33682531277424
 11
173.6897665134932
 21
53.33682531277424
  0
ARC
  5
1DB
100
AcDbEntity
  8
0
  6
ByLayer
 62
    7
370
    5
100
AcDbCircle
 10
173.6898885134932
 20
53.03668531277424
 40
0.300124
100
AcDbArc
 50
90.023724
 51
179.976277
  0
LINE
  5
1DC
100
AcDbEntity
  8
0
  6
ByLayer
 62
    7
370
    5
100
AcDbLine
 10
173.3897785134932
 20
53.03683731277425
 11
173.3897785134932
 21
47.33682531277424
  0
ARC
  5
1DD
100
AcDbEntity
  8
0
  6
ByLayer
 62
    7
370
    5
100
AcDbCircle
 10
173.0896685134932
 20
47.33694731277421
 40
0.300124
100
AcDbArc
 50
270.023726
 51
359.976275
  0
LINE
  5
1DE
100
AcDbEntity
  8
0
  6
ByLayer
 62
    7
370
    5
100
AcDbLine
 10
173.0897905134932
 20
47.03683731277425
 11
166.2897425134931
 21
47.03683731277425
  0
ARC
  5
1DF
100
AcDbEntity
  8
0
  6
ByLayer
 62
    7
370
    5
100
AcDbCircle
 10
166.2898645134932
 20
47.33694731277421
 40
0.300124
100
AcDbArc
 50
180.023723
 51
269.976276
  0
LINE
  5
1E0
100
AcDbEntity
  8
0
  6
ByLayer
 62
    7
370
    5
100
AcDbLine
 10
165.9897545134932
 20
47.33682531277424
 11
165.9897545134932
 21
47.53683731277425
  0
LINE
  5
1E1
100
AcDbEntity
  8
0
  6
ByLayer
 62
    7
370
    5
100
AcDbLine
 10
160.3272785134932
 20
41.98681931277423
 11
174.3272785134932
 21
41.98681931277423
  0
LINE
  5
1E2
100
AcDbEntity
  8
0
  6
ByLayer
 62
    7
370
    5
100
AcDbLine
 10
174.3272785134932
 20
41.98681931277423
 11
174.3272785134932
 21
27.98681931277423
  0
LINE
  5
1E3
100
AcDbEntity
  8
0
  6
ByLayer
 62
    7
370
    5
100
AcDbLine
 10
174.3272785134932
 20
27.98681931277423
 11
160.3272785134932
 21
27.98681931277423
  0
LINE
  5
1E4
100
AcDbEntity
  8
0
  6
ByLayer
 62
    7
370
    5
100
AcDbLine
 10
160.3272785134932
 20
27.98681931277423
 11
160.3272785134932
 21
41.98681931277423
  0
LINE
  5
1E5
100
AcDbEntity
  8
0
  6
ByLayer
 62
    7
370
    5
100
AcDbLine
 10
155.2772905134932
 20
27.98681931277423
 11
141.2772905134932
 21
27.98681931277423
  0
LINE
  5
1E6
100
AcDbEntity
  8
0
  6
ByLayer
 62
    7
370
    5
100
AcDbLine
 10
141.2772905134932
 20
27.98681931277423
 11
141.2772905134932
 21
41.98681931277423
  0
LINE
  5
1E7
100
AcDbEntity
  8
0
  6
ByLayer
 62
    7
370
    5
100
AcDbLine
 10
141.2772905134932
 20
41.98681931277423
 11
155.2772905134932
 21
41.98681931277423
  0
LINE
  5
1E8
100
AcDbEntity
  8
0
  6
ByLayer
 62
    7
370
    5
100
AcDbLine
 10
155.2772905134932
 20
41.98681931277423
 11
155.2772905134932
 21
27.98681931277423
  0
LINE
  5
1E9
100
AcDbEntity
  8
0
  6
ByLayer
 62
    7
370
    5
100
AcDbLine
 10
141.2772905134932
 20
22.98681931277423
 11
155.2772905134932
 21
22.98681931277423
  0
LINE
  5
1EA
100
AcDbEntity
  8
0
  6
ByLayer
 62
    7
370
    5
100
AcDbLine
 10
155.2772905134932
 20
22.98681931277423
 11
155.2772905134932
 21
8.98681931277423
  0
LINE
  5
1EB
100
AcDbEntity
  8
0
  6
ByLayer
 62
    7
370
    5
100
AcDbLine
 10
155.2772905134932
 20
8.98681931277423
 11
141.2772905134932
 21
8.98681931277423
  0
LINE
  5
1EC
100
AcDbEntity
  8
0
  6
ByLayer
 62
    7
370
    5
100
AcDbLine
 10
141.2772905134932
 20
8.98681931277423
 11
141.2772905134932
 21
22.98681931277423
  0
ENDSEC
  0
SECTION
  2
OBJECTS
  0
DICTIONARY
  5
C
330
0
100
AcDbDictionary
281
    1
  3
ACAD_GROUP
350
D
  0
DICTIONARY
  5
D
330
C
100
AcDbDictionary
281
    1
  0
ENDSEC
  0
EOF
