G04 #@! TF.GenerationSoftware,KiCad,Pcbnew,5.1.9-73d0e3b20d~88~ubuntu20.04.1*
G04 #@! TF.CreationDate,2021-01-19T00:22:37+03:00*
G04 #@! TF.ProjectId,jeaex-left,6a656165-782d-46c6-9566-742e6b696361,rev?*
G04 #@! TF.SameCoordinates,Original*
G04 #@! TF.FileFunction,Soldermask,Top*
G04 #@! TF.FilePolarity,Negative*
%FSLAX46Y46*%
G04 Gerber Fmt 4.6, Leading zero omitted, Abs format (unit mm)*
G04 Created by KiCad (PCBNEW 5.1.9-73d0e3b20d~88~ubuntu20.04.1) date 2021-01-19 00:22:37*
%MOMM*%
%LPD*%
G01*
G04 APERTURE LIST*
%ADD10C,5.500000*%
%ADD11C,9.000000*%
%ADD12C,1.600000*%
%ADD13R,1.600000X1.600000*%
%ADD14C,3.250000*%
%ADD15C,1.700000*%
%ADD16C,4.000000*%
%ADD17C,2.200000*%
G04 APERTURE END LIST*
D10*
X230560000Y-192110000D03*
D11*
X237170000Y-173180000D03*
D10*
X188060000Y-168170000D03*
X167850000Y-171590000D03*
X137340000Y-154970000D03*
X137380000Y-117100000D03*
X153090000Y-94980000D03*
X198360000Y-90710000D03*
D12*
X154790000Y-87020000D03*
X157330000Y-87020000D03*
X159870000Y-87020000D03*
X152250000Y-87020000D03*
X149710000Y-87020000D03*
X147170000Y-87020000D03*
X144630000Y-87020000D03*
X142090000Y-87020000D03*
X139550000Y-87020000D03*
X137010000Y-87020000D03*
D13*
X134470000Y-87020000D03*
D12*
X162410000Y-87020000D03*
X164950000Y-87020000D03*
X167490000Y-87020000D03*
X170030000Y-87020000D03*
X172570000Y-87020000D03*
X175110000Y-87020000D03*
X177650000Y-87020000D03*
X180190000Y-87020000D03*
X182730000Y-87020000D03*
X182730000Y-81940000D03*
X182730000Y-79400000D03*
X182730000Y-76860000D03*
X182730000Y-71780000D03*
X180190000Y-71780000D03*
X177650000Y-71780000D03*
X175110000Y-71780000D03*
X172570000Y-71780000D03*
X170030000Y-71780000D03*
X167490000Y-71780000D03*
X164950000Y-71780000D03*
X162410000Y-71780000D03*
X159870000Y-71780000D03*
X157330000Y-71780000D03*
X154790000Y-71780000D03*
X152250000Y-71780000D03*
X149710000Y-71780000D03*
X147170000Y-71780000D03*
X144630000Y-71780000D03*
X142090000Y-71780000D03*
X139550000Y-71780000D03*
X137010000Y-71780000D03*
X134470000Y-71780000D03*
D14*
X206530000Y-83890000D03*
X206530000Y-76250000D03*
D15*
X200180000Y-81975000D03*
X200180000Y-79435000D03*
X197640000Y-80705000D03*
X197640000Y-78165000D03*
D16*
X243300000Y-102880000D03*
D17*
X239490000Y-100340000D03*
X245840000Y-97800000D03*
D16*
X243360000Y-126630000D03*
D17*
X240820000Y-130440000D03*
X238280000Y-124090000D03*
X238270000Y-152590000D03*
X240810000Y-158940000D03*
D16*
X243350000Y-155130000D03*
D17*
X257030000Y-197140000D03*
X257244991Y-203975779D03*
D16*
X260934907Y-201264282D03*
X224280000Y-102870000D03*
D17*
X220470000Y-100330000D03*
X226820000Y-97790000D03*
D16*
X224280000Y-121870000D03*
D17*
X220470000Y-119330000D03*
X226820000Y-116790000D03*
X226820000Y-135780000D03*
X220470000Y-138320000D03*
D16*
X224280000Y-140860000D03*
D17*
X226820000Y-154780000D03*
X220470000Y-157320000D03*
D16*
X224280000Y-159860000D03*
X244774907Y-189914282D03*
D17*
X241084991Y-192625779D03*
X240870000Y-185790000D03*
D16*
X205280000Y-102860000D03*
D17*
X201470000Y-100320000D03*
X207820000Y-97780000D03*
D16*
X205280000Y-121860000D03*
D17*
X201470000Y-119320000D03*
X207820000Y-116780000D03*
D16*
X205280000Y-140870000D03*
D17*
X201470000Y-138330000D03*
X207820000Y-135790000D03*
X207820000Y-154790000D03*
X201470000Y-157330000D03*
D16*
X205280000Y-159870000D03*
X217040000Y-178920000D03*
D17*
X213230000Y-176380000D03*
X219580000Y-173840000D03*
D16*
X186250000Y-100360000D03*
D17*
X182440000Y-97820000D03*
X188790000Y-95280000D03*
X188790000Y-114280000D03*
X182440000Y-116820000D03*
D16*
X186250000Y-119360000D03*
D17*
X188790000Y-133280000D03*
X182440000Y-135820000D03*
D16*
X186250000Y-138360000D03*
D17*
X188790000Y-152290000D03*
X182440000Y-154830000D03*
D16*
X186250000Y-157370000D03*
X188500000Y-178910000D03*
D17*
X184690000Y-176370000D03*
X191040000Y-173830000D03*
X169790000Y-97790000D03*
X163440000Y-100330000D03*
D16*
X167250000Y-102870000D03*
D17*
X169800000Y-116780000D03*
X163450000Y-119320000D03*
D16*
X167260000Y-121860000D03*
D17*
X169790000Y-135790000D03*
X163440000Y-138330000D03*
D16*
X167250000Y-140870000D03*
D17*
X169790000Y-154790000D03*
X163440000Y-157330000D03*
D16*
X167250000Y-159870000D03*
D17*
X167290000Y-178340000D03*
X160940000Y-180880000D03*
D16*
X164750000Y-183420000D03*
D17*
X150790000Y-102290000D03*
X144440000Y-104830000D03*
D16*
X148250000Y-107370000D03*
X148250000Y-126360000D03*
D17*
X144440000Y-123820000D03*
X150790000Y-121280000D03*
D16*
X148250000Y-145370000D03*
D17*
X144440000Y-142830000D03*
X150790000Y-140290000D03*
D16*
X148260000Y-164370000D03*
D17*
X144450000Y-161830000D03*
X150800000Y-159290000D03*
D16*
X131410000Y-183390000D03*
D17*
X127600000Y-180850000D03*
X133950000Y-178310000D03*
D16*
X124430000Y-107300000D03*
D17*
X120620000Y-104760000D03*
X126970000Y-102220000D03*
X126920000Y-121320000D03*
X120570000Y-123860000D03*
D16*
X124380000Y-126400000D03*
D17*
X124620000Y-140260000D03*
X118270000Y-142800000D03*
D16*
X122080000Y-145340000D03*
D17*
X119870000Y-159260000D03*
X113520000Y-161800000D03*
D16*
X117330000Y-164340000D03*
M02*
