M48
INCH,TZ
T1C0.1280
T2C0.1575
T3C0.2165
T4C0.3543
%
G90
G05
T1
X81311Y-30020
X81311Y-33028
T2
X46193Y-64701
X48063Y-57220
X48969Y-49764
X48988Y-42244
X51736Y-72201
X58366Y-42272
X58366Y-49748
X58366Y-57232
X58370Y-64713
X64862Y-72213
X65846Y-40500
X65846Y-55461
X65846Y-62941
X65850Y-47976
X73327Y-39512
X73327Y-46992
X73327Y-54472
X73327Y-61957
X74213Y-70437
X80819Y-40496
X80819Y-47976
X80819Y-55461
X80819Y-62941
X85449Y-70441
X88299Y-40500
X88299Y-47980
X88299Y-55457
X88299Y-62937
X95787Y-40504
X95807Y-61075
X95811Y-49854
X96368Y-74769
X102730Y-79238
T3
X54071Y-61012
X54087Y-46102
X60272Y-37394
X66083Y-67555
X74039Y-66209
X78094Y-35713
X90772Y-75634
T4
X93374Y-68181
T0
M30
