M48
INCH,TZ
T1C0.0157
T2C0.0354
T3C0.0433
T4C0.0591
%
G90
G05
T1
X54941Y-33091
X76880Y-43986
X85492Y-43996
T2
X77811Y-30774
X77811Y-31774
X78811Y-31274
X78811Y-32274
T3
X52941Y-28260
X52941Y-34260
X53941Y-28260
X53941Y-34260
X54941Y-28260
X54941Y-34260
X55941Y-28260
X55941Y-34260
X56941Y-28260
X56941Y-34260
X57941Y-28260
X57941Y-34260
X58941Y-28260
X58941Y-34260
X59941Y-28260
X59941Y-34260
X60941Y-28260
X60941Y-34260
X61941Y-28260
X61941Y-34260
X62941Y-28260
X62941Y-34260
X63941Y-28260
X63941Y-34260
X64941Y-28260
X64941Y-34260
X65941Y-28260
X65941Y-34260
X66941Y-28260
X66941Y-34260
X67941Y-28260
X67941Y-34260
X68941Y-28260
X68941Y-34260
X69941Y-28260
X69941Y-34260
X70941Y-28260
X70941Y-34260
X71941Y-28260
X71941Y-30260
X71941Y-31260
X71941Y-32260
X71941Y-34260
T4
X44693Y-63701
X46563Y-56220
X47193Y-62701
X47469Y-48764
X47488Y-41244
X49063Y-55220
X49969Y-47764
X49988Y-40244
X50236Y-71201
X52736Y-70201
X56866Y-41272
X56866Y-48748
X56866Y-56232
X56870Y-63713
X59366Y-40272
X59366Y-47748
X59366Y-55232
X59370Y-62713
X63362Y-71213
X64346Y-39500
X64346Y-54461
X64346Y-61941
X64350Y-46976
X65862Y-70213
X66846Y-38500
X66846Y-53461
X66846Y-60941
X66850Y-45976
X71827Y-38512
X71827Y-45992
X71827Y-53472
X71827Y-60957
X72713Y-69437
X74327Y-37512
X74327Y-44992
X74327Y-52472
X74327Y-59957
X75213Y-68437
X79319Y-39496
X79319Y-46976
X79319Y-54461
X79319Y-61941
X81819Y-38496
X81819Y-45976
X81819Y-53461
X81819Y-60941
X83949Y-69441
X86449Y-68441
X86799Y-39500
X86799Y-46980
X86799Y-54457
X86799Y-61937
X89299Y-38500
X89299Y-45980
X89299Y-53457
X89299Y-60937
X93807Y-60075
X93811Y-48854
X94287Y-39504
X94807Y-62575
X94811Y-51354
X94831Y-73146
X94915Y-75837
X96787Y-38504
X101193Y-77614
X101278Y-80305
T0
M30
