G04 #@! TF.GenerationSoftware,KiCad,Pcbnew,5.1.9-73d0e3b20d~88~ubuntu20.04.1*
G04 #@! TF.CreationDate,2021-01-19T00:22:37+03:00*
G04 #@! TF.ProjectId,jeaex-left,6a656165-782d-46c6-9566-742e6b696361,rev?*
G04 #@! TF.SameCoordinates,Original*
G04 #@! TF.FileFunction,Legend,Bot*
G04 #@! TF.FilePolarity,Positive*
%FSLAX46Y46*%
G04 Gerber Fmt 4.6, Leading zero omitted, Abs format (unit mm)*
G04 Created by KiCad (PCBNEW 5.1.9-73d0e3b20d~88~ubuntu20.04.1) date 2021-01-19 00:22:37*
%MOMM*%
%LPD*%
G01*
G04 APERTURE LIST*
%ADD10C,0.120000*%
%ADD11C,0.150000*%
G04 APERTURE END LIST*
D10*
X178200000Y-79907064D02*
X178200000Y-78452936D01*
X180020000Y-79907064D02*
X180020000Y-78452936D01*
X148790000Y-76364564D02*
X148790000Y-74910436D01*
X150610000Y-76364564D02*
X150610000Y-74910436D01*
X231880000Y-109410000D02*
X231880000Y-107410000D01*
X231880000Y-107410000D02*
X235780000Y-107410000D01*
X231880000Y-109410000D02*
X235780000Y-109410000D01*
X231875000Y-131450000D02*
X231875000Y-129450000D01*
X231875000Y-129450000D02*
X235775000Y-129450000D01*
X231875000Y-131450000D02*
X235775000Y-131450000D01*
X231900000Y-159950000D02*
X235800000Y-159950000D01*
X231900000Y-157950000D02*
X235800000Y-157950000D01*
X231900000Y-159950000D02*
X231900000Y-157950000D01*
X265660000Y-193180000D02*
X265660000Y-197080000D01*
X267660000Y-193180000D02*
X267660000Y-197080000D01*
X265660000Y-193180000D02*
X267660000Y-193180000D01*
X216550000Y-108940000D02*
X220450000Y-108940000D01*
X216550000Y-106940000D02*
X220450000Y-106940000D01*
X216550000Y-108940000D02*
X216550000Y-106940000D01*
X216520000Y-127970000D02*
X220420000Y-127970000D01*
X216520000Y-125970000D02*
X220420000Y-125970000D01*
X216520000Y-127970000D02*
X216520000Y-125970000D01*
X216540000Y-146210000D02*
X220440000Y-146210000D01*
X216540000Y-144210000D02*
X220440000Y-144210000D01*
X216540000Y-146210000D02*
X216540000Y-144210000D01*
X216560000Y-165330000D02*
X216560000Y-163330000D01*
X216560000Y-163330000D02*
X220460000Y-163330000D01*
X216560000Y-165330000D02*
X220460000Y-165330000D01*
X233300000Y-183450000D02*
X235300000Y-183450000D01*
X235300000Y-183450000D02*
X235300000Y-187350000D01*
X233300000Y-183450000D02*
X233300000Y-187350000D01*
X197550000Y-109650000D02*
X197550000Y-107650000D01*
X197550000Y-107650000D02*
X201450000Y-107650000D01*
X197550000Y-109650000D02*
X201450000Y-109650000D01*
X197600000Y-127900000D02*
X201500000Y-127900000D01*
X197600000Y-125900000D02*
X201500000Y-125900000D01*
X197600000Y-127900000D02*
X197600000Y-125900000D01*
X197600000Y-149400000D02*
X197600000Y-147400000D01*
X197600000Y-147400000D02*
X201500000Y-147400000D01*
X197600000Y-149400000D02*
X201500000Y-149400000D01*
X197550000Y-167590000D02*
X197550000Y-165590000D01*
X197550000Y-165590000D02*
X201450000Y-165590000D01*
X197550000Y-167590000D02*
X201450000Y-167590000D01*
X209350000Y-171850000D02*
X209350000Y-169850000D01*
X209350000Y-169850000D02*
X213250000Y-169850000D01*
X209350000Y-171850000D02*
X213250000Y-171850000D01*
X178550000Y-107150000D02*
X182450000Y-107150000D01*
X178550000Y-105150000D02*
X182450000Y-105150000D01*
X178550000Y-107150000D02*
X178550000Y-105150000D01*
X178550000Y-125600000D02*
X182450000Y-125600000D01*
X178550000Y-123600000D02*
X182450000Y-123600000D01*
X178550000Y-125600000D02*
X178550000Y-123600000D01*
X178550000Y-144750000D02*
X178550000Y-142750000D01*
X178550000Y-142750000D02*
X182450000Y-142750000D01*
X178550000Y-144750000D02*
X182450000Y-144750000D01*
X178550000Y-163550000D02*
X182450000Y-163550000D01*
X178550000Y-161550000D02*
X182450000Y-161550000D01*
X178550000Y-163550000D02*
X178550000Y-161550000D01*
X178550000Y-170800000D02*
X178550000Y-168800000D01*
X178550000Y-168800000D02*
X182450000Y-168800000D01*
X178550000Y-170800000D02*
X182450000Y-170800000D01*
X159550000Y-109500000D02*
X163450000Y-109500000D01*
X159550000Y-107500000D02*
X163450000Y-107500000D01*
X159550000Y-109500000D02*
X159550000Y-107500000D01*
X159550000Y-127700000D02*
X159550000Y-125700000D01*
X159550000Y-125700000D02*
X163450000Y-125700000D01*
X159550000Y-127700000D02*
X163450000Y-127700000D01*
X159550000Y-147850000D02*
X163450000Y-147850000D01*
X159550000Y-145850000D02*
X163450000Y-145850000D01*
X159550000Y-147850000D02*
X159550000Y-145850000D01*
X159550000Y-165900000D02*
X159550000Y-163900000D01*
X159550000Y-163900000D02*
X163450000Y-163900000D01*
X159550000Y-165900000D02*
X163450000Y-165900000D01*
X159150000Y-170950000D02*
X159150000Y-174850000D01*
X161150000Y-170950000D02*
X161150000Y-174850000D01*
X159150000Y-170950000D02*
X161150000Y-170950000D01*
X140520000Y-112650000D02*
X140520000Y-110650000D01*
X140520000Y-110650000D02*
X144420000Y-110650000D01*
X140520000Y-112650000D02*
X144420000Y-112650000D01*
X140560000Y-133030000D02*
X144460000Y-133030000D01*
X140560000Y-131030000D02*
X144460000Y-131030000D01*
X140560000Y-133030000D02*
X140560000Y-131030000D01*
X140550000Y-152020000D02*
X140550000Y-150020000D01*
X140550000Y-150020000D02*
X144450000Y-150020000D01*
X140550000Y-152020000D02*
X144450000Y-152020000D01*
X140560000Y-174560000D02*
X144460000Y-174560000D01*
X140560000Y-172560000D02*
X144460000Y-172560000D01*
X140560000Y-174560000D02*
X140560000Y-172560000D01*
X132430000Y-172610000D02*
X132430000Y-174610000D01*
X132430000Y-174610000D02*
X128530000Y-174610000D01*
X132430000Y-172610000D02*
X128530000Y-172610000D01*
X116690000Y-113020000D02*
X120590000Y-113020000D01*
X116690000Y-111020000D02*
X120590000Y-111020000D01*
X116690000Y-113020000D02*
X116690000Y-111020000D01*
X116690000Y-118270000D02*
X116690000Y-116270000D01*
X116690000Y-116270000D02*
X120590000Y-116270000D01*
X116690000Y-118270000D02*
X120590000Y-118270000D01*
X114430000Y-137400000D02*
X118330000Y-137400000D01*
X114430000Y-135400000D02*
X118330000Y-135400000D01*
X114430000Y-137400000D02*
X114430000Y-135400000D01*
X114040000Y-151590000D02*
X116040000Y-151590000D01*
X116040000Y-151590000D02*
X116040000Y-155490000D01*
X114040000Y-151590000D02*
X114040000Y-155490000D01*
X140460000Y-77897936D02*
X140460000Y-79102064D01*
X138640000Y-77897936D02*
X138640000Y-79102064D01*
X142540000Y-77897936D02*
X142540000Y-79102064D01*
X144360000Y-77897936D02*
X144360000Y-79102064D01*
D11*
X181382380Y-79013333D02*
X180906190Y-78680000D01*
X181382380Y-78441904D02*
X180382380Y-78441904D01*
X180382380Y-78822857D01*
X180430000Y-78918095D01*
X180477619Y-78965714D01*
X180572857Y-79013333D01*
X180715714Y-79013333D01*
X180810952Y-78965714D01*
X180858571Y-78918095D01*
X180906190Y-78822857D01*
X180906190Y-78441904D01*
X180382380Y-79346666D02*
X180382380Y-79965714D01*
X180763333Y-79632380D01*
X180763333Y-79775238D01*
X180810952Y-79870476D01*
X180858571Y-79918095D01*
X180953809Y-79965714D01*
X181191904Y-79965714D01*
X181287142Y-79918095D01*
X181334761Y-79870476D01*
X181382380Y-79775238D01*
X181382380Y-79489523D01*
X181334761Y-79394285D01*
X181287142Y-79346666D01*
X151972380Y-75470833D02*
X151496190Y-75137500D01*
X151972380Y-74899404D02*
X150972380Y-74899404D01*
X150972380Y-75280357D01*
X151020000Y-75375595D01*
X151067619Y-75423214D01*
X151162857Y-75470833D01*
X151305714Y-75470833D01*
X151400952Y-75423214D01*
X151448571Y-75375595D01*
X151496190Y-75280357D01*
X151496190Y-74899404D01*
X151305714Y-76327976D02*
X151972380Y-76327976D01*
X150924761Y-76089880D02*
X151639047Y-75851785D01*
X151639047Y-76470833D01*
X234868095Y-110862380D02*
X234868095Y-109862380D01*
X234630000Y-109862380D01*
X234487142Y-109910000D01*
X234391904Y-110005238D01*
X234344285Y-110100476D01*
X234296666Y-110290952D01*
X234296666Y-110433809D01*
X234344285Y-110624285D01*
X234391904Y-110719523D01*
X234487142Y-110814761D01*
X234630000Y-110862380D01*
X234868095Y-110862380D01*
X233344285Y-110862380D02*
X233915714Y-110862380D01*
X233630000Y-110862380D02*
X233630000Y-109862380D01*
X233725238Y-110005238D01*
X233820476Y-110100476D01*
X233915714Y-110148095D01*
X234863095Y-132902380D02*
X234863095Y-131902380D01*
X234625000Y-131902380D01*
X234482142Y-131950000D01*
X234386904Y-132045238D01*
X234339285Y-132140476D01*
X234291666Y-132330952D01*
X234291666Y-132473809D01*
X234339285Y-132664285D01*
X234386904Y-132759523D01*
X234482142Y-132854761D01*
X234625000Y-132902380D01*
X234863095Y-132902380D01*
X233910714Y-131997619D02*
X233863095Y-131950000D01*
X233767857Y-131902380D01*
X233529761Y-131902380D01*
X233434523Y-131950000D01*
X233386904Y-131997619D01*
X233339285Y-132092857D01*
X233339285Y-132188095D01*
X233386904Y-132330952D01*
X233958333Y-132902380D01*
X233339285Y-132902380D01*
X234888095Y-161402380D02*
X234888095Y-160402380D01*
X234650000Y-160402380D01*
X234507142Y-160450000D01*
X234411904Y-160545238D01*
X234364285Y-160640476D01*
X234316666Y-160830952D01*
X234316666Y-160973809D01*
X234364285Y-161164285D01*
X234411904Y-161259523D01*
X234507142Y-161354761D01*
X234650000Y-161402380D01*
X234888095Y-161402380D01*
X233983333Y-160402380D02*
X233364285Y-160402380D01*
X233697619Y-160783333D01*
X233554761Y-160783333D01*
X233459523Y-160830952D01*
X233411904Y-160878571D01*
X233364285Y-160973809D01*
X233364285Y-161211904D01*
X233411904Y-161307142D01*
X233459523Y-161354761D01*
X233554761Y-161402380D01*
X233840476Y-161402380D01*
X233935714Y-161354761D01*
X233983333Y-161307142D01*
X265112380Y-194691904D02*
X264112380Y-194691904D01*
X264112380Y-194930000D01*
X264160000Y-195072857D01*
X264255238Y-195168095D01*
X264350476Y-195215714D01*
X264540952Y-195263333D01*
X264683809Y-195263333D01*
X264874285Y-195215714D01*
X264969523Y-195168095D01*
X265064761Y-195072857D01*
X265112380Y-194930000D01*
X265112380Y-194691904D01*
X264445714Y-196120476D02*
X265112380Y-196120476D01*
X264064761Y-195882380D02*
X264779047Y-195644285D01*
X264779047Y-196263333D01*
X219538095Y-110392380D02*
X219538095Y-109392380D01*
X219300000Y-109392380D01*
X219157142Y-109440000D01*
X219061904Y-109535238D01*
X219014285Y-109630476D01*
X218966666Y-109820952D01*
X218966666Y-109963809D01*
X219014285Y-110154285D01*
X219061904Y-110249523D01*
X219157142Y-110344761D01*
X219300000Y-110392380D01*
X219538095Y-110392380D01*
X218061904Y-109392380D02*
X218538095Y-109392380D01*
X218585714Y-109868571D01*
X218538095Y-109820952D01*
X218442857Y-109773333D01*
X218204761Y-109773333D01*
X218109523Y-109820952D01*
X218061904Y-109868571D01*
X218014285Y-109963809D01*
X218014285Y-110201904D01*
X218061904Y-110297142D01*
X218109523Y-110344761D01*
X218204761Y-110392380D01*
X218442857Y-110392380D01*
X218538095Y-110344761D01*
X218585714Y-110297142D01*
X219508095Y-129422380D02*
X219508095Y-128422380D01*
X219270000Y-128422380D01*
X219127142Y-128470000D01*
X219031904Y-128565238D01*
X218984285Y-128660476D01*
X218936666Y-128850952D01*
X218936666Y-128993809D01*
X218984285Y-129184285D01*
X219031904Y-129279523D01*
X219127142Y-129374761D01*
X219270000Y-129422380D01*
X219508095Y-129422380D01*
X218079523Y-128422380D02*
X218270000Y-128422380D01*
X218365238Y-128470000D01*
X218412857Y-128517619D01*
X218508095Y-128660476D01*
X218555714Y-128850952D01*
X218555714Y-129231904D01*
X218508095Y-129327142D01*
X218460476Y-129374761D01*
X218365238Y-129422380D01*
X218174761Y-129422380D01*
X218079523Y-129374761D01*
X218031904Y-129327142D01*
X217984285Y-129231904D01*
X217984285Y-128993809D01*
X218031904Y-128898571D01*
X218079523Y-128850952D01*
X218174761Y-128803333D01*
X218365238Y-128803333D01*
X218460476Y-128850952D01*
X218508095Y-128898571D01*
X218555714Y-128993809D01*
X219528095Y-147662380D02*
X219528095Y-146662380D01*
X219290000Y-146662380D01*
X219147142Y-146710000D01*
X219051904Y-146805238D01*
X219004285Y-146900476D01*
X218956666Y-147090952D01*
X218956666Y-147233809D01*
X219004285Y-147424285D01*
X219051904Y-147519523D01*
X219147142Y-147614761D01*
X219290000Y-147662380D01*
X219528095Y-147662380D01*
X218623333Y-146662380D02*
X217956666Y-146662380D01*
X218385238Y-147662380D01*
X219548095Y-166782380D02*
X219548095Y-165782380D01*
X219310000Y-165782380D01*
X219167142Y-165830000D01*
X219071904Y-165925238D01*
X219024285Y-166020476D01*
X218976666Y-166210952D01*
X218976666Y-166353809D01*
X219024285Y-166544285D01*
X219071904Y-166639523D01*
X219167142Y-166734761D01*
X219310000Y-166782380D01*
X219548095Y-166782380D01*
X218405238Y-166210952D02*
X218500476Y-166163333D01*
X218548095Y-166115714D01*
X218595714Y-166020476D01*
X218595714Y-165972857D01*
X218548095Y-165877619D01*
X218500476Y-165830000D01*
X218405238Y-165782380D01*
X218214761Y-165782380D01*
X218119523Y-165830000D01*
X218071904Y-165877619D01*
X218024285Y-165972857D01*
X218024285Y-166020476D01*
X218071904Y-166115714D01*
X218119523Y-166163333D01*
X218214761Y-166210952D01*
X218405238Y-166210952D01*
X218500476Y-166258571D01*
X218548095Y-166306190D01*
X218595714Y-166401428D01*
X218595714Y-166591904D01*
X218548095Y-166687142D01*
X218500476Y-166734761D01*
X218405238Y-166782380D01*
X218214761Y-166782380D01*
X218119523Y-166734761D01*
X218071904Y-166687142D01*
X218024285Y-166591904D01*
X218024285Y-166401428D01*
X218071904Y-166306190D01*
X218119523Y-166258571D01*
X218214761Y-166210952D01*
X232752380Y-184961904D02*
X231752380Y-184961904D01*
X231752380Y-185200000D01*
X231800000Y-185342857D01*
X231895238Y-185438095D01*
X231990476Y-185485714D01*
X232180952Y-185533333D01*
X232323809Y-185533333D01*
X232514285Y-185485714D01*
X232609523Y-185438095D01*
X232704761Y-185342857D01*
X232752380Y-185200000D01*
X232752380Y-184961904D01*
X232752380Y-186009523D02*
X232752380Y-186200000D01*
X232704761Y-186295238D01*
X232657142Y-186342857D01*
X232514285Y-186438095D01*
X232323809Y-186485714D01*
X231942857Y-186485714D01*
X231847619Y-186438095D01*
X231800000Y-186390476D01*
X231752380Y-186295238D01*
X231752380Y-186104761D01*
X231800000Y-186009523D01*
X231847619Y-185961904D01*
X231942857Y-185914285D01*
X232180952Y-185914285D01*
X232276190Y-185961904D01*
X232323809Y-186009523D01*
X232371428Y-186104761D01*
X232371428Y-186295238D01*
X232323809Y-186390476D01*
X232276190Y-186438095D01*
X232180952Y-186485714D01*
X201014285Y-111102380D02*
X201014285Y-110102380D01*
X200776190Y-110102380D01*
X200633333Y-110150000D01*
X200538095Y-110245238D01*
X200490476Y-110340476D01*
X200442857Y-110530952D01*
X200442857Y-110673809D01*
X200490476Y-110864285D01*
X200538095Y-110959523D01*
X200633333Y-111054761D01*
X200776190Y-111102380D01*
X201014285Y-111102380D01*
X199490476Y-111102380D02*
X200061904Y-111102380D01*
X199776190Y-111102380D02*
X199776190Y-110102380D01*
X199871428Y-110245238D01*
X199966666Y-110340476D01*
X200061904Y-110388095D01*
X198871428Y-110102380D02*
X198776190Y-110102380D01*
X198680952Y-110150000D01*
X198633333Y-110197619D01*
X198585714Y-110292857D01*
X198538095Y-110483333D01*
X198538095Y-110721428D01*
X198585714Y-110911904D01*
X198633333Y-111007142D01*
X198680952Y-111054761D01*
X198776190Y-111102380D01*
X198871428Y-111102380D01*
X198966666Y-111054761D01*
X199014285Y-111007142D01*
X199061904Y-110911904D01*
X199109523Y-110721428D01*
X199109523Y-110483333D01*
X199061904Y-110292857D01*
X199014285Y-110197619D01*
X198966666Y-110150000D01*
X198871428Y-110102380D01*
X201064285Y-129352380D02*
X201064285Y-128352380D01*
X200826190Y-128352380D01*
X200683333Y-128400000D01*
X200588095Y-128495238D01*
X200540476Y-128590476D01*
X200492857Y-128780952D01*
X200492857Y-128923809D01*
X200540476Y-129114285D01*
X200588095Y-129209523D01*
X200683333Y-129304761D01*
X200826190Y-129352380D01*
X201064285Y-129352380D01*
X199540476Y-129352380D02*
X200111904Y-129352380D01*
X199826190Y-129352380D02*
X199826190Y-128352380D01*
X199921428Y-128495238D01*
X200016666Y-128590476D01*
X200111904Y-128638095D01*
X198588095Y-129352380D02*
X199159523Y-129352380D01*
X198873809Y-129352380D02*
X198873809Y-128352380D01*
X198969047Y-128495238D01*
X199064285Y-128590476D01*
X199159523Y-128638095D01*
X201064285Y-150852380D02*
X201064285Y-149852380D01*
X200826190Y-149852380D01*
X200683333Y-149900000D01*
X200588095Y-149995238D01*
X200540476Y-150090476D01*
X200492857Y-150280952D01*
X200492857Y-150423809D01*
X200540476Y-150614285D01*
X200588095Y-150709523D01*
X200683333Y-150804761D01*
X200826190Y-150852380D01*
X201064285Y-150852380D01*
X199540476Y-150852380D02*
X200111904Y-150852380D01*
X199826190Y-150852380D02*
X199826190Y-149852380D01*
X199921428Y-149995238D01*
X200016666Y-150090476D01*
X200111904Y-150138095D01*
X199159523Y-149947619D02*
X199111904Y-149900000D01*
X199016666Y-149852380D01*
X198778571Y-149852380D01*
X198683333Y-149900000D01*
X198635714Y-149947619D01*
X198588095Y-150042857D01*
X198588095Y-150138095D01*
X198635714Y-150280952D01*
X199207142Y-150852380D01*
X198588095Y-150852380D01*
X201014285Y-169042380D02*
X201014285Y-168042380D01*
X200776190Y-168042380D01*
X200633333Y-168090000D01*
X200538095Y-168185238D01*
X200490476Y-168280476D01*
X200442857Y-168470952D01*
X200442857Y-168613809D01*
X200490476Y-168804285D01*
X200538095Y-168899523D01*
X200633333Y-168994761D01*
X200776190Y-169042380D01*
X201014285Y-169042380D01*
X199490476Y-169042380D02*
X200061904Y-169042380D01*
X199776190Y-169042380D02*
X199776190Y-168042380D01*
X199871428Y-168185238D01*
X199966666Y-168280476D01*
X200061904Y-168328095D01*
X199157142Y-168042380D02*
X198538095Y-168042380D01*
X198871428Y-168423333D01*
X198728571Y-168423333D01*
X198633333Y-168470952D01*
X198585714Y-168518571D01*
X198538095Y-168613809D01*
X198538095Y-168851904D01*
X198585714Y-168947142D01*
X198633333Y-168994761D01*
X198728571Y-169042380D01*
X199014285Y-169042380D01*
X199109523Y-168994761D01*
X199157142Y-168947142D01*
X212814285Y-173302380D02*
X212814285Y-172302380D01*
X212576190Y-172302380D01*
X212433333Y-172350000D01*
X212338095Y-172445238D01*
X212290476Y-172540476D01*
X212242857Y-172730952D01*
X212242857Y-172873809D01*
X212290476Y-173064285D01*
X212338095Y-173159523D01*
X212433333Y-173254761D01*
X212576190Y-173302380D01*
X212814285Y-173302380D01*
X211290476Y-173302380D02*
X211861904Y-173302380D01*
X211576190Y-173302380D02*
X211576190Y-172302380D01*
X211671428Y-172445238D01*
X211766666Y-172540476D01*
X211861904Y-172588095D01*
X210433333Y-172635714D02*
X210433333Y-173302380D01*
X210671428Y-172254761D02*
X210909523Y-172969047D01*
X210290476Y-172969047D01*
X182014285Y-108602380D02*
X182014285Y-107602380D01*
X181776190Y-107602380D01*
X181633333Y-107650000D01*
X181538095Y-107745238D01*
X181490476Y-107840476D01*
X181442857Y-108030952D01*
X181442857Y-108173809D01*
X181490476Y-108364285D01*
X181538095Y-108459523D01*
X181633333Y-108554761D01*
X181776190Y-108602380D01*
X182014285Y-108602380D01*
X180490476Y-108602380D02*
X181061904Y-108602380D01*
X180776190Y-108602380D02*
X180776190Y-107602380D01*
X180871428Y-107745238D01*
X180966666Y-107840476D01*
X181061904Y-107888095D01*
X179585714Y-107602380D02*
X180061904Y-107602380D01*
X180109523Y-108078571D01*
X180061904Y-108030952D01*
X179966666Y-107983333D01*
X179728571Y-107983333D01*
X179633333Y-108030952D01*
X179585714Y-108078571D01*
X179538095Y-108173809D01*
X179538095Y-108411904D01*
X179585714Y-108507142D01*
X179633333Y-108554761D01*
X179728571Y-108602380D01*
X179966666Y-108602380D01*
X180061904Y-108554761D01*
X180109523Y-108507142D01*
X182014285Y-127052380D02*
X182014285Y-126052380D01*
X181776190Y-126052380D01*
X181633333Y-126100000D01*
X181538095Y-126195238D01*
X181490476Y-126290476D01*
X181442857Y-126480952D01*
X181442857Y-126623809D01*
X181490476Y-126814285D01*
X181538095Y-126909523D01*
X181633333Y-127004761D01*
X181776190Y-127052380D01*
X182014285Y-127052380D01*
X180490476Y-127052380D02*
X181061904Y-127052380D01*
X180776190Y-127052380D02*
X180776190Y-126052380D01*
X180871428Y-126195238D01*
X180966666Y-126290476D01*
X181061904Y-126338095D01*
X179633333Y-126052380D02*
X179823809Y-126052380D01*
X179919047Y-126100000D01*
X179966666Y-126147619D01*
X180061904Y-126290476D01*
X180109523Y-126480952D01*
X180109523Y-126861904D01*
X180061904Y-126957142D01*
X180014285Y-127004761D01*
X179919047Y-127052380D01*
X179728571Y-127052380D01*
X179633333Y-127004761D01*
X179585714Y-126957142D01*
X179538095Y-126861904D01*
X179538095Y-126623809D01*
X179585714Y-126528571D01*
X179633333Y-126480952D01*
X179728571Y-126433333D01*
X179919047Y-126433333D01*
X180014285Y-126480952D01*
X180061904Y-126528571D01*
X180109523Y-126623809D01*
X182014285Y-146202380D02*
X182014285Y-145202380D01*
X181776190Y-145202380D01*
X181633333Y-145250000D01*
X181538095Y-145345238D01*
X181490476Y-145440476D01*
X181442857Y-145630952D01*
X181442857Y-145773809D01*
X181490476Y-145964285D01*
X181538095Y-146059523D01*
X181633333Y-146154761D01*
X181776190Y-146202380D01*
X182014285Y-146202380D01*
X180490476Y-146202380D02*
X181061904Y-146202380D01*
X180776190Y-146202380D02*
X180776190Y-145202380D01*
X180871428Y-145345238D01*
X180966666Y-145440476D01*
X181061904Y-145488095D01*
X180157142Y-145202380D02*
X179490476Y-145202380D01*
X179919047Y-146202380D01*
X182014285Y-165002380D02*
X182014285Y-164002380D01*
X181776190Y-164002380D01*
X181633333Y-164050000D01*
X181538095Y-164145238D01*
X181490476Y-164240476D01*
X181442857Y-164430952D01*
X181442857Y-164573809D01*
X181490476Y-164764285D01*
X181538095Y-164859523D01*
X181633333Y-164954761D01*
X181776190Y-165002380D01*
X182014285Y-165002380D01*
X180490476Y-165002380D02*
X181061904Y-165002380D01*
X180776190Y-165002380D02*
X180776190Y-164002380D01*
X180871428Y-164145238D01*
X180966666Y-164240476D01*
X181061904Y-164288095D01*
X179919047Y-164430952D02*
X180014285Y-164383333D01*
X180061904Y-164335714D01*
X180109523Y-164240476D01*
X180109523Y-164192857D01*
X180061904Y-164097619D01*
X180014285Y-164050000D01*
X179919047Y-164002380D01*
X179728571Y-164002380D01*
X179633333Y-164050000D01*
X179585714Y-164097619D01*
X179538095Y-164192857D01*
X179538095Y-164240476D01*
X179585714Y-164335714D01*
X179633333Y-164383333D01*
X179728571Y-164430952D01*
X179919047Y-164430952D01*
X180014285Y-164478571D01*
X180061904Y-164526190D01*
X180109523Y-164621428D01*
X180109523Y-164811904D01*
X180061904Y-164907142D01*
X180014285Y-164954761D01*
X179919047Y-165002380D01*
X179728571Y-165002380D01*
X179633333Y-164954761D01*
X179585714Y-164907142D01*
X179538095Y-164811904D01*
X179538095Y-164621428D01*
X179585714Y-164526190D01*
X179633333Y-164478571D01*
X179728571Y-164430952D01*
X182014285Y-172252380D02*
X182014285Y-171252380D01*
X181776190Y-171252380D01*
X181633333Y-171300000D01*
X181538095Y-171395238D01*
X181490476Y-171490476D01*
X181442857Y-171680952D01*
X181442857Y-171823809D01*
X181490476Y-172014285D01*
X181538095Y-172109523D01*
X181633333Y-172204761D01*
X181776190Y-172252380D01*
X182014285Y-172252380D01*
X180490476Y-172252380D02*
X181061904Y-172252380D01*
X180776190Y-172252380D02*
X180776190Y-171252380D01*
X180871428Y-171395238D01*
X180966666Y-171490476D01*
X181061904Y-171538095D01*
X180014285Y-172252380D02*
X179823809Y-172252380D01*
X179728571Y-172204761D01*
X179680952Y-172157142D01*
X179585714Y-172014285D01*
X179538095Y-171823809D01*
X179538095Y-171442857D01*
X179585714Y-171347619D01*
X179633333Y-171300000D01*
X179728571Y-171252380D01*
X179919047Y-171252380D01*
X180014285Y-171300000D01*
X180061904Y-171347619D01*
X180109523Y-171442857D01*
X180109523Y-171680952D01*
X180061904Y-171776190D01*
X180014285Y-171823809D01*
X179919047Y-171871428D01*
X179728571Y-171871428D01*
X179633333Y-171823809D01*
X179585714Y-171776190D01*
X179538095Y-171680952D01*
X163014285Y-110952380D02*
X163014285Y-109952380D01*
X162776190Y-109952380D01*
X162633333Y-110000000D01*
X162538095Y-110095238D01*
X162490476Y-110190476D01*
X162442857Y-110380952D01*
X162442857Y-110523809D01*
X162490476Y-110714285D01*
X162538095Y-110809523D01*
X162633333Y-110904761D01*
X162776190Y-110952380D01*
X163014285Y-110952380D01*
X162061904Y-110047619D02*
X162014285Y-110000000D01*
X161919047Y-109952380D01*
X161680952Y-109952380D01*
X161585714Y-110000000D01*
X161538095Y-110047619D01*
X161490476Y-110142857D01*
X161490476Y-110238095D01*
X161538095Y-110380952D01*
X162109523Y-110952380D01*
X161490476Y-110952380D01*
X160871428Y-109952380D02*
X160776190Y-109952380D01*
X160680952Y-110000000D01*
X160633333Y-110047619D01*
X160585714Y-110142857D01*
X160538095Y-110333333D01*
X160538095Y-110571428D01*
X160585714Y-110761904D01*
X160633333Y-110857142D01*
X160680952Y-110904761D01*
X160776190Y-110952380D01*
X160871428Y-110952380D01*
X160966666Y-110904761D01*
X161014285Y-110857142D01*
X161061904Y-110761904D01*
X161109523Y-110571428D01*
X161109523Y-110333333D01*
X161061904Y-110142857D01*
X161014285Y-110047619D01*
X160966666Y-110000000D01*
X160871428Y-109952380D01*
X163014285Y-129152380D02*
X163014285Y-128152380D01*
X162776190Y-128152380D01*
X162633333Y-128200000D01*
X162538095Y-128295238D01*
X162490476Y-128390476D01*
X162442857Y-128580952D01*
X162442857Y-128723809D01*
X162490476Y-128914285D01*
X162538095Y-129009523D01*
X162633333Y-129104761D01*
X162776190Y-129152380D01*
X163014285Y-129152380D01*
X162061904Y-128247619D02*
X162014285Y-128200000D01*
X161919047Y-128152380D01*
X161680952Y-128152380D01*
X161585714Y-128200000D01*
X161538095Y-128247619D01*
X161490476Y-128342857D01*
X161490476Y-128438095D01*
X161538095Y-128580952D01*
X162109523Y-129152380D01*
X161490476Y-129152380D01*
X160538095Y-129152380D02*
X161109523Y-129152380D01*
X160823809Y-129152380D02*
X160823809Y-128152380D01*
X160919047Y-128295238D01*
X161014285Y-128390476D01*
X161109523Y-128438095D01*
X163014285Y-149302380D02*
X163014285Y-148302380D01*
X162776190Y-148302380D01*
X162633333Y-148350000D01*
X162538095Y-148445238D01*
X162490476Y-148540476D01*
X162442857Y-148730952D01*
X162442857Y-148873809D01*
X162490476Y-149064285D01*
X162538095Y-149159523D01*
X162633333Y-149254761D01*
X162776190Y-149302380D01*
X163014285Y-149302380D01*
X162061904Y-148397619D02*
X162014285Y-148350000D01*
X161919047Y-148302380D01*
X161680952Y-148302380D01*
X161585714Y-148350000D01*
X161538095Y-148397619D01*
X161490476Y-148492857D01*
X161490476Y-148588095D01*
X161538095Y-148730952D01*
X162109523Y-149302380D01*
X161490476Y-149302380D01*
X161109523Y-148397619D02*
X161061904Y-148350000D01*
X160966666Y-148302380D01*
X160728571Y-148302380D01*
X160633333Y-148350000D01*
X160585714Y-148397619D01*
X160538095Y-148492857D01*
X160538095Y-148588095D01*
X160585714Y-148730952D01*
X161157142Y-149302380D01*
X160538095Y-149302380D01*
X163014285Y-167352380D02*
X163014285Y-166352380D01*
X162776190Y-166352380D01*
X162633333Y-166400000D01*
X162538095Y-166495238D01*
X162490476Y-166590476D01*
X162442857Y-166780952D01*
X162442857Y-166923809D01*
X162490476Y-167114285D01*
X162538095Y-167209523D01*
X162633333Y-167304761D01*
X162776190Y-167352380D01*
X163014285Y-167352380D01*
X162061904Y-166447619D02*
X162014285Y-166400000D01*
X161919047Y-166352380D01*
X161680952Y-166352380D01*
X161585714Y-166400000D01*
X161538095Y-166447619D01*
X161490476Y-166542857D01*
X161490476Y-166638095D01*
X161538095Y-166780952D01*
X162109523Y-167352380D01*
X161490476Y-167352380D01*
X161157142Y-166352380D02*
X160538095Y-166352380D01*
X160871428Y-166733333D01*
X160728571Y-166733333D01*
X160633333Y-166780952D01*
X160585714Y-166828571D01*
X160538095Y-166923809D01*
X160538095Y-167161904D01*
X160585714Y-167257142D01*
X160633333Y-167304761D01*
X160728571Y-167352380D01*
X161014285Y-167352380D01*
X161109523Y-167304761D01*
X161157142Y-167257142D01*
X158602380Y-171985714D02*
X157602380Y-171985714D01*
X157602380Y-172223809D01*
X157650000Y-172366666D01*
X157745238Y-172461904D01*
X157840476Y-172509523D01*
X158030952Y-172557142D01*
X158173809Y-172557142D01*
X158364285Y-172509523D01*
X158459523Y-172461904D01*
X158554761Y-172366666D01*
X158602380Y-172223809D01*
X158602380Y-171985714D01*
X157697619Y-172938095D02*
X157650000Y-172985714D01*
X157602380Y-173080952D01*
X157602380Y-173319047D01*
X157650000Y-173414285D01*
X157697619Y-173461904D01*
X157792857Y-173509523D01*
X157888095Y-173509523D01*
X158030952Y-173461904D01*
X158602380Y-172890476D01*
X158602380Y-173509523D01*
X157935714Y-174366666D02*
X158602380Y-174366666D01*
X157554761Y-174128571D02*
X158269047Y-173890476D01*
X158269047Y-174509523D01*
X143984285Y-114102380D02*
X143984285Y-113102380D01*
X143746190Y-113102380D01*
X143603333Y-113150000D01*
X143508095Y-113245238D01*
X143460476Y-113340476D01*
X143412857Y-113530952D01*
X143412857Y-113673809D01*
X143460476Y-113864285D01*
X143508095Y-113959523D01*
X143603333Y-114054761D01*
X143746190Y-114102380D01*
X143984285Y-114102380D01*
X143031904Y-113197619D02*
X142984285Y-113150000D01*
X142889047Y-113102380D01*
X142650952Y-113102380D01*
X142555714Y-113150000D01*
X142508095Y-113197619D01*
X142460476Y-113292857D01*
X142460476Y-113388095D01*
X142508095Y-113530952D01*
X143079523Y-114102380D01*
X142460476Y-114102380D01*
X141555714Y-113102380D02*
X142031904Y-113102380D01*
X142079523Y-113578571D01*
X142031904Y-113530952D01*
X141936666Y-113483333D01*
X141698571Y-113483333D01*
X141603333Y-113530952D01*
X141555714Y-113578571D01*
X141508095Y-113673809D01*
X141508095Y-113911904D01*
X141555714Y-114007142D01*
X141603333Y-114054761D01*
X141698571Y-114102380D01*
X141936666Y-114102380D01*
X142031904Y-114054761D01*
X142079523Y-114007142D01*
X144024285Y-134482380D02*
X144024285Y-133482380D01*
X143786190Y-133482380D01*
X143643333Y-133530000D01*
X143548095Y-133625238D01*
X143500476Y-133720476D01*
X143452857Y-133910952D01*
X143452857Y-134053809D01*
X143500476Y-134244285D01*
X143548095Y-134339523D01*
X143643333Y-134434761D01*
X143786190Y-134482380D01*
X144024285Y-134482380D01*
X143071904Y-133577619D02*
X143024285Y-133530000D01*
X142929047Y-133482380D01*
X142690952Y-133482380D01*
X142595714Y-133530000D01*
X142548095Y-133577619D01*
X142500476Y-133672857D01*
X142500476Y-133768095D01*
X142548095Y-133910952D01*
X143119523Y-134482380D01*
X142500476Y-134482380D01*
X141643333Y-133482380D02*
X141833809Y-133482380D01*
X141929047Y-133530000D01*
X141976666Y-133577619D01*
X142071904Y-133720476D01*
X142119523Y-133910952D01*
X142119523Y-134291904D01*
X142071904Y-134387142D01*
X142024285Y-134434761D01*
X141929047Y-134482380D01*
X141738571Y-134482380D01*
X141643333Y-134434761D01*
X141595714Y-134387142D01*
X141548095Y-134291904D01*
X141548095Y-134053809D01*
X141595714Y-133958571D01*
X141643333Y-133910952D01*
X141738571Y-133863333D01*
X141929047Y-133863333D01*
X142024285Y-133910952D01*
X142071904Y-133958571D01*
X142119523Y-134053809D01*
X144014285Y-153472380D02*
X144014285Y-152472380D01*
X143776190Y-152472380D01*
X143633333Y-152520000D01*
X143538095Y-152615238D01*
X143490476Y-152710476D01*
X143442857Y-152900952D01*
X143442857Y-153043809D01*
X143490476Y-153234285D01*
X143538095Y-153329523D01*
X143633333Y-153424761D01*
X143776190Y-153472380D01*
X144014285Y-153472380D01*
X143061904Y-152567619D02*
X143014285Y-152520000D01*
X142919047Y-152472380D01*
X142680952Y-152472380D01*
X142585714Y-152520000D01*
X142538095Y-152567619D01*
X142490476Y-152662857D01*
X142490476Y-152758095D01*
X142538095Y-152900952D01*
X143109523Y-153472380D01*
X142490476Y-153472380D01*
X142157142Y-152472380D02*
X141490476Y-152472380D01*
X141919047Y-153472380D01*
X144024285Y-176012380D02*
X144024285Y-175012380D01*
X143786190Y-175012380D01*
X143643333Y-175060000D01*
X143548095Y-175155238D01*
X143500476Y-175250476D01*
X143452857Y-175440952D01*
X143452857Y-175583809D01*
X143500476Y-175774285D01*
X143548095Y-175869523D01*
X143643333Y-175964761D01*
X143786190Y-176012380D01*
X144024285Y-176012380D01*
X143071904Y-175107619D02*
X143024285Y-175060000D01*
X142929047Y-175012380D01*
X142690952Y-175012380D01*
X142595714Y-175060000D01*
X142548095Y-175107619D01*
X142500476Y-175202857D01*
X142500476Y-175298095D01*
X142548095Y-175440952D01*
X143119523Y-176012380D01*
X142500476Y-176012380D01*
X141929047Y-175440952D02*
X142024285Y-175393333D01*
X142071904Y-175345714D01*
X142119523Y-175250476D01*
X142119523Y-175202857D01*
X142071904Y-175107619D01*
X142024285Y-175060000D01*
X141929047Y-175012380D01*
X141738571Y-175012380D01*
X141643333Y-175060000D01*
X141595714Y-175107619D01*
X141548095Y-175202857D01*
X141548095Y-175250476D01*
X141595714Y-175345714D01*
X141643333Y-175393333D01*
X141738571Y-175440952D01*
X141929047Y-175440952D01*
X142024285Y-175488571D01*
X142071904Y-175536190D01*
X142119523Y-175631428D01*
X142119523Y-175821904D01*
X142071904Y-175917142D01*
X142024285Y-175964761D01*
X141929047Y-176012380D01*
X141738571Y-176012380D01*
X141643333Y-175964761D01*
X141595714Y-175917142D01*
X141548095Y-175821904D01*
X141548095Y-175631428D01*
X141595714Y-175536190D01*
X141643333Y-175488571D01*
X141738571Y-175440952D01*
X131394285Y-172062380D02*
X131394285Y-171062380D01*
X131156190Y-171062380D01*
X131013333Y-171110000D01*
X130918095Y-171205238D01*
X130870476Y-171300476D01*
X130822857Y-171490952D01*
X130822857Y-171633809D01*
X130870476Y-171824285D01*
X130918095Y-171919523D01*
X131013333Y-172014761D01*
X131156190Y-172062380D01*
X131394285Y-172062380D01*
X130441904Y-171157619D02*
X130394285Y-171110000D01*
X130299047Y-171062380D01*
X130060952Y-171062380D01*
X129965714Y-171110000D01*
X129918095Y-171157619D01*
X129870476Y-171252857D01*
X129870476Y-171348095D01*
X129918095Y-171490952D01*
X130489523Y-172062380D01*
X129870476Y-172062380D01*
X129394285Y-172062380D02*
X129203809Y-172062380D01*
X129108571Y-172014761D01*
X129060952Y-171967142D01*
X128965714Y-171824285D01*
X128918095Y-171633809D01*
X128918095Y-171252857D01*
X128965714Y-171157619D01*
X129013333Y-171110000D01*
X129108571Y-171062380D01*
X129299047Y-171062380D01*
X129394285Y-171110000D01*
X129441904Y-171157619D01*
X129489523Y-171252857D01*
X129489523Y-171490952D01*
X129441904Y-171586190D01*
X129394285Y-171633809D01*
X129299047Y-171681428D01*
X129108571Y-171681428D01*
X129013333Y-171633809D01*
X128965714Y-171586190D01*
X128918095Y-171490952D01*
X120154285Y-114472380D02*
X120154285Y-113472380D01*
X119916190Y-113472380D01*
X119773333Y-113520000D01*
X119678095Y-113615238D01*
X119630476Y-113710476D01*
X119582857Y-113900952D01*
X119582857Y-114043809D01*
X119630476Y-114234285D01*
X119678095Y-114329523D01*
X119773333Y-114424761D01*
X119916190Y-114472380D01*
X120154285Y-114472380D01*
X119249523Y-113472380D02*
X118630476Y-113472380D01*
X118963809Y-113853333D01*
X118820952Y-113853333D01*
X118725714Y-113900952D01*
X118678095Y-113948571D01*
X118630476Y-114043809D01*
X118630476Y-114281904D01*
X118678095Y-114377142D01*
X118725714Y-114424761D01*
X118820952Y-114472380D01*
X119106666Y-114472380D01*
X119201904Y-114424761D01*
X119249523Y-114377142D01*
X118011428Y-113472380D02*
X117916190Y-113472380D01*
X117820952Y-113520000D01*
X117773333Y-113567619D01*
X117725714Y-113662857D01*
X117678095Y-113853333D01*
X117678095Y-114091428D01*
X117725714Y-114281904D01*
X117773333Y-114377142D01*
X117820952Y-114424761D01*
X117916190Y-114472380D01*
X118011428Y-114472380D01*
X118106666Y-114424761D01*
X118154285Y-114377142D01*
X118201904Y-114281904D01*
X118249523Y-114091428D01*
X118249523Y-113853333D01*
X118201904Y-113662857D01*
X118154285Y-113567619D01*
X118106666Y-113520000D01*
X118011428Y-113472380D01*
X120154285Y-119722380D02*
X120154285Y-118722380D01*
X119916190Y-118722380D01*
X119773333Y-118770000D01*
X119678095Y-118865238D01*
X119630476Y-118960476D01*
X119582857Y-119150952D01*
X119582857Y-119293809D01*
X119630476Y-119484285D01*
X119678095Y-119579523D01*
X119773333Y-119674761D01*
X119916190Y-119722380D01*
X120154285Y-119722380D01*
X119249523Y-118722380D02*
X118630476Y-118722380D01*
X118963809Y-119103333D01*
X118820952Y-119103333D01*
X118725714Y-119150952D01*
X118678095Y-119198571D01*
X118630476Y-119293809D01*
X118630476Y-119531904D01*
X118678095Y-119627142D01*
X118725714Y-119674761D01*
X118820952Y-119722380D01*
X119106666Y-119722380D01*
X119201904Y-119674761D01*
X119249523Y-119627142D01*
X117678095Y-119722380D02*
X118249523Y-119722380D01*
X117963809Y-119722380D02*
X117963809Y-118722380D01*
X118059047Y-118865238D01*
X118154285Y-118960476D01*
X118249523Y-119008095D01*
X117894285Y-138852380D02*
X117894285Y-137852380D01*
X117656190Y-137852380D01*
X117513333Y-137900000D01*
X117418095Y-137995238D01*
X117370476Y-138090476D01*
X117322857Y-138280952D01*
X117322857Y-138423809D01*
X117370476Y-138614285D01*
X117418095Y-138709523D01*
X117513333Y-138804761D01*
X117656190Y-138852380D01*
X117894285Y-138852380D01*
X116989523Y-137852380D02*
X116370476Y-137852380D01*
X116703809Y-138233333D01*
X116560952Y-138233333D01*
X116465714Y-138280952D01*
X116418095Y-138328571D01*
X116370476Y-138423809D01*
X116370476Y-138661904D01*
X116418095Y-138757142D01*
X116465714Y-138804761D01*
X116560952Y-138852380D01*
X116846666Y-138852380D01*
X116941904Y-138804761D01*
X116989523Y-138757142D01*
X115989523Y-137947619D02*
X115941904Y-137900000D01*
X115846666Y-137852380D01*
X115608571Y-137852380D01*
X115513333Y-137900000D01*
X115465714Y-137947619D01*
X115418095Y-138042857D01*
X115418095Y-138138095D01*
X115465714Y-138280952D01*
X116037142Y-138852380D01*
X115418095Y-138852380D01*
X113492380Y-152625714D02*
X112492380Y-152625714D01*
X112492380Y-152863809D01*
X112540000Y-153006666D01*
X112635238Y-153101904D01*
X112730476Y-153149523D01*
X112920952Y-153197142D01*
X113063809Y-153197142D01*
X113254285Y-153149523D01*
X113349523Y-153101904D01*
X113444761Y-153006666D01*
X113492380Y-152863809D01*
X113492380Y-152625714D01*
X112492380Y-153530476D02*
X112492380Y-154149523D01*
X112873333Y-153816190D01*
X112873333Y-153959047D01*
X112920952Y-154054285D01*
X112968571Y-154101904D01*
X113063809Y-154149523D01*
X113301904Y-154149523D01*
X113397142Y-154101904D01*
X113444761Y-154054285D01*
X113492380Y-153959047D01*
X113492380Y-153673333D01*
X113444761Y-153578095D01*
X113397142Y-153530476D01*
X112492380Y-154482857D02*
X112492380Y-155101904D01*
X112873333Y-154768571D01*
X112873333Y-154911428D01*
X112920952Y-155006666D01*
X112968571Y-155054285D01*
X113063809Y-155101904D01*
X113301904Y-155101904D01*
X113397142Y-155054285D01*
X113444761Y-155006666D01*
X113492380Y-154911428D01*
X113492380Y-154625714D01*
X113444761Y-154530476D01*
X113397142Y-154482857D01*
X138182380Y-78333333D02*
X137706190Y-78000000D01*
X138182380Y-77761904D02*
X137182380Y-77761904D01*
X137182380Y-78142857D01*
X137230000Y-78238095D01*
X137277619Y-78285714D01*
X137372857Y-78333333D01*
X137515714Y-78333333D01*
X137610952Y-78285714D01*
X137658571Y-78238095D01*
X137706190Y-78142857D01*
X137706190Y-77761904D01*
X138182380Y-79285714D02*
X138182380Y-78714285D01*
X138182380Y-79000000D02*
X137182380Y-79000000D01*
X137325238Y-78904761D01*
X137420476Y-78809523D01*
X137468095Y-78714285D01*
X142082380Y-78333333D02*
X141606190Y-78000000D01*
X142082380Y-77761904D02*
X141082380Y-77761904D01*
X141082380Y-78142857D01*
X141130000Y-78238095D01*
X141177619Y-78285714D01*
X141272857Y-78333333D01*
X141415714Y-78333333D01*
X141510952Y-78285714D01*
X141558571Y-78238095D01*
X141606190Y-78142857D01*
X141606190Y-77761904D01*
X141177619Y-78714285D02*
X141130000Y-78761904D01*
X141082380Y-78857142D01*
X141082380Y-79095238D01*
X141130000Y-79190476D01*
X141177619Y-79238095D01*
X141272857Y-79285714D01*
X141368095Y-79285714D01*
X141510952Y-79238095D01*
X142082380Y-78666666D01*
X142082380Y-79285714D01*
M02*
